<?xml version="1.0" encoding="UTF-8" standalone="no"?><svg xmlns="http://www.w3.org/2000/svg" xmlns:xlink="http://www.w3.org/1999/xlink" contentScriptType="application/ecmascript" contentStyleType="text/css" height="898px" preserveAspectRatio="none" style="width:1936px;height:898px;background:#FFFFFF;" version="1.1" viewBox="0 0 1936 898" width="1936px" zoomAndPan="magnify"><defs><filter height="300%" id="fhgiz3b7jj4f5" width="300%" x="-1" y="-1"><feGaussianBlur result="blurOut" stdDeviation="2.0"/><feColorMatrix in="blurOut" result="blurOut2" type="matrix" values="0 0 0 0 0 0 0 0 0 0 0 0 0 0 0 0 0 0 .4 0"/><feOffset dx="4.0" dy="4.0" in="blurOut2" result="blurOut3"/><feBlend in="SourceGraphic" in2="blurOut3" mode="normal"/></filter></defs><g><!--MD5=[13fb849c6dfc9273db4c5b2c7ac96a10]
class Publisher--><rect codeLine="3" fill="#FEFECE" filter="url(#fhgiz3b7jj4f5)" height="97.6953" id="Publisher" style="stroke:#A80036;stroke-width:1.5;" width="188" x="259" y="27.5"/><ellipse cx="320.25" cy="47.5938" fill="#B4A7E5" rx="11" ry="11" style="stroke:#A80036;stroke-width:1.0;"/><path d="M321.25,44.5938 L321.25,50.5938 L323.25,50.5938 L323.7344,50.5938 L324.25,51.2188 L324.25,51.5938 L324.25,51.9688 L323.7344,52.5938 L323.25,52.5938 L317.25,52.5938 L316.7656,52.5938 L316.25,51.9688 L316.25,51.5938 L316.25,51.2188 L316.7656,50.5938 L317.25,50.5938 L319.25,50.5938 L319.25,44.5938 L317.25,44.5938 L316.7656,44.5938 L316.25,43.9688 L316.25,43.5938 L316.25,43.2188 L316.7656,42.5938 L317.25,42.5938 L323.25,42.5938 L323.7344,42.5938 L324.25,43.2188 L324.25,43.5938 L324.25,43.9688 L323.7344,44.5938 L323.25,44.5938 L321.25,44.5938 Z " fill="#000000"/><text fill="#000000" font-family="sans-serif" font-size="12" font-style="italic" lengthAdjust="spacing" textLength="61" x="338.75" y="44.957">«interface»</text><text fill="#000000" font-family="sans-serif" font-size="12" font-style="italic" lengthAdjust="spacing" textLength="53" x="342.75" y="60.0508">Publisher</text><line style="stroke:#A80036;stroke-width:1.5;" x1="260" x2="446" y1="67.6875" y2="67.6875"/><line style="stroke:#A80036;stroke-width:1.5;" x1="260" x2="446" y1="75.6875" y2="75.6875"/><ellipse cx="270" cy="86.6875" fill="#84BE84" rx="3" ry="3" style="stroke:#038048;stroke-width:1.0;"/><text fill="#000000" font-family="sans-serif" font-size="11" lengthAdjust="spacing" textLength="159" x="279" y="91.1064">attachObserver(Observer) : void</text><ellipse cx="270" cy="100.5234" fill="#84BE84" rx="3" ry="3" style="stroke:#038048;stroke-width:1.0;"/><text fill="#000000" font-family="sans-serif" font-size="11" lengthAdjust="spacing" textLength="162" x="279" y="104.9424">detachObserver(Observer) : void</text><ellipse cx="270" cy="114.3594" fill="#84BE84" rx="3" ry="3" style="stroke:#038048;stroke-width:1.0;"/><text fill="#000000" font-family="sans-serif" font-size="11" lengthAdjust="spacing" textLength="64" x="279" y="118.7783">notify() : void</text><!--MD5=[d40932010816485ec57b44b6eea2392a]
class Observer--><rect codeLine="9" fill="#FEFECE" filter="url(#fhgiz3b7jj4f5)" height="56.1875" id="Observer" style="stroke:#A80036;stroke-width:1.5;" width="89" x="118.5" y="48.5"/><ellipse cx="133.5" cy="68.5938" fill="#B4A7E5" rx="11" ry="11" style="stroke:#A80036;stroke-width:1.0;"/><path d="M134.5,65.5938 L134.5,71.5938 L136.5,71.5938 L136.9844,71.5938 L137.5,72.2188 L137.5,72.5938 L137.5,72.9688 L136.9844,73.5938 L136.5,73.5938 L130.5,73.5938 L130.0156,73.5938 L129.5,72.9688 L129.5,72.5938 L129.5,72.2188 L130.0156,71.5938 L130.5,71.5938 L132.5,71.5938 L132.5,65.5938 L130.5,65.5938 L130.0156,65.5938 L129.5,64.9688 L129.5,64.5938 L129.5,64.2188 L130.0156,63.5938 L130.5,63.5938 L136.5,63.5938 L136.9844,63.5938 L137.5,64.2188 L137.5,64.5938 L137.5,64.9688 L136.9844,65.5938 L136.5,65.5938 L134.5,65.5938 Z " fill="#000000"/><text fill="#000000" font-family="sans-serif" font-size="12" font-style="italic" lengthAdjust="spacing" textLength="61" x="145.5" y="65.957">«interface»</text><text fill="#000000" font-family="sans-serif" font-size="12" font-style="italic" lengthAdjust="spacing" textLength="51" x="150.5" y="81.0508">Observer</text><line style="stroke:#A80036;stroke-width:1.5;" x1="119.5" x2="206.5" y1="88.6875" y2="88.6875"/><line style="stroke:#A80036;stroke-width:1.5;" x1="119.5" x2="206.5" y1="96.6875" y2="96.6875"/><!--MD5=[09ce52be0ee7de43c61b6e2d59bf108b]
class Person--><rect codeLine="12" fill="#FEFECE" filter="url(#fhgiz3b7jj4f5)" height="144.8516" id="Person" style="stroke:#A80036;stroke-width:1.5;" width="149" x="166.5" y="740"/><ellipse cx="216.75" cy="756" fill="#ADD1B2" rx="11" ry="11" style="stroke:#A80036;stroke-width:1.0;"/><path d="M218.75,752.5 Q218.9531,752 219.1875,751.75 Q219.4219,751.5 219.6875,751.5 Q220.1563,751.5 220.4531,751.7813 Q220.75,752.0625 220.75,752.7188 L220.75,754.2813 Q220.75,754.9375 220.4688,755.2188 Q220.1875,755.5 219.75,755.5 Q219.3594,755.5 219.1094,755.3281 Q218.8594,755.1563 218.75,754.7031 Q218.7031,754.3906 218.5313,754.2188 Q218.2188,753.8906 217.6563,753.7031 Q217.0938,753.5 216.5313,753.5 Q215.8281,753.5 215.2344,753.7813 Q214.6563,754.0625 214.2031,754.6875 Q213.75,755.3125 213.75,756.1719 L213.75,757.0938 Q213.75,758.125 214.5938,758.8125 Q215.4375,759.5 216.9375,759.5 Q217.8281,759.5 218.4531,759.2969 Q218.8125,759.1875 219.2188,758.8281 Q219.4844,758.625 219.625,758.5625 Q219.7656,758.5 219.9375,758.5 Q220.2656,758.5 220.5,758.7656 Q220.75,759.0156 220.75,759.375 Q220.75,759.7188 220.4063,760.125 Q219.9063,760.7188 219.1094,761.0469 Q218.0625,761.5 216.7813,761.5 Q215.2813,761.5 214.0781,760.9063 Q213.1094,760.4375 212.4219,759.4219 Q211.75,758.4063 211.75,757.2031 L211.75,756.1094 Q211.75,754.8594 212.3438,753.7656 Q212.9531,752.6719 214,752.0938 Q215.0625,751.5 216.25,751.5 Q216.9688,751.5 217.5938,751.75 Q218.2188,752 218.75,752.5 Z " fill="#000000"/><text fill="#000000" font-family="sans-serif" font-size="12" lengthAdjust="spacing" textLength="40" x="237.25" y="760.9102">Person</text><line style="stroke:#A80036;stroke-width:1.5;" x1="167.5" x2="314.5" y1="772" y2="772"/><rect fill="none" height="6" style="stroke:#C82930;stroke-width:1.0;" width="6" x="174.5" y="780"/><text fill="#000000" font-family="sans-serif" font-size="11" lengthAdjust="spacing" textLength="83" x="186.5" y="787.4189">firstName : String</text><rect fill="none" height="6" style="stroke:#C82930;stroke-width:1.0;" width="6" x="174.5" y="793.8359"/><text fill="#000000" font-family="sans-serif" font-size="11" lengthAdjust="spacing" textLength="81" x="186.5" y="801.2549">lastName : String</text><rect fill="none" height="6" style="stroke:#C82930;stroke-width:1.0;" width="6" x="174.5" y="807.6719"/><text fill="#000000" font-family="sans-serif" font-size="11" lengthAdjust="spacing" textLength="61" x="186.5" y="815.0908">email : String</text><rect fill="none" height="6" style="stroke:#C82930;stroke-width:1.0;" width="6" x="174.5" y="821.5078"/><text fill="#000000" font-family="sans-serif" font-size="11" lengthAdjust="spacing" textLength="123" x="186.5" y="828.9268">hashedPassword : String</text><line style="stroke:#A80036;stroke-width:1.5;" x1="167.5" x2="314.5" y1="835.3438" y2="835.3438"/><ellipse cx="177.5" cy="846.3438" fill="#84BE84" rx="3" ry="3" style="stroke:#038048;stroke-width:1.0;"/><text fill="#000000" font-family="sans-serif" font-size="11" lengthAdjust="spacing" textLength="108" x="186.5" y="850.7627">getFirstName() : String</text><ellipse cx="177.5" cy="860.1797" fill="#84BE84" rx="3" ry="3" style="stroke:#038048;stroke-width:1.0;"/><text fill="#000000" font-family="sans-serif" font-size="11" lengthAdjust="spacing" textLength="108" x="186.5" y="864.5986">getLastName() : String</text><ellipse cx="177.5" cy="874.0156" fill="#84BE84" rx="3" ry="3" style="stroke:#038048;stroke-width:1.0;"/><text fill="#000000" font-family="sans-serif" font-size="11" lengthAdjust="spacing" textLength="84" x="186.5" y="878.4346">getEmail() : String</text><!--MD5=[3fd616f346a44cd59a91eb10b19e157c]
class User--><rect codeLine="22" fill="#FEFECE" filter="url(#fhgiz3b7jj4f5)" height="200.1953" id="User" style="stroke:#A80036;stroke-width:1.5;" width="228" x="7" y="480"/><ellipse cx="103.25" cy="496" fill="#ADD1B2" rx="11" ry="11" style="stroke:#A80036;stroke-width:1.0;"/><path d="M105.25,492.5 Q105.4531,492 105.6875,491.75 Q105.9219,491.5 106.1875,491.5 Q106.6563,491.5 106.9531,491.7813 Q107.25,492.0625 107.25,492.7188 L107.25,494.2813 Q107.25,494.9375 106.9688,495.2188 Q106.6875,495.5 106.25,495.5 Q105.8594,495.5 105.6094,495.3281 Q105.3594,495.1563 105.25,494.7031 Q105.2031,494.3906 105.0313,494.2188 Q104.7188,493.8906 104.1563,493.7031 Q103.5938,493.5 103.0313,493.5 Q102.3281,493.5 101.7344,493.7813 Q101.1563,494.0625 100.7031,494.6875 Q100.25,495.3125 100.25,496.1719 L100.25,497.0938 Q100.25,498.125 101.0938,498.8125 Q101.9375,499.5 103.4375,499.5 Q104.3281,499.5 104.9531,499.2969 Q105.3125,499.1875 105.7188,498.8281 Q105.9844,498.625 106.125,498.5625 Q106.2656,498.5 106.4375,498.5 Q106.7656,498.5 107,498.7656 Q107.25,499.0156 107.25,499.375 Q107.25,499.7188 106.9063,500.125 Q106.4063,500.7188 105.6094,501.0469 Q104.5625,501.5 103.2813,501.5 Q101.7813,501.5 100.5781,500.9063 Q99.6094,500.4375 98.9219,499.4219 Q98.25,498.4063 98.25,497.2031 L98.25,496.1094 Q98.25,494.8594 98.8438,493.7656 Q99.4531,492.6719 100.5,492.0938 Q101.5625,491.5 102.75,491.5 Q103.4688,491.5 104.0938,491.75 Q104.7188,492 105.25,492.5 Z " fill="#000000"/><text fill="#000000" font-family="sans-serif" font-size="12" lengthAdjust="spacing" textLength="27" x="123.75" y="500.9102">User</text><line style="stroke:#A80036;stroke-width:1.5;" x1="8" x2="234" y1="512" y2="512"/><rect fill="none" height="6" style="stroke:#C82930;stroke-width:1.0;" width="6" x="15" y="520"/><text fill="#000000" font-family="sans-serif" font-size="11" lengthAdjust="spacing" textLength="179" x="27" y="527.4189">intervalNotificationsEnabled : boolean</text><rect fill="none" height="6" style="stroke:#C82930;stroke-width:1.0;" width="6" x="15" y="533.8359"/><text fill="#000000" font-family="sans-serif" font-size="11" lengthAdjust="spacing" textLength="90" x="27" y="541.2549">timeInterval : string</text><rect fill="none" height="6" style="stroke:#C82930;stroke-width:1.0;" width="6" x="15" y="547.6719"/><text fill="#000000" font-family="sans-serif" font-size="11" lengthAdjust="spacing" textLength="170" x="27" y="555.0908">alarmNotificationsEnabled : boolean</text><rect fill="none" height="6" style="stroke:#C82930;stroke-width:1.0;" width="6" x="15" y="561.5078"/><text fill="#000000" font-family="sans-serif" font-size="11" lengthAdjust="spacing" textLength="117" x="27" y="568.9268">alarmRanges : Double[][]</text><line style="stroke:#A80036;stroke-width:1.5;" x1="8" x2="234" y1="575.3438" y2="575.3438"/><ellipse cx="18" cy="586.3438" fill="#84BE84" rx="3" ry="3" style="stroke:#038048;stroke-width:1.0;"/><text fill="#000000" font-family="sans-serif" font-size="11" lengthAdjust="spacing" textLength="202" x="27" y="590.7627">getIntervalNotificationsEnabled() : boolean</text><ellipse cx="18" cy="600.1797" fill="#84BE84" rx="3" ry="3" style="stroke:#038048;stroke-width:1.0;"/><text fill="#000000" font-family="sans-serif" font-size="11" lengthAdjust="spacing" textLength="116" x="27" y="604.5986">getTimeInterval() : string</text><ellipse cx="18" cy="614.0156" fill="#84BE84" rx="3" ry="3" style="stroke:#038048;stroke-width:1.0;"/><text fill="#000000" font-family="sans-serif" font-size="11" lengthAdjust="spacing" textLength="195" x="27" y="618.4346">getAlarmNotificationsEnabled() : boolean</text><ellipse cx="18" cy="627.8516" fill="#84BE84" rx="3" ry="3" style="stroke:#038048;stroke-width:1.0;"/><text fill="#000000" font-family="sans-serif" font-size="11" lengthAdjust="spacing" textLength="142" x="27" y="632.2705">getAlarmRanges() : Double[][]</text><rect fill="#F24D5C" height="6" style="stroke:#C82930;stroke-width:1.0;" width="6" x="15" y="638.6875"/><text fill="#000000" font-family="sans-serif" font-size="11" lengthAdjust="spacing" textLength="180" x="27" y="646.1064">updateAlarmRanges(Double[][]) : void</text><rect fill="#F24D5C" height="6" style="stroke:#C82930;stroke-width:1.0;" width="6" x="15" y="652.5234"/><text fill="#000000" font-family="sans-serif" font-size="11" lengthAdjust="spacing" textLength="163" x="27" y="659.9424">subscribeToStation(Station) : void</text><rect fill="#F24D5C" height="6" style="stroke:#C82930;stroke-width:1.0;" width="6" x="15" y="666.3594"/><text fill="#000000" font-family="sans-serif" font-size="11" lengthAdjust="spacing" textLength="187" x="27" y="673.7783">unsubscribeFromStation(Station) : void</text><!--MD5=[db6d18d8099558415abc41d00477ab92]
class Admin--><rect codeLine="36" fill="#FEFECE" filter="url(#fhgiz3b7jj4f5)" height="75.6719" id="Admin" style="stroke:#A80036;stroke-width:1.5;" width="181" x="270.5" y="542"/><ellipse cx="339.25" cy="558" fill="#ADD1B2" rx="11" ry="11" style="stroke:#A80036;stroke-width:1.0;"/><path d="M341.25,554.5 Q341.4531,554 341.6875,553.75 Q341.9219,553.5 342.1875,553.5 Q342.6563,553.5 342.9531,553.7813 Q343.25,554.0625 343.25,554.7188 L343.25,556.2813 Q343.25,556.9375 342.9688,557.2188 Q342.6875,557.5 342.25,557.5 Q341.8594,557.5 341.6094,557.3281 Q341.3594,557.1563 341.25,556.7031 Q341.2031,556.3906 341.0313,556.2188 Q340.7188,555.8906 340.1563,555.7031 Q339.5938,555.5 339.0313,555.5 Q338.3281,555.5 337.7344,555.7813 Q337.1563,556.0625 336.7031,556.6875 Q336.25,557.3125 336.25,558.1719 L336.25,559.0938 Q336.25,560.125 337.0938,560.8125 Q337.9375,561.5 339.4375,561.5 Q340.3281,561.5 340.9531,561.2969 Q341.3125,561.1875 341.7188,560.8281 Q341.9844,560.625 342.125,560.5625 Q342.2656,560.5 342.4375,560.5 Q342.7656,560.5 343,560.7656 Q343.25,561.0156 343.25,561.375 Q343.25,561.7188 342.9063,562.125 Q342.4063,562.7188 341.6094,563.0469 Q340.5625,563.5 339.2813,563.5 Q337.7813,563.5 336.5781,562.9063 Q335.6094,562.4375 334.9219,561.4219 Q334.25,560.4063 334.25,559.2031 L334.25,558.1094 Q334.25,556.8594 334.8438,555.7656 Q335.4531,554.6719 336.5,554.0938 Q337.5625,553.5 338.75,553.5 Q339.4688,553.5 340.0938,553.75 Q340.7188,554 341.25,554.5 Z " fill="#000000"/><text fill="#000000" font-family="sans-serif" font-size="12" lengthAdjust="spacing" textLength="35" x="359.75" y="562.9102">Admin</text><line style="stroke:#A80036;stroke-width:1.5;" x1="271.5" x2="450.5" y1="574" y2="574"/><line style="stroke:#A80036;stroke-width:1.5;" x1="271.5" x2="450.5" y1="582" y2="582"/><rect fill="#F24D5C" height="6" style="stroke:#C82930;stroke-width:1.0;" width="6" x="278.5" y="590"/><text fill="#000000" font-family="sans-serif" font-size="11" lengthAdjust="spacing" textLength="153" x="290.5" y="597.4189">enableStation(Station) : boolean</text><rect fill="#F24D5C" height="6" style="stroke:#C82930;stroke-width:1.0;" width="6" x="278.5" y="603.8359"/><text fill="#000000" font-family="sans-serif" font-size="11" lengthAdjust="spacing" textLength="155" x="290.5" y="611.2549">disableStation(Station) : boolean</text><!--MD5=[97d46ae094d28e0d28828e4b8046fed1]
class Sensor--><rect codeLine="41" fill="#FEFECE" filter="url(#fhgiz3b7jj4f5)" height="117.1797" id="Sensor" style="stroke:#A80036;stroke-width:1.5;" width="157" x="486.5" y="521.5"/><ellipse cx="540.75" cy="537.5" fill="#ADD1B2" rx="11" ry="11" style="stroke:#A80036;stroke-width:1.0;"/><path d="M542.75,534 Q542.9531,533.5 543.1875,533.25 Q543.4219,533 543.6875,533 Q544.1563,533 544.4531,533.2813 Q544.75,533.5625 544.75,534.2188 L544.75,535.7813 Q544.75,536.4375 544.4688,536.7188 Q544.1875,537 543.75,537 Q543.3594,537 543.1094,536.8281 Q542.8594,536.6563 542.75,536.2031 Q542.7031,535.8906 542.5313,535.7188 Q542.2188,535.3906 541.6563,535.2031 Q541.0938,535 540.5313,535 Q539.8281,535 539.2344,535.2813 Q538.6563,535.5625 538.2031,536.1875 Q537.75,536.8125 537.75,537.6719 L537.75,538.5938 Q537.75,539.625 538.5938,540.3125 Q539.4375,541 540.9375,541 Q541.8281,541 542.4531,540.7969 Q542.8125,540.6875 543.2188,540.3281 Q543.4844,540.125 543.625,540.0625 Q543.7656,540 543.9375,540 Q544.2656,540 544.5,540.2656 Q544.75,540.5156 544.75,540.875 Q544.75,541.2188 544.4063,541.625 Q543.9063,542.2188 543.1094,542.5469 Q542.0625,543 540.7813,543 Q539.2813,543 538.0781,542.4063 Q537.1094,541.9375 536.4219,540.9219 Q535.75,539.9063 535.75,538.7031 L535.75,537.6094 Q535.75,536.3594 536.3438,535.2656 Q536.9531,534.1719 538,533.5938 Q539.0625,533 540.25,533 Q540.9688,533 541.5938,533.25 Q542.2188,533.5 542.75,534 Z " fill="#000000"/><text fill="#000000" font-family="sans-serif" font-size="12" lengthAdjust="spacing" textLength="40" x="561.25" y="542.4102">Sensor</text><line style="stroke:#A80036;stroke-width:1.5;" x1="487.5" x2="642.5" y1="553.5" y2="553.5"/><rect fill="none" height="6" style="stroke:#C82930;stroke-width:1.0;" width="6" x="494.5" y="561.5"/><text fill="#000000" font-family="sans-serif" font-size="11" lengthAdjust="spacing" textLength="58" x="506.5" y="568.9189">type : String</text><rect fill="none" height="6" style="stroke:#C82930;stroke-width:1.0;" width="6" x="494.5" y="575.3359"/><text fill="#000000" font-family="sans-serif" font-size="11" lengthAdjust="spacing" textLength="68" x="506.5" y="582.7549">value : Double</text><line style="stroke:#A80036;stroke-width:1.5;" x1="487.5" x2="642.5" y1="589.1719" y2="589.1719"/><ellipse cx="497.5" cy="600.1719" fill="#84BE84" rx="3" ry="3" style="stroke:#038048;stroke-width:1.0;"/><text fill="#000000" font-family="sans-serif" font-size="11" lengthAdjust="spacing" textLength="84" x="506.5" y="604.5908">getType() : String</text><ellipse cx="497.5" cy="614.0078" fill="#84BE84" rx="3" ry="3" style="stroke:#038048;stroke-width:1.0;"/><text fill="#000000" font-family="sans-serif" font-size="11" lengthAdjust="spacing" textLength="93" x="506.5" y="618.4268">getValue() : Double</text><rect fill="#F24D5C" height="6" style="stroke:#C82930;stroke-width:1.0;" width="6" x="494.5" y="624.8438"/><text fill="#000000" font-family="sans-serif" font-size="11" lengthAdjust="spacing" textLength="131" x="506.5" y="632.2627">updateValue(Double) : void</text><!--MD5=[32f8e77670dc7b12ba11221465fb86a4]
class Station--><rect codeLine="49" fill="#FEFECE" filter="url(#fhgiz3b7jj4f5)" height="214.0313" id="Station" style="stroke:#A80036;stroke-width:1.5;" width="188" x="267" y="206"/><ellipse cx="337.75" cy="222" fill="#ADD1B2" rx="11" ry="11" style="stroke:#A80036;stroke-width:1.0;"/><path d="M339.75,218.5 Q339.9531,218 340.1875,217.75 Q340.4219,217.5 340.6875,217.5 Q341.1563,217.5 341.4531,217.7813 Q341.75,218.0625 341.75,218.7188 L341.75,220.2813 Q341.75,220.9375 341.4688,221.2188 Q341.1875,221.5 340.75,221.5 Q340.3594,221.5 340.1094,221.3281 Q339.8594,221.1563 339.75,220.7031 Q339.7031,220.3906 339.5313,220.2188 Q339.2188,219.8906 338.6563,219.7031 Q338.0938,219.5 337.5313,219.5 Q336.8281,219.5 336.2344,219.7813 Q335.6563,220.0625 335.2031,220.6875 Q334.75,221.3125 334.75,222.1719 L334.75,223.0938 Q334.75,224.125 335.5938,224.8125 Q336.4375,225.5 337.9375,225.5 Q338.8281,225.5 339.4531,225.2969 Q339.8125,225.1875 340.2188,224.8281 Q340.4844,224.625 340.625,224.5625 Q340.7656,224.5 340.9375,224.5 Q341.2656,224.5 341.5,224.7656 Q341.75,225.0156 341.75,225.375 Q341.75,225.7188 341.4063,226.125 Q340.9063,226.7188 340.1094,227.0469 Q339.0625,227.5 337.7813,227.5 Q336.2813,227.5 335.0781,226.9063 Q334.1094,226.4375 333.4219,225.4219 Q332.75,224.4063 332.75,223.2031 L332.75,222.1094 Q332.75,220.8594 333.3438,219.7656 Q333.9531,218.6719 335,218.0938 Q336.0625,217.5 337.25,217.5 Q337.9688,217.5 338.5938,217.75 Q339.2188,218 339.75,218.5 Z " fill="#000000"/><text fill="#000000" font-family="sans-serif" font-size="12" lengthAdjust="spacing" textLength="38" x="358.25" y="226.9102">Station</text><line style="stroke:#A80036;stroke-width:1.5;" x1="268" x2="454" y1="238" y2="238"/><rect fill="none" height="6" style="stroke:#C82930;stroke-width:1.0;" width="6" x="275" y="246"/><text fill="#000000" font-family="sans-serif" font-size="11" lengthAdjust="spacing" textLength="137" x="287" y="253.4189">temperatureSensor : Sensor</text><rect fill="none" height="6" style="stroke:#C82930;stroke-width:1.0;" width="6" x="275" y="259.8359"/><text fill="#000000" font-family="sans-serif" font-size="11" lengthAdjust="spacing" textLength="123" x="287" y="267.2549">pressureSensor : Sensor</text><rect fill="none" height="6" style="stroke:#C82930;stroke-width:1.0;" width="6" x="275" y="273.6719"/><text fill="#000000" font-family="sans-serif" font-size="11" lengthAdjust="spacing" textLength="118" x="287" y="281.0908">humiditySensor : Sensor</text><rect fill="none" height="6" style="stroke:#C82930;stroke-width:1.0;" width="6" x="275" y="287.5078"/><text fill="#000000" font-family="sans-serif" font-size="11" lengthAdjust="spacing" textLength="113" x="287" y="294.9268">altitudeSensor : Sensor</text><rect fill="none" height="6" style="stroke:#C82930;stroke-width:1.0;" width="6" x="275" y="301.3438"/><text fill="#000000" font-family="sans-serif" font-size="11" lengthAdjust="spacing" textLength="111" x="287" y="308.7627">observers : Observer[]</text><rect fill="none" height="6" style="stroke:#C82930;stroke-width:1.0;" width="6" x="275" y="315.1797"/><text fill="#000000" font-family="sans-serif" font-size="11" lengthAdjust="spacing" textLength="58" x="287" y="322.5986">state : State</text><line style="stroke:#A80036;stroke-width:1.5;" x1="268" x2="454" y1="329.0156" y2="329.0156"/><ellipse cx="278" cy="340.0156" fill="#84BE84" rx="3" ry="3" style="stroke:#038048;stroke-width:1.0;"/><text fill="#000000" font-family="sans-serif" font-size="11" lengthAdjust="spacing" textLength="159" x="287" y="344.4346">attachObserver(Observer) : void</text><ellipse cx="278" cy="353.8516" fill="#84BE84" rx="3" ry="3" style="stroke:#038048;stroke-width:1.0;"/><text fill="#000000" font-family="sans-serif" font-size="11" lengthAdjust="spacing" textLength="162" x="287" y="358.2705">detachObserver(Observer) : void</text><rect fill="#F24D5C" height="6" style="stroke:#C82930;stroke-width:1.0;" width="6" x="275" y="364.6875"/><text fill="#000000" font-family="sans-serif" font-size="11" lengthAdjust="spacing" textLength="100" x="287" y="372.1064">intervalNotify() : void</text><rect fill="#F24D5C" height="6" style="stroke:#C82930;stroke-width:1.0;" width="6" x="275" y="378.5234"/><text fill="#000000" font-family="sans-serif" font-size="11" lengthAdjust="spacing" textLength="91" x="287" y="385.9424">alarmNotify() : void</text><ellipse cx="278" cy="395.3594" fill="#84BE84" rx="3" ry="3" style="stroke:#038048;stroke-width:1.0;"/><text fill="#000000" font-family="sans-serif" font-size="11" lengthAdjust="spacing" textLength="82" x="287" y="399.7783">getState() : State</text><ellipse cx="278" cy="409.1953" fill="#84BE84" rx="3" ry="3" style="stroke:#038048;stroke-width:1.0;"/><text fill="#000000" font-family="sans-serif" font-size="11" lengthAdjust="spacing" textLength="82" x="287" y="413.6143">setState() : State</text><!--MD5=[60d6b92408f98aed8df94d5c6e04aa63]
class State--><rect codeLine="64" fill="#FEFECE" filter="url(#fhgiz3b7jj4f5)" height="111.5313" id="State" style="stroke:#A80036;stroke-width:1.5;" width="126" x="679" y="257"/><ellipse cx="710.65" cy="277.0938" fill="#B4A7E5" rx="11" ry="11" style="stroke:#A80036;stroke-width:1.0;"/><path d="M711.65,274.0938 L711.65,280.0938 L713.65,280.0938 L714.1344,280.0938 L714.65,280.7188 L714.65,281.0938 L714.65,281.4688 L714.1344,282.0938 L713.65,282.0938 L707.65,282.0938 L707.1656,282.0938 L706.65,281.4688 L706.65,281.0938 L706.65,280.7188 L707.1656,280.0938 L707.65,280.0938 L709.65,280.0938 L709.65,274.0938 L707.65,274.0938 L707.1656,274.0938 L706.65,273.4688 L706.65,273.0938 L706.65,272.7188 L707.1656,272.0938 L707.65,272.0938 L713.65,272.0938 L714.1344,272.0938 L714.65,272.7188 L714.65,273.0938 L714.65,273.4688 L714.1344,274.0938 L713.65,274.0938 L711.65,274.0938 Z " fill="#000000"/><text fill="#000000" font-family="sans-serif" font-size="12" font-style="italic" lengthAdjust="spacing" textLength="61" x="726.35" y="274.457">«interface»</text><text fill="#000000" font-family="sans-serif" font-size="12" font-style="italic" lengthAdjust="spacing" textLength="28" x="742.85" y="289.5508">State</text><line style="stroke:#A80036;stroke-width:1.5;" x1="680" x2="804" y1="297.1875" y2="297.1875"/><line style="stroke:#A80036;stroke-width:1.5;" x1="680" x2="804" y1="305.1875" y2="305.1875"/><ellipse cx="690" cy="316.1875" fill="#84BE84" rx="3" ry="3" style="stroke:#038048;stroke-width:1.0;"/><text fill="#000000" font-family="sans-serif" font-size="11" lengthAdjust="spacing" textLength="100" x="699" y="320.6064">intervalNotify() : void</text><ellipse cx="690" cy="330.0234" fill="#84BE84" rx="3" ry="3" style="stroke:#038048;stroke-width:1.0;"/><text fill="#000000" font-family="sans-serif" font-size="11" lengthAdjust="spacing" textLength="91" x="699" y="334.4424">alarmNotify() : void</text><ellipse cx="690" cy="343.8594" fill="#84BE84" rx="3" ry="3" style="stroke:#038048;stroke-width:1.0;"/><text fill="#000000" font-family="sans-serif" font-size="11" lengthAdjust="spacing" textLength="69" x="699" y="348.2783">enable() : void</text><ellipse cx="690" cy="357.6953" fill="#84BE84" rx="3" ry="3" style="stroke:#038048;stroke-width:1.0;"/><text fill="#000000" font-family="sans-serif" font-size="11" lengthAdjust="spacing" textLength="71" x="699" y="362.1143">disable() : void</text><!--MD5=[25b4bceb0eadb2b23e15a38ac8f3b043]
class EnabledState--><rect codeLine="71" fill="#FEFECE" filter="url(#fhgiz3b7jj4f5)" height="103.3438" id="EnabledState" style="stroke:#A80036;stroke-width:1.5;" width="126" x="679" y="528.5"/><ellipse cx="703" cy="544.5" fill="#ADD1B2" rx="11" ry="11" style="stroke:#A80036;stroke-width:1.0;"/><path d="M705,541 Q705.2031,540.5 705.4375,540.25 Q705.6719,540 705.9375,540 Q706.4063,540 706.7031,540.2813 Q707,540.5625 707,541.2188 L707,542.7813 Q707,543.4375 706.7188,543.7188 Q706.4375,544 706,544 Q705.6094,544 705.3594,543.8281 Q705.1094,543.6563 705,543.2031 Q704.9531,542.8906 704.7813,542.7188 Q704.4688,542.3906 703.9063,542.2031 Q703.3438,542 702.7813,542 Q702.0781,542 701.4844,542.2813 Q700.9063,542.5625 700.4531,543.1875 Q700,543.8125 700,544.6719 L700,545.5938 Q700,546.625 700.8438,547.3125 Q701.6875,548 703.1875,548 Q704.0781,548 704.7031,547.7969 Q705.0625,547.6875 705.4688,547.3281 Q705.7344,547.125 705.875,547.0625 Q706.0156,547 706.1875,547 Q706.5156,547 706.75,547.2656 Q707,547.5156 707,547.875 Q707,548.2188 706.6563,548.625 Q706.1563,549.2188 705.3594,549.5469 Q704.3125,550 703.0313,550 Q701.5313,550 700.3281,549.4063 Q699.3594,548.9375 698.6719,547.9219 Q698,546.9063 698,545.7031 L698,544.6094 Q698,543.3594 698.5938,542.2656 Q699.2031,541.1719 700.25,540.5938 Q701.3125,540 702.5,540 Q703.2188,540 703.8438,540.25 Q704.4688,540.5 705,541 Z " fill="#000000"/><text fill="#000000" font-family="sans-serif" font-size="12" lengthAdjust="spacing" textLength="74" x="719" y="549.4102">EnabledState</text><line style="stroke:#A80036;stroke-width:1.5;" x1="680" x2="804" y1="560.5" y2="560.5"/><line style="stroke:#A80036;stroke-width:1.5;" x1="680" x2="804" y1="568.5" y2="568.5"/><ellipse cx="690" cy="579.5" fill="#84BE84" rx="3" ry="3" style="stroke:#038048;stroke-width:1.0;"/><text fill="#000000" font-family="sans-serif" font-size="11" lengthAdjust="spacing" textLength="100" x="699" y="583.9189">intervalNotify() : void</text><ellipse cx="690" cy="593.3359" fill="#84BE84" rx="3" ry="3" style="stroke:#038048;stroke-width:1.0;"/><text fill="#000000" font-family="sans-serif" font-size="11" lengthAdjust="spacing" textLength="91" x="699" y="597.7549">alarmNotify() : void</text><ellipse cx="690" cy="607.1719" fill="#84BE84" rx="3" ry="3" style="stroke:#038048;stroke-width:1.0;"/><text fill="#000000" font-family="sans-serif" font-size="11" lengthAdjust="spacing" textLength="69" x="699" y="611.5908">enable() : void</text><ellipse cx="690" cy="621.0078" fill="#84BE84" rx="3" ry="3" style="stroke:#038048;stroke-width:1.0;"/><text fill="#000000" font-family="sans-serif" font-size="11" lengthAdjust="spacing" textLength="71" x="699" y="625.4268">disable() : void</text><!--MD5=[ca54a24f608c0ef8c588f37040609fd4]
class DisabledState--><rect codeLine="78" fill="#FEFECE" filter="url(#fhgiz3b7jj4f5)" height="103.3438" id="DisabledState" style="stroke:#A80036;stroke-width:1.5;" width="126" x="840" y="528.5"/><ellipse cx="862.2" cy="544.5" fill="#ADD1B2" rx="11" ry="11" style="stroke:#A80036;stroke-width:1.0;"/><path d="M864.2,541 Q864.4031,540.5 864.6375,540.25 Q864.8719,540 865.1375,540 Q865.6063,540 865.9031,540.2813 Q866.2,540.5625 866.2,541.2188 L866.2,542.7813 Q866.2,543.4375 865.9188,543.7188 Q865.6375,544 865.2,544 Q864.8094,544 864.5594,543.8281 Q864.3094,543.6563 864.2,543.2031 Q864.1531,542.8906 863.9813,542.7188 Q863.6688,542.3906 863.1063,542.2031 Q862.5438,542 861.9813,542 Q861.2781,542 860.6844,542.2813 Q860.1063,542.5625 859.6531,543.1875 Q859.2,543.8125 859.2,544.6719 L859.2,545.5938 Q859.2,546.625 860.0438,547.3125 Q860.8875,548 862.3875,548 Q863.2781,548 863.9031,547.7969 Q864.2625,547.6875 864.6688,547.3281 Q864.9344,547.125 865.075,547.0625 Q865.2156,547 865.3875,547 Q865.7156,547 865.95,547.2656 Q866.2,547.5156 866.2,547.875 Q866.2,548.2188 865.8563,548.625 Q865.3563,549.2188 864.5594,549.5469 Q863.5125,550 862.2313,550 Q860.7313,550 859.5281,549.4063 Q858.5594,548.9375 857.8719,547.9219 Q857.2,546.9063 857.2,545.7031 L857.2,544.6094 Q857.2,543.3594 857.7938,542.2656 Q858.4031,541.1719 859.45,540.5938 Q860.5125,540 861.7,540 Q862.4188,540 863.0438,540.25 Q863.6688,540.5 864.2,541 Z " fill="#000000"/><text fill="#000000" font-family="sans-serif" font-size="12" lengthAdjust="spacing" textLength="78" x="877.8" y="549.4102">DisabledState</text><line style="stroke:#A80036;stroke-width:1.5;" x1="841" x2="965" y1="560.5" y2="560.5"/><line style="stroke:#A80036;stroke-width:1.5;" x1="841" x2="965" y1="568.5" y2="568.5"/><ellipse cx="851" cy="579.5" fill="#84BE84" rx="3" ry="3" style="stroke:#038048;stroke-width:1.0;"/><text fill="#000000" font-family="sans-serif" font-size="11" lengthAdjust="spacing" textLength="100" x="860" y="583.9189">intervalNotify() : void</text><ellipse cx="851" cy="593.3359" fill="#84BE84" rx="3" ry="3" style="stroke:#038048;stroke-width:1.0;"/><text fill="#000000" font-family="sans-serif" font-size="11" lengthAdjust="spacing" textLength="91" x="860" y="597.7549">alarmNotify() : void</text><ellipse cx="851" cy="607.1719" fill="#84BE84" rx="3" ry="3" style="stroke:#038048;stroke-width:1.0;"/><text fill="#000000" font-family="sans-serif" font-size="11" lengthAdjust="spacing" textLength="69" x="860" y="611.5908">enable() : void</text><ellipse cx="851" cy="621.0078" fill="#84BE84" rx="3" ry="3" style="stroke:#038048;stroke-width:1.0;"/><text fill="#000000" font-family="sans-serif" font-size="11" lengthAdjust="spacing" textLength="71" x="860" y="625.4268">disable() : void</text><!--MD5=[c45f09c1889a26e5e02063768645d77f]
class DBConnectionPool--><rect codeLine="105" fill="#FEFECE" filter="url(#fhgiz3b7jj4f5)" height="89.5078" id="DBConnectionPool" style="stroke:#A80036;stroke-width:1.5;" width="243" x="691.5" y="31.5"/><ellipse cx="756.25" cy="47.5" fill="#ADD1B2" rx="11" ry="11" style="stroke:#A80036;stroke-width:1.0;"/><path d="M758.25,44 Q758.4531,43.5 758.6875,43.25 Q758.9219,43 759.1875,43 Q759.6563,43 759.9531,43.2813 Q760.25,43.5625 760.25,44.2188 L760.25,45.7813 Q760.25,46.4375 759.9688,46.7188 Q759.6875,47 759.25,47 Q758.8594,47 758.6094,46.8281 Q758.3594,46.6563 758.25,46.2031 Q758.2031,45.8906 758.0313,45.7188 Q757.7188,45.3906 757.1563,45.2031 Q756.5938,45 756.0313,45 Q755.3281,45 754.7344,45.2813 Q754.1563,45.5625 753.7031,46.1875 Q753.25,46.8125 753.25,47.6719 L753.25,48.5938 Q753.25,49.625 754.0938,50.3125 Q754.9375,51 756.4375,51 Q757.3281,51 757.9531,50.7969 Q758.3125,50.6875 758.7188,50.3281 Q758.9844,50.125 759.125,50.0625 Q759.2656,50 759.4375,50 Q759.7656,50 760,50.2656 Q760.25,50.5156 760.25,50.875 Q760.25,51.2188 759.9063,51.625 Q759.4063,52.2188 758.6094,52.5469 Q757.5625,53 756.2813,53 Q754.7813,53 753.5781,52.4063 Q752.6094,51.9375 751.9219,50.9219 Q751.25,49.9063 751.25,48.7031 L751.25,47.6094 Q751.25,46.3594 751.8438,45.2656 Q752.4531,44.1719 753.5,43.5938 Q754.5625,43 755.75,43 Q756.4688,43 757.0938,43.25 Q757.7188,43.5 758.25,44 Z " fill="#000000"/><text fill="#000000" font-family="sans-serif" font-size="12" lengthAdjust="spacing" textLength="105" x="776.75" y="52.4102">DBConnectionPool</text><line style="stroke:#A80036;stroke-width:1.5;" x1="692.5" x2="933.5" y1="63.5" y2="63.5"/><line style="stroke:#A80036;stroke-width:1.5;" x1="692.5" x2="933.5" y1="71.5" y2="71.5"/><ellipse cx="702.5" cy="82.5" fill="#84BE84" rx="3" ry="3" style="stroke:#038048;stroke-width:1.0;"/><text fill="#000000" font-family="sans-serif" font-size="11" lengthAdjust="spacing" textLength="161" x="711.5" y="86.9189">getInstance() : DBConnectionPool</text><ellipse cx="702.5" cy="96.3359" fill="#84BE84" rx="3" ry="3" style="stroke:#038048;stroke-width:1.0;"/><text fill="#000000" font-family="sans-serif" font-size="11" lengthAdjust="spacing" textLength="197" x="711.5" y="100.7549">acquireReusable() : ReusableConnection</text><ellipse cx="702.5" cy="110.1719" fill="#84BE84" rx="3" ry="3" style="stroke:#038048;stroke-width:1.0;"/><text fill="#000000" font-family="sans-serif" font-size="11" lengthAdjust="spacing" textLength="217" x="711.5" y="114.5908">releaseReusable(ReusableConnection) : void</text><!--MD5=[4c0bfb81454545c9a2242de4b34d0adb]
class WebServer--><rect fill="#FEFECE" filter="url(#fhgiz3b7jj4f5)" height="48" id="WebServer" style="stroke:#A80036;stroke-width:1.5;" width="92" x="970" y="52.5"/><ellipse cx="985" cy="68.5" fill="#ADD1B2" rx="11" ry="11" style="stroke:#A80036;stroke-width:1.0;"/><path d="M987,65 Q987.2031,64.5 987.4375,64.25 Q987.6719,64 987.9375,64 Q988.4063,64 988.7031,64.2813 Q989,64.5625 989,65.2188 L989,66.7813 Q989,67.4375 988.7188,67.7188 Q988.4375,68 988,68 Q987.6094,68 987.3594,67.8281 Q987.1094,67.6563 987,67.2031 Q986.9531,66.8906 986.7813,66.7188 Q986.4688,66.3906 985.9063,66.2031 Q985.3438,66 984.7813,66 Q984.0781,66 983.4844,66.2813 Q982.9063,66.5625 982.4531,67.1875 Q982,67.8125 982,68.6719 L982,69.5938 Q982,70.625 982.8438,71.3125 Q983.6875,72 985.1875,72 Q986.0781,72 986.7031,71.7969 Q987.0625,71.6875 987.4688,71.3281 Q987.7344,71.125 987.875,71.0625 Q988.0156,71 988.1875,71 Q988.5156,71 988.75,71.2656 Q989,71.5156 989,71.875 Q989,72.2188 988.6563,72.625 Q988.1563,73.2188 987.3594,73.5469 Q986.3125,74 985.0313,74 Q983.5313,74 982.3281,73.4063 Q981.3594,72.9375 980.6719,71.9219 Q980,70.9063 980,69.7031 L980,68.6094 Q980,67.3594 980.5938,66.2656 Q981.2031,65.1719 982.25,64.5938 Q983.3125,64 984.5,64 Q985.2188,64 985.8438,64.25 Q986.4688,64.5 987,65 Z " fill="#000000"/><text fill="#000000" font-family="sans-serif" font-size="12" lengthAdjust="spacing" textLength="60" x="999" y="73.4102">WebServer</text><line style="stroke:#A80036;stroke-width:1.5;" x1="971" x2="1061" y1="84.5" y2="84.5"/><line style="stroke:#A80036;stroke-width:1.5;" x1="971" x2="1061" y1="92.5" y2="92.5"/><!--MD5=[e879cffcf2a9f9c0321030257bbe60af]
class ReusableConnection--><rect fill="#FEFECE" filter="url(#fhgiz3b7jj4f5)" height="48" id="ReusableConnection" style="stroke:#A80036;stroke-width:1.5;" width="149" x="840.5" y="289"/><ellipse cx="855.5" cy="305" fill="#ADD1B2" rx="11" ry="11" style="stroke:#A80036;stroke-width:1.0;"/><path d="M857.5,301.5 Q857.7031,301 857.9375,300.75 Q858.1719,300.5 858.4375,300.5 Q858.9063,300.5 859.2031,300.7813 Q859.5,301.0625 859.5,301.7188 L859.5,303.2813 Q859.5,303.9375 859.2188,304.2188 Q858.9375,304.5 858.5,304.5 Q858.1094,304.5 857.8594,304.3281 Q857.6094,304.1563 857.5,303.7031 Q857.4531,303.3906 857.2813,303.2188 Q856.9688,302.8906 856.4063,302.7031 Q855.8438,302.5 855.2813,302.5 Q854.5781,302.5 853.9844,302.7813 Q853.4063,303.0625 852.9531,303.6875 Q852.5,304.3125 852.5,305.1719 L852.5,306.0938 Q852.5,307.125 853.3438,307.8125 Q854.1875,308.5 855.6875,308.5 Q856.5781,308.5 857.2031,308.2969 Q857.5625,308.1875 857.9688,307.8281 Q858.2344,307.625 858.375,307.5625 Q858.5156,307.5 858.6875,307.5 Q859.0156,307.5 859.25,307.7656 Q859.5,308.0156 859.5,308.375 Q859.5,308.7188 859.1563,309.125 Q858.6563,309.7188 857.8594,310.0469 Q856.8125,310.5 855.5313,310.5 Q854.0313,310.5 852.8281,309.9063 Q851.8594,309.4375 851.1719,308.4219 Q850.5,307.4063 850.5,306.2031 L850.5,305.1094 Q850.5,303.8594 851.0938,302.7656 Q851.7031,301.6719 852.75,301.0938 Q853.8125,300.5 855,300.5 Q855.7188,300.5 856.3438,300.75 Q856.9688,301 857.5,301.5 Z " fill="#000000"/><text fill="#000000" font-family="sans-serif" font-size="12" lengthAdjust="spacing" textLength="117" x="869.5" y="309.9102">ReusableConnection</text><line style="stroke:#A80036;stroke-width:1.5;" x1="841.5" x2="988.5" y1="321" y2="321"/><line style="stroke:#A80036;stroke-width:1.5;" x1="841.5" x2="988.5" y1="329" y2="329"/><!--MD5=[7e20e022571e30ec1001cf6eabd7f3e2]
class Model--><rect codeLine="117" fill="#FEFECE" filter="url(#fhgiz3b7jj4f5)" height="89.5078" id="Model" style="stroke:#A80036;stroke-width:1.5;" width="122" x="1097" y="31.5"/><ellipse cx="1137.65" cy="47.5" fill="#ADD1B2" rx="11" ry="11" style="stroke:#A80036;stroke-width:1.0;"/><path d="M1139.65,44 Q1139.8531,43.5 1140.0875,43.25 Q1140.3219,43 1140.5875,43 Q1141.0563,43 1141.3531,43.2813 Q1141.65,43.5625 1141.65,44.2188 L1141.65,45.7813 Q1141.65,46.4375 1141.3688,46.7188 Q1141.0875,47 1140.65,47 Q1140.2594,47 1140.0094,46.8281 Q1139.7594,46.6563 1139.65,46.2031 Q1139.6031,45.8906 1139.4313,45.7188 Q1139.1188,45.3906 1138.5563,45.2031 Q1137.9938,45 1137.4313,45 Q1136.7281,45 1136.1344,45.2813 Q1135.5563,45.5625 1135.1031,46.1875 Q1134.65,46.8125 1134.65,47.6719 L1134.65,48.5938 Q1134.65,49.625 1135.4938,50.3125 Q1136.3375,51 1137.8375,51 Q1138.7281,51 1139.3531,50.7969 Q1139.7125,50.6875 1140.1188,50.3281 Q1140.3844,50.125 1140.525,50.0625 Q1140.6656,50 1140.8375,50 Q1141.1656,50 1141.4,50.2656 Q1141.65,50.5156 1141.65,50.875 Q1141.65,51.2188 1141.3063,51.625 Q1140.8063,52.2188 1140.0094,52.5469 Q1138.9625,53 1137.6813,53 Q1136.1813,53 1134.9781,52.4063 Q1134.0094,51.9375 1133.3219,50.9219 Q1132.65,49.9063 1132.65,48.7031 L1132.65,47.6094 Q1132.65,46.3594 1133.2438,45.2656 Q1133.8531,44.1719 1134.9,43.5938 Q1135.9625,43 1137.15,43 Q1137.8688,43 1138.4938,43.25 Q1139.1188,43.5 1139.65,44 Z " fill="#000000"/><text fill="#000000" font-family="sans-serif" font-size="12" lengthAdjust="spacing" textLength="33" x="1157.35" y="52.4102">Model</text><line style="stroke:#A80036;stroke-width:1.5;" x1="1098" x2="1218" y1="63.5" y2="63.5"/><line style="stroke:#A80036;stroke-width:1.5;" x1="1098" x2="1218" y1="71.5" y2="71.5"/><ellipse cx="1108" cy="82.5" fill="#84BE84" rx="3" ry="3" style="stroke:#038048;stroke-width:1.0;"/><text fill="#000000" font-family="sans-serif" font-size="11" lengthAdjust="spacing" textLength="93" x="1117" y="86.9189">attach(View) : void</text><ellipse cx="1108" cy="96.3359" fill="#84BE84" rx="3" ry="3" style="stroke:#038048;stroke-width:1.0;"/><text fill="#000000" font-family="sans-serif" font-size="11" lengthAdjust="spacing" textLength="96" x="1117" y="100.7549">detach(View) : void</text><ellipse cx="1108" cy="110.1719" fill="#84BE84" rx="3" ry="3" style="stroke:#038048;stroke-width:1.0;"/><text fill="#000000" font-family="sans-serif" font-size="11" lengthAdjust="spacing" textLength="35" x="1117" y="114.5908">notify()</text><!--MD5=[c045e12321b83266d36d22b9096c24ea]
class View--><rect codeLine="123" fill="#FEFECE" filter="url(#fhgiz3b7jj4f5)" height="75.6719" id="View" style="stroke:#A80036;stroke-width:1.5;" width="142" x="1254" y="38.5"/><ellipse cx="1307.75" cy="54.5" fill="#ADD1B2" rx="11" ry="11" style="stroke:#A80036;stroke-width:1.0;"/><path d="M1309.75,51 Q1309.9531,50.5 1310.1875,50.25 Q1310.4219,50 1310.6875,50 Q1311.1563,50 1311.4531,50.2813 Q1311.75,50.5625 1311.75,51.2188 L1311.75,52.7813 Q1311.75,53.4375 1311.4688,53.7188 Q1311.1875,54 1310.75,54 Q1310.3594,54 1310.1094,53.8281 Q1309.8594,53.6563 1309.75,53.2031 Q1309.7031,52.8906 1309.5313,52.7188 Q1309.2188,52.3906 1308.6563,52.2031 Q1308.0938,52 1307.5313,52 Q1306.8281,52 1306.2344,52.2813 Q1305.6563,52.5625 1305.2031,53.1875 Q1304.75,53.8125 1304.75,54.6719 L1304.75,55.5938 Q1304.75,56.625 1305.5938,57.3125 Q1306.4375,58 1307.9375,58 Q1308.8281,58 1309.4531,57.7969 Q1309.8125,57.6875 1310.2188,57.3281 Q1310.4844,57.125 1310.625,57.0625 Q1310.7656,57 1310.9375,57 Q1311.2656,57 1311.5,57.2656 Q1311.75,57.5156 1311.75,57.875 Q1311.75,58.2188 1311.4063,58.625 Q1310.9063,59.2188 1310.1094,59.5469 Q1309.0625,60 1307.7813,60 Q1306.2813,60 1305.0781,59.4063 Q1304.1094,58.9375 1303.4219,57.9219 Q1302.75,56.9063 1302.75,55.7031 L1302.75,54.6094 Q1302.75,53.3594 1303.3438,52.2656 Q1303.9531,51.1719 1305,50.5938 Q1306.0625,50 1307.25,50 Q1307.9688,50 1308.5938,50.25 Q1309.2188,50.5 1309.75,51 Z " fill="#000000"/><text fill="#000000" font-family="sans-serif" font-size="12" lengthAdjust="spacing" textLength="26" x="1328.25" y="59.4102">View</text><line style="stroke:#A80036;stroke-width:1.5;" x1="1255" x2="1395" y1="70.5" y2="70.5"/><line style="stroke:#A80036;stroke-width:1.5;" x1="1255" x2="1395" y1="78.5" y2="78.5"/><ellipse cx="1265" cy="89.5" fill="#84BE84" rx="3" ry="3" style="stroke:#038048;stroke-width:1.0;"/><text fill="#000000" font-family="sans-serif" font-size="11" lengthAdjust="spacing" textLength="70" x="1274" y="93.9189">update() : void</text><ellipse cx="1265" cy="103.3359" fill="#84BE84" rx="3" ry="3" style="stroke:#038048;stroke-width:1.0;"/><text fill="#000000" font-family="sans-serif" font-size="11" lengthAdjust="spacing" textLength="116" x="1274" y="107.7549">contextInterface() : void</text><!--MD5=[1d7ba1c7002d54515419844fbd155368]
class Controller--><rect codeLine="128" fill="#FEFECE" filter="url(#fhgiz3b7jj4f5)" height="61.8359" id="Controller" style="stroke:#A80036;stroke-width:1.5;" width="149" x="1431.5" y="45.5"/><ellipse cx="1474.85" cy="61.5" fill="#ADD1B2" rx="11" ry="11" style="stroke:#A80036;stroke-width:1.0;"/><path d="M1476.85,58 Q1477.0531,57.5 1477.2875,57.25 Q1477.5219,57 1477.7875,57 Q1478.2563,57 1478.5531,57.2813 Q1478.85,57.5625 1478.85,58.2188 L1478.85,59.7813 Q1478.85,60.4375 1478.5688,60.7188 Q1478.2875,61 1477.85,61 Q1477.4594,61 1477.2094,60.8281 Q1476.9594,60.6563 1476.85,60.2031 Q1476.8031,59.8906 1476.6313,59.7188 Q1476.3188,59.3906 1475.7563,59.2031 Q1475.1938,59 1474.6313,59 Q1473.9281,59 1473.3344,59.2813 Q1472.7563,59.5625 1472.3031,60.1875 Q1471.85,60.8125 1471.85,61.6719 L1471.85,62.5938 Q1471.85,63.625 1472.6938,64.3125 Q1473.5375,65 1475.0375,65 Q1475.9281,65 1476.5531,64.7969 Q1476.9125,64.6875 1477.3188,64.3281 Q1477.5844,64.125 1477.725,64.0625 Q1477.8656,64 1478.0375,64 Q1478.3656,64 1478.6,64.2656 Q1478.85,64.5156 1478.85,64.875 Q1478.85,65.2188 1478.5063,65.625 Q1478.0063,66.2188 1477.2094,66.5469 Q1476.1625,67 1474.8813,67 Q1473.3813,67 1472.1781,66.4063 Q1471.2094,65.9375 1470.5219,64.9219 Q1469.85,63.9063 1469.85,62.7031 L1469.85,61.6094 Q1469.85,60.3594 1470.4438,59.2656 Q1471.0531,58.1719 1472.1,57.5938 Q1473.1625,57 1474.35,57 Q1475.0688,57 1475.6938,57.25 Q1476.3188,57.5 1476.85,58 Z " fill="#000000"/><text fill="#000000" font-family="sans-serif" font-size="12" lengthAdjust="spacing" textLength="54" x="1495.15" y="66.4102">Controller</text><line style="stroke:#A80036;stroke-width:1.5;" x1="1432.5" x2="1579.5" y1="77.5" y2="77.5"/><line style="stroke:#A80036;stroke-width:1.5;" x1="1432.5" x2="1579.5" y1="85.5" y2="85.5"/><ellipse cx="1442.5" cy="96.5" fill="#84BE84" rx="3" ry="3" style="stroke:#038048;stroke-width:1.0;"/><text fill="#000000" font-family="sans-serif" font-size="11" lengthAdjust="spacing" textLength="123" x="1451.5" y="100.9189">algorithmInterface() : void</text><!--MD5=[c2d105e52fbb731d58293327cfa51995]
class UserModel--><rect codeLine="132" fill="#FEFECE" filter="url(#fhgiz3b7jj4f5)" height="89.5078" id="UserModel" style="stroke:#A80036;stroke-width:1.5;" width="126" x="1262" y="535"/><ellipse cx="1292.3" cy="551" fill="#ADD1B2" rx="11" ry="11" style="stroke:#A80036;stroke-width:1.0;"/><path d="M1294.3,547.5 Q1294.5031,547 1294.7375,546.75 Q1294.9719,546.5 1295.2375,546.5 Q1295.7063,546.5 1296.0031,546.7813 Q1296.3,547.0625 1296.3,547.7188 L1296.3,549.2813 Q1296.3,549.9375 1296.0188,550.2188 Q1295.7375,550.5 1295.3,550.5 Q1294.9094,550.5 1294.6594,550.3281 Q1294.4094,550.1563 1294.3,549.7031 Q1294.2531,549.3906 1294.0813,549.2188 Q1293.7688,548.8906 1293.2063,548.7031 Q1292.6438,548.5 1292.0813,548.5 Q1291.3781,548.5 1290.7844,548.7813 Q1290.2063,549.0625 1289.7531,549.6875 Q1289.3,550.3125 1289.3,551.1719 L1289.3,552.0938 Q1289.3,553.125 1290.1438,553.8125 Q1290.9875,554.5 1292.4875,554.5 Q1293.3781,554.5 1294.0031,554.2969 Q1294.3625,554.1875 1294.7688,553.8281 Q1295.0344,553.625 1295.175,553.5625 Q1295.3156,553.5 1295.4875,553.5 Q1295.8156,553.5 1296.05,553.7656 Q1296.3,554.0156 1296.3,554.375 Q1296.3,554.7188 1295.9563,555.125 Q1295.4563,555.7188 1294.6594,556.0469 Q1293.6125,556.5 1292.3313,556.5 Q1290.8313,556.5 1289.6281,555.9063 Q1288.6594,555.4375 1287.9719,554.4219 Q1287.3,553.4063 1287.3,552.2031 L1287.3,551.1094 Q1287.3,549.8594 1287.8938,548.7656 Q1288.5031,547.6719 1289.55,547.0938 Q1290.6125,546.5 1291.8,546.5 Q1292.5188,546.5 1293.1438,546.75 Q1293.7688,547 1294.3,547.5 Z " fill="#000000"/><text fill="#000000" font-family="sans-serif" font-size="12" lengthAdjust="spacing" textLength="60" x="1309.7" y="555.9102">UserModel</text><line style="stroke:#A80036;stroke-width:1.5;" x1="1263" x2="1387" y1="567" y2="567"/><rect fill="none" height="6" style="stroke:#C82930;stroke-width:1.0;" width="6" x="1270" y="575"/><text fill="#000000" font-family="sans-serif" font-size="11" lengthAdjust="spacing" textLength="79" x="1282" y="582.4189">userState : User</text><line style="stroke:#A80036;stroke-width:1.5;" x1="1263" x2="1387" y1="588.8359" y2="588.8359"/><ellipse cx="1273" cy="599.8359" fill="#84BE84" rx="3" ry="3" style="stroke:#038048;stroke-width:1.0;"/><text fill="#000000" font-family="sans-serif" font-size="11" lengthAdjust="spacing" textLength="80" x="1282" y="604.2549">getState() : User</text><ellipse cx="1273" cy="613.6719" fill="#84BE84" rx="3" ry="3" style="stroke:#038048;stroke-width:1.0;"/><text fill="#000000" font-family="sans-serif" font-size="11" lengthAdjust="spacing" textLength="100" x="1282" y="618.0908">setState(User) : void</text><!--MD5=[85c34399a5c698d8ba010b21b979f516]
class UserView--><rect codeLine="138" fill="#FEFECE" filter="url(#fhgiz3b7jj4f5)" height="61.8359" id="UserView" style="stroke:#A80036;stroke-width:1.5;" width="96" x="1277" y="282"/><ellipse cx="1296.95" cy="298" fill="#ADD1B2" rx="11" ry="11" style="stroke:#A80036;stroke-width:1.0;"/><path d="M1298.95,294.5 Q1299.1531,294 1299.3875,293.75 Q1299.6219,293.5 1299.8875,293.5 Q1300.3563,293.5 1300.6531,293.7813 Q1300.95,294.0625 1300.95,294.7188 L1300.95,296.2813 Q1300.95,296.9375 1300.6688,297.2188 Q1300.3875,297.5 1299.95,297.5 Q1299.5594,297.5 1299.3094,297.3281 Q1299.0594,297.1563 1298.95,296.7031 Q1298.9031,296.3906 1298.7313,296.2188 Q1298.4188,295.8906 1297.8563,295.7031 Q1297.2938,295.5 1296.7313,295.5 Q1296.0281,295.5 1295.4344,295.7813 Q1294.8563,296.0625 1294.4031,296.6875 Q1293.95,297.3125 1293.95,298.1719 L1293.95,299.0938 Q1293.95,300.125 1294.7938,300.8125 Q1295.6375,301.5 1297.1375,301.5 Q1298.0281,301.5 1298.6531,301.2969 Q1299.0125,301.1875 1299.4188,300.8281 Q1299.6844,300.625 1299.825,300.5625 Q1299.9656,300.5 1300.1375,300.5 Q1300.4656,300.5 1300.7,300.7656 Q1300.95,301.0156 1300.95,301.375 Q1300.95,301.7188 1300.6063,302.125 Q1300.1063,302.7188 1299.3094,303.0469 Q1298.2625,303.5 1296.9813,303.5 Q1295.4813,303.5 1294.2781,302.9063 Q1293.3094,302.4375 1292.6219,301.4219 Q1291.95,300.4063 1291.95,299.2031 L1291.95,298.1094 Q1291.95,296.8594 1292.5438,295.7656 Q1293.1531,294.6719 1294.2,294.0938 Q1295.2625,293.5 1296.45,293.5 Q1297.1688,293.5 1297.7938,293.75 Q1298.4188,294 1298.95,294.5 Z " fill="#000000"/><text fill="#000000" font-family="sans-serif" font-size="12" lengthAdjust="spacing" textLength="53" x="1312.05" y="302.9102">UserView</text><line style="stroke:#A80036;stroke-width:1.5;" x1="1278" x2="1372" y1="314" y2="314"/><line style="stroke:#A80036;stroke-width:1.5;" x1="1278" x2="1372" y1="322" y2="322"/><ellipse cx="1288" cy="333" fill="#84BE84" rx="3" ry="3" style="stroke:#038048;stroke-width:1.0;"/><text fill="#000000" font-family="sans-serif" font-size="11" lengthAdjust="spacing" textLength="70" x="1297" y="337.4189">update() : void</text><!--MD5=[29f97d496cbdc4ec81664c6d94dc9bf6]
class UserController--><rect codeLine="142" fill="#FEFECE" filter="url(#fhgiz3b7jj4f5)" height="61.8359" id="UserController" style="stroke:#A80036;stroke-width:1.5;" width="149" x="1424.5" y="549"/><ellipse cx="1455.7" cy="565" fill="#ADD1B2" rx="11" ry="11" style="stroke:#A80036;stroke-width:1.0;"/><path d="M1457.7,561.5 Q1457.9031,561 1458.1375,560.75 Q1458.3719,560.5 1458.6375,560.5 Q1459.1063,560.5 1459.4031,560.7813 Q1459.7,561.0625 1459.7,561.7188 L1459.7,563.2813 Q1459.7,563.9375 1459.4188,564.2188 Q1459.1375,564.5 1458.7,564.5 Q1458.3094,564.5 1458.0594,564.3281 Q1457.8094,564.1563 1457.7,563.7031 Q1457.6531,563.3906 1457.4813,563.2188 Q1457.1688,562.8906 1456.6063,562.7031 Q1456.0438,562.5 1455.4813,562.5 Q1454.7781,562.5 1454.1844,562.7813 Q1453.6063,563.0625 1453.1531,563.6875 Q1452.7,564.3125 1452.7,565.1719 L1452.7,566.0938 Q1452.7,567.125 1453.5438,567.8125 Q1454.3875,568.5 1455.8875,568.5 Q1456.7781,568.5 1457.4031,568.2969 Q1457.7625,568.1875 1458.1688,567.8281 Q1458.4344,567.625 1458.575,567.5625 Q1458.7156,567.5 1458.8875,567.5 Q1459.2156,567.5 1459.45,567.7656 Q1459.7,568.0156 1459.7,568.375 Q1459.7,568.7188 1459.3563,569.125 Q1458.8563,569.7188 1458.0594,570.0469 Q1457.0125,570.5 1455.7313,570.5 Q1454.2313,570.5 1453.0281,569.9063 Q1452.0594,569.4375 1451.3719,568.4219 Q1450.7,567.4063 1450.7,566.2031 L1450.7,565.1094 Q1450.7,563.8594 1451.2938,562.7656 Q1451.9031,561.6719 1452.95,561.0938 Q1454.0125,560.5 1455.2,560.5 Q1455.9188,560.5 1456.5438,560.75 Q1457.1688,561 1457.7,561.5 Z " fill="#000000"/><text fill="#000000" font-family="sans-serif" font-size="12" lengthAdjust="spacing" textLength="81" x="1473.3" y="569.9102">UserController</text><line style="stroke:#A80036;stroke-width:1.5;" x1="1425.5" x2="1572.5" y1="581" y2="581"/><line style="stroke:#A80036;stroke-width:1.5;" x1="1425.5" x2="1572.5" y1="589" y2="589"/><ellipse cx="1435.5" cy="600" fill="#84BE84" rx="3" ry="3" style="stroke:#038048;stroke-width:1.0;"/><text fill="#000000" font-family="sans-serif" font-size="11" lengthAdjust="spacing" textLength="123" x="1444.5" y="604.4189">algorithmInterface() : void</text><!--MD5=[c02241e523a3f038ffffa23f511aeb38]
class HTMLComponent--><rect codeLine="156" fill="#FEFECE" filter="url(#fhgiz3b7jj4f5)" height="139.2031" id="HTMLComponent" style="stroke:#A80036;stroke-width:1.5;" width="207" x="1715.5" y="7"/><ellipse cx="1766.25" cy="27.0938" fill="#A9DCDF" rx="11" ry="11" style="stroke:#A80036;stroke-width:1.0;"/><path d="M1768,28.5938 L1764.7031,28.5938 L1764.2656,29.5938 L1764.2656,29.5938 L1764.7344,29.5938 L1765.25,30.2188 L1765.25,30.5938 L1765.25,30.9688 L1764.7344,31.5938 L1764.2656,31.5938 L1762.375,31.5938 L1761.7656,31.5938 L1761.25,30.9688 L1761.25,30.5938 L1761.25,30.2188 L1761.7656,29.5938 L1762.375,29.5938 L1764.6875,23.5938 L1763.8125,23.5938 L1762.7656,23.5938 L1762.25,22.9688 L1762.25,22.5938 L1762.25,22.2188 L1762.7656,21.5938 L1763.8125,21.5938 L1767.4844,21.5938 L1770.1719,29.5938 L1770.7344,29.5938 L1770.7344,29.5938 L1771.25,30.2188 L1771.25,30.5938 L1771.25,30.9688 L1770.7344,31.5938 L1770.1719,31.5938 L1768.2813,31.5938 L1767.7656,31.5938 L1767.25,30.9688 L1767.25,30.5938 L1767.25,30.2188 L1767.7656,29.5938 L1768.2813,29.5938 L1768.2813,29.5938 L1768,28.5938 Z M1767.4531,26.5938 L1766.25,23.0156 L1765.2188,26.5938 L1767.4531,26.5938 Z " fill="#000000"/><text fill="#000000" font-family="sans-serif" font-size="12" font-style="italic" lengthAdjust="spacing" textLength="58" x="1806.25" y="24.457">«abstract»</text><text fill="#000000" font-family="sans-serif" font-size="12" font-style="italic" lengthAdjust="spacing" textLength="97" x="1786.75" y="39.5508">HTMLComponent</text><line style="stroke:#A80036;stroke-width:1.5;" x1="1716.5" x2="1921.5" y1="47.1875" y2="47.1875"/><rect fill="none" height="6" style="stroke:#C82930;stroke-width:1.0;" width="6" x="1723.5" y="55.1875"/><text fill="#000000" font-family="sans-serif" font-size="11" lengthAdjust="spacing" textLength="55" x="1735.5" y="62.6064">text : String</text><line style="stroke:#A80036;stroke-width:1.5;" x1="1716.5" x2="1921.5" y1="69.0234" y2="69.0234"/><ellipse cx="1726.5" cy="80.0234" fill="#84BE84" rx="3" ry="3" style="stroke:#038048;stroke-width:1.0;"/><text fill="#000000" font-family="sans-serif" font-size="11" lengthAdjust="spacing" textLength="81" x="1735.5" y="84.4424">getText() : String</text><ellipse cx="1726.5" cy="93.8594" fill="#84BE84" rx="3" ry="3" style="stroke:#038048;stroke-width:1.0;"/><text fill="#000000" font-family="sans-serif" font-size="11" lengthAdjust="spacing" textLength="101" x="1735.5" y="98.2783">setText(String) : void</text><ellipse cx="1726.5" cy="107.6953" fill="#84BE84" rx="3" ry="3" style="stroke:#038048;stroke-width:1.0;"/><text fill="#000000" font-family="sans-serif" font-size="11" lengthAdjust="spacing" textLength="163" x="1735.5" y="112.1143">addComponent(Component) : void</text><ellipse cx="1726.5" cy="121.5313" fill="#84BE84" rx="3" ry="3" style="stroke:#038048;stroke-width:1.0;"/><text fill="#000000" font-family="sans-serif" font-size="11" lengthAdjust="spacing" textLength="181" x="1735.5" y="125.9502">removeComponent(Component) : void</text><ellipse cx="1726.5" cy="135.3672" fill="#84BE84" rx="3" ry="3" style="stroke:#038048;stroke-width:1.0;"/><text fill="#000000" font-family="sans-serif" font-size="11" lengthAdjust="spacing" textLength="120" x="1735.5" y="139.7861">getChild(int) : Component</text><!--MD5=[423f30ef272975c7507b6970449c428c]
class HTMLLeaf--><rect codeLine="165" fill="#FEFECE" filter="url(#fhgiz3b7jj4f5)" height="75.6719" id="HTMLLeaf" style="stroke:#A80036;stroke-width:1.5;" width="127" x="1553.5" y="275"/><ellipse cx="1586.05" cy="291" fill="#ADD1B2" rx="11" ry="11" style="stroke:#A80036;stroke-width:1.0;"/><path d="M1588.05,287.5 Q1588.2531,287 1588.4875,286.75 Q1588.7219,286.5 1588.9875,286.5 Q1589.4563,286.5 1589.7531,286.7813 Q1590.05,287.0625 1590.05,287.7188 L1590.05,289.2813 Q1590.05,289.9375 1589.7688,290.2188 Q1589.4875,290.5 1589.05,290.5 Q1588.6594,290.5 1588.4094,290.3281 Q1588.1594,290.1563 1588.05,289.7031 Q1588.0031,289.3906 1587.8313,289.2188 Q1587.5188,288.8906 1586.9563,288.7031 Q1586.3938,288.5 1585.8313,288.5 Q1585.1281,288.5 1584.5344,288.7813 Q1583.9563,289.0625 1583.5031,289.6875 Q1583.05,290.3125 1583.05,291.1719 L1583.05,292.0938 Q1583.05,293.125 1583.8938,293.8125 Q1584.7375,294.5 1586.2375,294.5 Q1587.1281,294.5 1587.7531,294.2969 Q1588.1125,294.1875 1588.5188,293.8281 Q1588.7844,293.625 1588.925,293.5625 Q1589.0656,293.5 1589.2375,293.5 Q1589.5656,293.5 1589.8,293.7656 Q1590.05,294.0156 1590.05,294.375 Q1590.05,294.7188 1589.7063,295.125 Q1589.2063,295.7188 1588.4094,296.0469 Q1587.3625,296.5 1586.0813,296.5 Q1584.5813,296.5 1583.3781,295.9063 Q1582.4094,295.4375 1581.7219,294.4219 Q1581.05,293.4063 1581.05,292.2031 L1581.05,291.1094 Q1581.05,289.8594 1581.6438,288.7656 Q1582.2531,287.6719 1583.3,287.0938 Q1584.3625,286.5 1585.55,286.5 Q1586.2688,286.5 1586.8938,286.75 Q1587.5188,287 1588.05,287.5 Z " fill="#000000"/><text fill="#000000" font-family="sans-serif" font-size="12" lengthAdjust="spacing" textLength="56" x="1603.95" y="295.9102">HTMLLeaf</text><line style="stroke:#A80036;stroke-width:1.5;" x1="1554.5" x2="1679.5" y1="307" y2="307"/><line style="stroke:#A80036;stroke-width:1.5;" x1="1554.5" x2="1679.5" y1="315" y2="315"/><ellipse cx="1564.5" cy="326" fill="#84BE84" rx="3" ry="3" style="stroke:#038048;stroke-width:1.0;"/><text fill="#000000" font-family="sans-serif" font-size="11" lengthAdjust="spacing" textLength="81" x="1573.5" y="330.4189">getText() : String</text><ellipse cx="1564.5" cy="339.8359" fill="#84BE84" rx="3" ry="3" style="stroke:#038048;stroke-width:1.0;"/><text fill="#000000" font-family="sans-serif" font-size="11" lengthAdjust="spacing" textLength="101" x="1573.5" y="344.2549">setText(String) : void</text><!--MD5=[3b5a6be24f79b68356919e0770eb5f30]
class HTMLComposite--><rect codeLine="170" fill="#FEFECE" filter="url(#fhgiz3b7jj4f5)" height="117.1797" id="HTMLComposite" style="stroke:#A80036;stroke-width:1.5;" width="207" x="1715.5" y="254.5"/><ellipse cx="1768.25" cy="270.5" fill="#ADD1B2" rx="11" ry="11" style="stroke:#A80036;stroke-width:1.0;"/><path d="M1770.25,267 Q1770.4531,266.5 1770.6875,266.25 Q1770.9219,266 1771.1875,266 Q1771.6563,266 1771.9531,266.2813 Q1772.25,266.5625 1772.25,267.2188 L1772.25,268.7813 Q1772.25,269.4375 1771.9688,269.7188 Q1771.6875,270 1771.25,270 Q1770.8594,270 1770.6094,269.8281 Q1770.3594,269.6563 1770.25,269.2031 Q1770.2031,268.8906 1770.0313,268.7188 Q1769.7188,268.3906 1769.1563,268.2031 Q1768.5938,268 1768.0313,268 Q1767.3281,268 1766.7344,268.2813 Q1766.1563,268.5625 1765.7031,269.1875 Q1765.25,269.8125 1765.25,270.6719 L1765.25,271.5938 Q1765.25,272.625 1766.0938,273.3125 Q1766.9375,274 1768.4375,274 Q1769.3281,274 1769.9531,273.7969 Q1770.3125,273.6875 1770.7188,273.3281 Q1770.9844,273.125 1771.125,273.0625 Q1771.2656,273 1771.4375,273 Q1771.7656,273 1772,273.2656 Q1772.25,273.5156 1772.25,273.875 Q1772.25,274.2188 1771.9063,274.625 Q1771.4063,275.2188 1770.6094,275.5469 Q1769.5625,276 1768.2813,276 Q1766.7813,276 1765.5781,275.4063 Q1764.6094,274.9375 1763.9219,273.9219 Q1763.25,272.9063 1763.25,271.7031 L1763.25,270.6094 Q1763.25,269.3594 1763.8438,268.2656 Q1764.4531,267.1719 1765.5,266.5938 Q1766.5625,266 1767.75,266 Q1768.4688,266 1769.0938,266.25 Q1769.7188,266.5 1770.25,267 Z " fill="#000000"/><text fill="#000000" font-family="sans-serif" font-size="12" lengthAdjust="spacing" textLength="93" x="1788.75" y="275.4102">HTMLComposite</text><line style="stroke:#A80036;stroke-width:1.5;" x1="1716.5" x2="1921.5" y1="286.5" y2="286.5"/><line style="stroke:#A80036;stroke-width:1.5;" x1="1716.5" x2="1921.5" y1="294.5" y2="294.5"/><ellipse cx="1726.5" cy="305.5" fill="#84BE84" rx="3" ry="3" style="stroke:#038048;stroke-width:1.0;"/><text fill="#000000" font-family="sans-serif" font-size="11" lengthAdjust="spacing" textLength="81" x="1735.5" y="309.9189">getText() : String</text><ellipse cx="1726.5" cy="319.3359" fill="#84BE84" rx="3" ry="3" style="stroke:#038048;stroke-width:1.0;"/><text fill="#000000" font-family="sans-serif" font-size="11" lengthAdjust="spacing" textLength="101" x="1735.5" y="323.7549">setText(String) : void</text><ellipse cx="1726.5" cy="333.1719" fill="#84BE84" rx="3" ry="3" style="stroke:#038048;stroke-width:1.0;"/><text fill="#000000" font-family="sans-serif" font-size="11" lengthAdjust="spacing" textLength="163" x="1735.5" y="337.5908">addComponent(Component) : void</text><ellipse cx="1726.5" cy="347.0078" fill="#84BE84" rx="3" ry="3" style="stroke:#038048;stroke-width:1.0;"/><text fill="#000000" font-family="sans-serif" font-size="11" lengthAdjust="spacing" textLength="181" x="1735.5" y="351.4268">removeComponent(Component) : void</text><ellipse cx="1726.5" cy="360.8438" fill="#84BE84" rx="3" ry="3" style="stroke:#038048;stroke-width:1.0;"/><text fill="#000000" font-family="sans-serif" font-size="11" lengthAdjust="spacing" textLength="120" x="1735.5" y="365.2627">getChild(int) : Component</text><!--MD5=[ed6624c6556d5e7b1bd23032162d20b7]
class Client--><rect fill="#FEFECE" filter="url(#fhgiz3b7jj4f5)" height="48" id="Client" style="stroke:#A80036;stroke-width:1.5;" width="64" x="1616" y="52.5"/><ellipse cx="1631" cy="68.5" fill="#ADD1B2" rx="11" ry="11" style="stroke:#A80036;stroke-width:1.0;"/><path d="M1633,65 Q1633.2031,64.5 1633.4375,64.25 Q1633.6719,64 1633.9375,64 Q1634.4063,64 1634.7031,64.2813 Q1635,64.5625 1635,65.2188 L1635,66.7813 Q1635,67.4375 1634.7188,67.7188 Q1634.4375,68 1634,68 Q1633.6094,68 1633.3594,67.8281 Q1633.1094,67.6563 1633,67.2031 Q1632.9531,66.8906 1632.7813,66.7188 Q1632.4688,66.3906 1631.9063,66.2031 Q1631.3438,66 1630.7813,66 Q1630.0781,66 1629.4844,66.2813 Q1628.9063,66.5625 1628.4531,67.1875 Q1628,67.8125 1628,68.6719 L1628,69.5938 Q1628,70.625 1628.8438,71.3125 Q1629.6875,72 1631.1875,72 Q1632.0781,72 1632.7031,71.7969 Q1633.0625,71.6875 1633.4688,71.3281 Q1633.7344,71.125 1633.875,71.0625 Q1634.0156,71 1634.1875,71 Q1634.5156,71 1634.75,71.2656 Q1635,71.5156 1635,71.875 Q1635,72.2188 1634.6563,72.625 Q1634.1563,73.2188 1633.3594,73.5469 Q1632.3125,74 1631.0313,74 Q1629.5313,74 1628.3281,73.4063 Q1627.3594,72.9375 1626.6719,71.9219 Q1626,70.9063 1626,69.7031 L1626,68.6094 Q1626,67.3594 1626.5938,66.2656 Q1627.2031,65.1719 1628.25,64.5938 Q1629.3125,64 1630.5,64 Q1631.2188,64 1631.8438,64.25 Q1632.4688,64.5 1633,65 Z " fill="#000000"/><text fill="#000000" font-family="sans-serif" font-size="12" lengthAdjust="spacing" textLength="32" x="1645" y="73.4102">Client</text><line style="stroke:#A80036;stroke-width:1.5;" x1="1617" x2="1679" y1="84.5" y2="84.5"/><line style="stroke:#A80036;stroke-width:1.5;" x1="1617" x2="1679" y1="92.5" y2="92.5"/><!--MD5=[da8d81ca05feb257f2f3b5b7736e890b]
link User to Person--><path codeLine="85" d="M172.59,680.09 C179.88,694.09 187.33,708.41 194.52,722.21 " fill="none" id="User-to-Person" style="stroke:#A80036;stroke-width:1.0;"/><polygon fill="none" points="200.74,719.01,203.77,739.98,188.32,725.47,200.74,719.01" style="stroke:#A80036;stroke-width:1.0;"/><!--MD5=[33f8ed7b79d8f56217be50046b27eea3]
link Admin to Person--><path codeLine="86" d="M341.72,618.03 C327.15,646.01 306.53,685.64 287.73,721.74 " fill="none" id="Admin-to-Person" style="stroke:#A80036;stroke-width:1.0;"/><polygon fill="none" points="293.84,725.16,278.39,739.67,281.42,718.7,293.84,725.16" style="stroke:#A80036;stroke-width:1.0;"/><!--MD5=[efc4e0499150442d924926b236ead4e6]
reverse link Station to Sensor--><path codeLine="88" d="M450.96,430.85 C475.14,462.26 500.23,494.86 520.7,521.46 " fill="none" id="Station-backto-Sensor" style="stroke:#A80036;stroke-width:1.0;"/><polygon fill="#FFFFFF" points="442.8,420.26,443.2964,427.454,450.128,429.7627,449.6315,422.5687,442.8,420.26" style="stroke:#A80036;stroke-width:1.0;"/><!--MD5=[d645f27223f20aef43a769906e6f37a9]
reverse link Publisher to Station--><path codeLine="90" d="M355.33,145.79 C355.97,164.63 356.69,185.53 357.38,205.98 " fill="none" id="Publisher-backto-Station" style="stroke:#A80036;stroke-width:1.0;"/><polygon fill="none" points="348.32,145.75,354.64,125.52,362.32,145.27,348.32,145.75" style="stroke:#A80036;stroke-width:1.0;"/><!--MD5=[44c9d014ee9afea838d32a1274d01ecf]
reverse link Observer to User--><path codeLine="91" d="M159.04,124.8 C152.26,205.73 138.3,372.38 129.31,479.75 " fill="none" id="Observer-backto-User" style="stroke:#A80036;stroke-width:1.0;"/><polygon fill="none" points="152.07,124.16,160.71,104.82,166.02,125.33,152.07,124.16" style="stroke:#A80036;stroke-width:1.0;"/><!--MD5=[56c9795ecf26c620bfe46b782c2518c5]
link Observer to Publisher--><path codeLine="93" d="M220.79,76.5 C229.14,76.5 246.96,76.5 246.96,76.5 " fill="none" id="Observer-Publisher" style="stroke:#A80036;stroke-width:1.0;"/><polygon fill="#FFFFFF" points="258.96,76.5,252.96,72.5,246.96,76.5,252.96,80.5,258.96,76.5" style="stroke:#A80036;stroke-width:1.0;"/><polygon fill="#A80036" points="207.53,76.5,216.53,80.5,212.53,76.5,216.53,72.5,207.53,76.5" style="stroke:#A80036;stroke-width:1.0;"/><line style="stroke:#A80036;stroke-width:1.0;" x1="212.53" x2="220.53" y1="76.5" y2="76.5"/><!--MD5=[4a0d7cde8821b62f24587c178ed8e9b5]
reverse link Station to User--><path codeLine="95" d="M263.38,421.79 C246.05,440.93 228.07,460.77 210.97,479.66 " fill="none" id="Station-backto-User" style="stroke:#A80036;stroke-width:1.0;"/><polygon fill="#A80036" points="266.83,417.97,257.8276,421.9647,263.4773,421.6794,263.7626,427.329,266.83,417.97" style="stroke:#A80036;stroke-width:1.0;"/><!--MD5=[ffe9bc0a80983bebe82ceeef9792d87d]
reverse link Station to Admin--><path codeLine="96" d="M361,425.32 C361,466.95 361,511.45 361,541.79 " fill="none" id="Station-backto-Admin" style="stroke:#A80036;stroke-width:1.0;"/><polygon fill="#A80036" points="361,420.26,357,429.26,361,425.26,365,429.26,361,420.26" style="stroke:#A80036;stroke-width:1.0;"/><!--MD5=[d40ce36fa3c351183ec1e4dda9ae9527]
reverse link State to EnabledState--><path codeLine="98" d="M742,389.46 C742,433.94 742,489.03 742,528.33 " fill="none" id="State-backto-EnabledState" style="stroke:#A80036;stroke-width:1.0;"/><polygon fill="none" points="735,389.23,742,369.23,749,389.23,735,389.23" style="stroke:#A80036;stroke-width:1.0;"/><!--MD5=[2be2160d5c565db8c9d65b730fb442bc]
reverse link State to DisabledState--><path codeLine="99" d="M786.02,386.46 C813.35,431.44 847.8,488.14 872.21,528.33 " fill="none" id="State-backto-DisabledState" style="stroke:#A80036;stroke-width:1.0;"/><polygon fill="none" points="779.96,389.96,775.55,369.23,791.92,382.69,779.96,389.96" style="stroke:#A80036;stroke-width:1.0;"/><!--MD5=[6e789fe66b17d5b09806c1b2569d5639]
link Station to State--><path codeLine="101" d="M467.13,313 C467.13,313 599.95,313 665.8,313 " fill="none" id="Station-State" style="stroke:#A80036;stroke-width:1.0;"/><polygon fill="#A80036" points="678.97,313,669.97,309,673.97,313,669.97,317,678.97,313" style="stroke:#A80036;stroke-width:1.0;"/><line style="stroke:#A80036;stroke-width:1.0;" x1="673.97" x2="665.97" y1="313" y2="313"/><polygon fill="#FFFFFF" points="455.13,313,461.13,317,467.13,313,461.13,309,455.13,313" style="stroke:#A80036;stroke-width:1.0;"/><!--MD5=[f7493cb9edc82ad4f00586472baaf781]
link WebServer to ReusableConnection--><path codeLine="111" d="M1005.95,100.84 C987.23,144.3 947.12,237.42 927.01,284.11 " fill="none" id="WebServer-to-ReusableConnection" style="stroke:#A80036;stroke-width:1.0;stroke-dasharray:7.0,7.0;"/><polygon fill="#A80036" points="925.01,288.75,932.2319,282.0534,926.9796,284.1543,924.8787,278.902,925.01,288.75" style="stroke:#A80036;stroke-width:1.0;"/><!--MD5=[6440a53badbbc34b15a38377a98be285]
link DBConnectionPool to WebServer--><path codeLine="112" d="M934.72,76.5 C946.47,76.5 958.22,76.5 969.96,76.5 " fill="none" id="DBConnectionPool-WebServer" style="stroke:#A80036;stroke-width:1.0;"/><!--MD5=[0016450617a272a7fd7b60ae712761de]
link ReusableConnection to DBConnectionPool--><path codeLine="113" d="M904.9,288.78 C889.33,252.98 859.01,183.28 837.46,133.74 " fill="none" id="ReusableConnection-to-DBConnectionPool" style="stroke:#A80036;stroke-width:1.0;"/><polygon fill="#FFFFFF" points="832.19,121.61,830.9169,128.7078,836.9791,132.613,838.2522,125.5151,832.19,121.61" style="stroke:#A80036;stroke-width:1.0;"/><!--MD5=[935be9d7ebacaec33c57b7735444be87]
link Model to View--><path codeLine="146" d="M1219.32,76.5 C1229.16,76.5 1239.01,76.5 1248.85,76.5 " fill="none" id="Model-to-View" style="stroke:#A80036;stroke-width:1.0;"/><polygon fill="#A80036" points="1254,76.5,1245,72.5,1249,76.5,1245,80.5,1254,76.5" style="stroke:#A80036;stroke-width:1.0;"/><!--MD5=[57070e04af1ab79c5a79c6aefe469b18]
link View to Controller--><path codeLine="147" d="M1408.06,76.5 C1408.06,76.5 1415.22,76.5 1418.2,76.5 " fill="none" id="View-Controller" style="stroke:#A80036;stroke-width:1.0;"/><polygon fill="#A80036" points="1431.27,76.5,1422.27,72.5,1426.27,76.5,1422.27,80.5,1431.27,76.5" style="stroke:#A80036;stroke-width:1.0;"/><line style="stroke:#A80036;stroke-width:1.0;" x1="1426.27" x2="1418.27" y1="76.5" y2="76.5"/><polygon fill="#FFFFFF" points="1396.06,76.5,1402.06,80.5,1408.06,76.5,1402.06,72.5,1396.06,76.5" style="stroke:#A80036;stroke-width:1.0;"/><!--MD5=[4c12140e4963993f91cb4be011ec2b1b]
reverse link Model to UserModel--><path codeLine="148" d="M1174.56,141.07 C1193.11,210.33 1225.05,324.06 1259,420 C1272.96,459.45 1291.39,503.3 1305.22,534.94 " fill="none" id="Model-backto-UserModel" style="stroke:#A80036;stroke-width:1.0;"/><polygon fill="none" points="1167.73,142.63,1169.36,121.5,1181.26,139.03,1167.73,142.63" style="stroke:#A80036;stroke-width:1.0;"/><!--MD5=[e917070389b657c90b668a4ebeeca4b0]
reverse link View to UserView--><path codeLine="149" d="M1325,134.92 C1325,181.29 1325,244.72 1325,281.73 " fill="none" id="View-backto-UserView" style="stroke:#A80036;stroke-width:1.0;"/><polygon fill="none" points="1318,134.66,1325,114.66,1332,134.66,1318,134.66" style="stroke:#A80036;stroke-width:1.0;"/><!--MD5=[f2be55d3c0fcc5ca5f5b73b86cf930c5]
reverse link Controller to UserController--><path codeLine="150" d="M1505.29,128.06 C1503.85,231.66 1500.59,465.33 1499.42,548.72 " fill="none" id="Controller-backto-UserController" style="stroke:#A80036;stroke-width:1.0;"/><polygon fill="none" points="1498.3,127.64,1505.58,107.74,1512.3,127.84,1498.3,127.64" style="stroke:#A80036;stroke-width:1.0;"/><!--MD5=[4373280dbcf2b8ccb4dce7e9c56501df]
link UserView to UserModel--><path codeLine="151" d="M1325,344.14 C1325,389.35 1325,475.2 1325,529.64 " fill="none" id="UserView-to-UserModel" style="stroke:#A80036;stroke-width:1.0;"/><polygon fill="#A80036" points="1325,534.81,1329,525.81,1325,529.81,1321,525.81,1325,534.81" style="stroke:#A80036;stroke-width:1.0;"/><!--MD5=[ed8f2a46633b466fbc0109e50c184a7f]
reverse link UserModel to UserController--><path codeLine="152" d="M1393.26,580 C1403.55,580 1413.84,580 1424.13,580 " fill="none" id="UserModel-backto-UserController" style="stroke:#A80036;stroke-width:1.0;"/><polygon fill="#A80036" points="1388.21,580,1397.21,584,1393.21,580,1397.21,576,1388.21,580" style="stroke:#A80036;stroke-width:1.0;"/><!--MD5=[5d7a8e65dc18752575c708ca20bf9dca]
link Client to HTMLComponent--><path codeLine="178" d="M1680.06,76.5 C1690.08,76.5 1700.09,76.5 1710.1,76.5 " fill="none" id="Client-to-HTMLComponent" style="stroke:#A80036;stroke-width:1.0;"/><polygon fill="#A80036" points="1715.34,76.5,1706.34,72.5,1710.34,76.5,1706.34,80.5,1715.34,76.5" style="stroke:#A80036;stroke-width:1.0;"/><!--MD5=[c41c29348ba0f5f6cc826b0256d83855]
reverse link HTMLComponent to HTMLLeaf--><path codeLine="179" d="M1737.74,161.33 C1724.2,175.99 1710.51,191.26 1698,206 C1679.11,228.25 1659.2,254.27 1643.84,274.97 " fill="none" id="HTMLComponent-backto-HTMLLeaf" style="stroke:#A80036;stroke-width:1.0;"/><polygon fill="none" points="1732.97,156.18,1751.73,146.33,1743.2,165.73,1732.97,156.18" style="stroke:#A80036;stroke-width:1.0;"/><!--MD5=[69778e24711588502646a21c7dd2b07f]
reverse link HTMLComponent to HTMLComposite--><path codeLine="180" d="M1806.58,166.62 C1805.88,196.01 1806.3,227.91 1807.84,254.31 " fill="none" id="HTMLComponent-backto-HTMLComposite" style="stroke:#A80036;stroke-width:1.0;"/><polygon fill="none" points="1799.6,166.02,1807.27,146.27,1813.59,166.5,1799.6,166.02" style="stroke:#A80036;stroke-width:1.0;"/><!--MD5=[69778e24711588502646a21c7dd2b07f]
reverse link HTMLComponent to HTMLComposite--><path codeLine="181" d="M1831.65,151.55 C1833.01,184.75 1832.74,223.31 1830.81,254.31 " fill="none" id="HTMLComponent-backto-HTMLComposite-1" style="stroke:#A80036;stroke-width:1.0;"/><polygon fill="#A80036" points="1831.42,146.27,1827.8352,155.4433,1831.6483,151.2648,1835.8268,155.0779,1831.42,146.27" style="stroke:#A80036;stroke-width:1.0;"/><!--MD5=[1b71b0af425e8dd9321e6dda83fdf53f]
@startuml


interface Publisher <<interface>> {
    +attachObserver(Observer) : void
    +detachObserver(Observer) : void
    +notify() : void
}

interface Observer <<interface>> {
}

class Person {
    -firstName : String
    -lastName : String
    -email : String
    -hashedPassword : String
    +getFirstName() : String
    +getLastName() : String
    +getEmail() : String
}

class User {
    -intervalNotificationsEnabled : boolean
    -timeInterval : string
    -alarmNotificationsEnabled : boolean
    -alarmRanges : Double[][]
    +getIntervalNotificationsEnabled() : boolean
    +getTimeInterval() : string
    +getAlarmNotificationsEnabled() : boolean
    +getAlarmRanges() : Double[][]
    -updateAlarmRanges(Double[][]) : void
    -subscribeToStation(Station) : void
    -unsubscribeFromStation(Station) : void
}

class Admin {
    -enableStation(Station) : boolean
    -disableStation(Station) : boolean
}

class Sensor {
    -type : String
    -value : Double
    +getType() : String
    +getValue() : Double
    -updateValue(Double) : void
}

class Station {
    -temperatureSensor : Sensor
    -pressureSensor : Sensor
    -humiditySensor : Sensor
    -altitudeSensor : Sensor
    -observers : Observer[]
    -state : State
    +attachObserver(Observer) : void
    +detachObserver(Observer) : void
    -intervalNotify() : void
    -alarmNotify() : void
    +getState() : State
    +setState() : State
}

interface State <<interface>> {
    +intervalNotify() : void
    +alarmNotify() : void
    +enable() : void
    +disable() : void
}

class EnabledState {
    +intervalNotify() : void
    +alarmNotify() : void
    +enable() : void
    +disable() : void
}

class DisabledState {
    +intervalNotify() : void
    +alarmNotify() : void
    +enable() : void
    +disable() : void
}

User - -|> Person
Admin - -|> Person

Station o- - Sensor

Publisher <|- - Station
Observer <|- - - User

Observer <-o Publisher

Station <- - User
Station <- - Admin

State <|- - EnabledState
State <|- - DisabledState

Station o-> State



class DBConnectionPool {
    +getInstance() : DBConnectionPool
    +acquireReusable() : ReusableConnection
    +releaseReusable(ReusableConnection) : void
}

WebServer ..> ReusableConnection
DBConnectionPool - WebServer
ReusableConnection - -o DBConnectionPool



class Model {
    +attach(View) : void
    +detach(View) : void
    +notify()
}

class View {
    +update() : void
    +contextInterface() : void
}

class Controller {
    +algorithmInterface() : void
}

class UserModel {
    -userState : User
    +getState() : User
    +setState(User) : void
}

class UserView {
    +update() : void
}

class UserController {
    +algorithmInterface() : void
}

Model -> View
View o-> Controller
Model <|- - - UserModel
View <|- - UserView
Controller <|- - - UserController
UserView - -> UserModel
UserModel <- UserController



abstract class HTMLComponent <<abstract>> {
    -text : String
    +getText() : String
    +setText(String) : void
    +addComponent(Component) : void
    +removeComponent(Component) : void
    +getChild(int) : Component
}

class HTMLLeaf {
    +getText() : String
    +setText(String) : void
}

class HTMLComposite {
    +getText() : String
    +setText(String) : void
    +addComponent(Component) : void
    +removeComponent(Component) : void
    +getChild(int) : Component
}

Client -> HTMLComponent
HTMLComponent <|- - HTMLLeaf
HTMLComponent <|- - HTMLComposite
HTMLComponent <- - HTMLComposite



@enduml

PlantUML version 1.2021.11(Sat Oct 02 07:26:11 MDT 2021)
(GPL source distribution)
Java Runtime: OpenJDK Runtime Environment
JVM: OpenJDK 64-Bit Server VM
Default Encoding: Cp1252
Language: en
Country: US
--></g></svg>