<?xml version="1.0" encoding="UTF-8" standalone="no"?><svg xmlns="http://www.w3.org/2000/svg" xmlns:xlink="http://www.w3.org/1999/xlink" contentScriptType="application/ecmascript" contentStyleType="text/css" height="794px" preserveAspectRatio="none" style="width:665px;height:794px;background:#FFFFFF;" version="1.1" viewBox="0 0 665 794" width="665px" zoomAndPan="magnify"><defs><filter height="300%" id="fb7rsicyb2jtx" width="300%" x="-1" y="-1"><feGaussianBlur result="blurOut" stdDeviation="2.0"/><feColorMatrix in="blurOut" result="blurOut2" type="matrix" values="0 0 0 0 0 0 0 0 0 0 0 0 0 0 0 0 0 0 .4 0"/><feOffset dx="4.0" dy="4.0" in="blurOut2" result="blurOut3"/><feBlend in="SourceGraphic" in2="blurOut3" mode="normal"/></filter></defs><g><!--MD5=[13fb849c6dfc9273db4c5b2c7ac96a10]
class Publisher--><rect codeLine="3" fill="#FEFECE" filter="url(#fb7rsicyb2jtx)" height="97.6953" id="Publisher" style="stroke:#A80036;stroke-width:1.5;" width="188" x="238" y="123"/><ellipse cx="299.25" cy="143.0938" fill="#B4A7E5" rx="11" ry="11" style="stroke:#A80036;stroke-width:1.0;"/><path d="M300.25,140.0938 L300.25,146.0938 L302.25,146.0938 L302.7344,146.0938 L303.25,146.7188 L303.25,147.0938 L303.25,147.4688 L302.7344,148.0938 L302.25,148.0938 L296.25,148.0938 L295.7656,148.0938 L295.25,147.4688 L295.25,147.0938 L295.25,146.7188 L295.7656,146.0938 L296.25,146.0938 L298.25,146.0938 L298.25,140.0938 L296.25,140.0938 L295.7656,140.0938 L295.25,139.4688 L295.25,139.0938 L295.25,138.7188 L295.7656,138.0938 L296.25,138.0938 L302.25,138.0938 L302.7344,138.0938 L303.25,138.7188 L303.25,139.0938 L303.25,139.4688 L302.7344,140.0938 L302.25,140.0938 L300.25,140.0938 Z " fill="#000000"/><text fill="#000000" font-family="sans-serif" font-size="12" font-style="italic" lengthAdjust="spacing" textLength="61" x="317.75" y="140.457">«interface»</text><text fill="#000000" font-family="sans-serif" font-size="12" font-style="italic" lengthAdjust="spacing" textLength="53" x="321.75" y="155.5508">Publisher</text><line style="stroke:#A80036;stroke-width:1.5;" x1="239" x2="425" y1="163.1875" y2="163.1875"/><line style="stroke:#A80036;stroke-width:1.5;" x1="239" x2="425" y1="171.1875" y2="171.1875"/><ellipse cx="249" cy="182.1875" fill="#84BE84" rx="3" ry="3" style="stroke:#038048;stroke-width:1.0;"/><text fill="#000000" font-family="sans-serif" font-size="11" lengthAdjust="spacing" textLength="159" x="258" y="186.6064">attachObserver(Observer) : void</text><ellipse cx="249" cy="196.0234" fill="#84BE84" rx="3" ry="3" style="stroke:#038048;stroke-width:1.0;"/><text fill="#000000" font-family="sans-serif" font-size="11" lengthAdjust="spacing" textLength="162" x="258" y="200.4424">detachObserver(Observer) : void</text><ellipse cx="249" cy="209.8594" fill="#84BE84" rx="3" ry="3" style="stroke:#038048;stroke-width:1.0;"/><text fill="#000000" font-family="sans-serif" font-size="11" lengthAdjust="spacing" textLength="64" x="258" y="214.2783">notify() : void</text><!--MD5=[d40932010816485ec57b44b6eea2392a]
class Observer--><rect codeLine="9" fill="#FEFECE" filter="url(#fb7rsicyb2jtx)" height="56.1875" id="Observer" style="stroke:#A80036;stroke-width:1.5;" width="89" x="201.5" y="7"/><ellipse cx="216.5" cy="27.0938" fill="#B4A7E5" rx="11" ry="11" style="stroke:#A80036;stroke-width:1.0;"/><path d="M217.5,24.0938 L217.5,30.0938 L219.5,30.0938 L219.9844,30.0938 L220.5,30.7188 L220.5,31.0938 L220.5,31.4688 L219.9844,32.0938 L219.5,32.0938 L213.5,32.0938 L213.0156,32.0938 L212.5,31.4688 L212.5,31.0938 L212.5,30.7188 L213.0156,30.0938 L213.5,30.0938 L215.5,30.0938 L215.5,24.0938 L213.5,24.0938 L213.0156,24.0938 L212.5,23.4688 L212.5,23.0938 L212.5,22.7188 L213.0156,22.0938 L213.5,22.0938 L219.5,22.0938 L219.9844,22.0938 L220.5,22.7188 L220.5,23.0938 L220.5,23.4688 L219.9844,24.0938 L219.5,24.0938 L217.5,24.0938 Z " fill="#000000"/><text fill="#000000" font-family="sans-serif" font-size="12" font-style="italic" lengthAdjust="spacing" textLength="61" x="228.5" y="24.457">«interface»</text><text fill="#000000" font-family="sans-serif" font-size="12" font-style="italic" lengthAdjust="spacing" textLength="51" x="233.5" y="39.5508">Observer</text><line style="stroke:#A80036;stroke-width:1.5;" x1="202.5" x2="289.5" y1="47.1875" y2="47.1875"/><line style="stroke:#A80036;stroke-width:1.5;" x1="202.5" x2="289.5" y1="55.1875" y2="55.1875"/><!--MD5=[09ce52be0ee7de43c61b6e2d59bf108b]
class Person--><rect codeLine="12" fill="#FEFECE" filter="url(#fb7rsicyb2jtx)" height="103.3438" id="Person" style="stroke:#A80036;stroke-width:1.5;" width="149" x="172.5" y="677"/><ellipse cx="222.75" cy="693" fill="#ADD1B2" rx="11" ry="11" style="stroke:#A80036;stroke-width:1.0;"/><path d="M224.75,689.5 Q224.9531,689 225.1875,688.75 Q225.4219,688.5 225.6875,688.5 Q226.1563,688.5 226.4531,688.7813 Q226.75,689.0625 226.75,689.7188 L226.75,691.2813 Q226.75,691.9375 226.4688,692.2188 Q226.1875,692.5 225.75,692.5 Q225.3594,692.5 225.1094,692.3281 Q224.8594,692.1563 224.75,691.7031 Q224.7031,691.3906 224.5313,691.2188 Q224.2188,690.8906 223.6563,690.7031 Q223.0938,690.5 222.5313,690.5 Q221.8281,690.5 221.2344,690.7813 Q220.6563,691.0625 220.2031,691.6875 Q219.75,692.3125 219.75,693.1719 L219.75,694.0938 Q219.75,695.125 220.5938,695.8125 Q221.4375,696.5 222.9375,696.5 Q223.8281,696.5 224.4531,696.2969 Q224.8125,696.1875 225.2188,695.8281 Q225.4844,695.625 225.625,695.5625 Q225.7656,695.5 225.9375,695.5 Q226.2656,695.5 226.5,695.7656 Q226.75,696.0156 226.75,696.375 Q226.75,696.7188 226.4063,697.125 Q225.9063,697.7188 225.1094,698.0469 Q224.0625,698.5 222.7813,698.5 Q221.2813,698.5 220.0781,697.9063 Q219.1094,697.4375 218.4219,696.4219 Q217.75,695.4063 217.75,694.2031 L217.75,693.1094 Q217.75,691.8594 218.3438,690.7656 Q218.9531,689.6719 220,689.0938 Q221.0625,688.5 222.25,688.5 Q222.9688,688.5 223.5938,688.75 Q224.2188,689 224.75,689.5 Z " fill="#000000"/><text fill="#000000" font-family="sans-serif" font-size="12" lengthAdjust="spacing" textLength="40" x="243.25" y="697.9102">Person</text><line style="stroke:#A80036;stroke-width:1.5;" x1="173.5" x2="320.5" y1="709" y2="709"/><rect fill="none" height="6" style="stroke:#C82930;stroke-width:1.0;" width="6" x="180.5" y="717"/><text fill="#000000" font-family="sans-serif" font-size="11" lengthAdjust="spacing" textLength="83" x="192.5" y="724.4189">firstName : String</text><rect fill="none" height="6" style="stroke:#C82930;stroke-width:1.0;" width="6" x="180.5" y="730.8359"/><text fill="#000000" font-family="sans-serif" font-size="11" lengthAdjust="spacing" textLength="81" x="192.5" y="738.2549">lastName : String</text><rect fill="none" height="6" style="stroke:#C82930;stroke-width:1.0;" width="6" x="180.5" y="744.6719"/><text fill="#000000" font-family="sans-serif" font-size="11" lengthAdjust="spacing" textLength="61" x="192.5" y="752.0908">email : String</text><rect fill="none" height="6" style="stroke:#C82930;stroke-width:1.0;" width="6" x="180.5" y="758.5078"/><text fill="#000000" font-family="sans-serif" font-size="11" lengthAdjust="spacing" textLength="123" x="192.5" y="765.9268">hashedPassword : String</text><line style="stroke:#A80036;stroke-width:1.5;" x1="173.5" x2="320.5" y1="772.3438" y2="772.3438"/><!--MD5=[3fd616f346a44cd59a91eb10b19e157c]
class User--><rect codeLine="19" fill="#FEFECE" filter="url(#fb7rsicyb2jtx)" height="103.3438" id="User" style="stroke:#A80036;stroke-width:1.5;" width="236" x="7" y="507"/><ellipse cx="107.25" cy="523" fill="#ADD1B2" rx="11" ry="11" style="stroke:#A80036;stroke-width:1.0;"/><path d="M109.25,519.5 Q109.4531,519 109.6875,518.75 Q109.9219,518.5 110.1875,518.5 Q110.6563,518.5 110.9531,518.7813 Q111.25,519.0625 111.25,519.7188 L111.25,521.2813 Q111.25,521.9375 110.9688,522.2188 Q110.6875,522.5 110.25,522.5 Q109.8594,522.5 109.6094,522.3281 Q109.3594,522.1563 109.25,521.7031 Q109.2031,521.3906 109.0313,521.2188 Q108.7188,520.8906 108.1563,520.7031 Q107.5938,520.5 107.0313,520.5 Q106.3281,520.5 105.7344,520.7813 Q105.1563,521.0625 104.7031,521.6875 Q104.25,522.3125 104.25,523.1719 L104.25,524.0938 Q104.25,525.125 105.0938,525.8125 Q105.9375,526.5 107.4375,526.5 Q108.3281,526.5 108.9531,526.2969 Q109.3125,526.1875 109.7188,525.8281 Q109.9844,525.625 110.125,525.5625 Q110.2656,525.5 110.4375,525.5 Q110.7656,525.5 111,525.7656 Q111.25,526.0156 111.25,526.375 Q111.25,526.7188 110.9063,527.125 Q110.4063,527.7188 109.6094,528.0469 Q108.5625,528.5 107.2813,528.5 Q105.7813,528.5 104.5781,527.9063 Q103.6094,527.4375 102.9219,526.4219 Q102.25,525.4063 102.25,524.2031 L102.25,523.1094 Q102.25,521.8594 102.8438,520.7656 Q103.4531,519.6719 104.5,519.0938 Q105.5625,518.5 106.75,518.5 Q107.4688,518.5 108.0938,518.75 Q108.7188,519 109.25,519.5 Z " fill="#000000"/><text fill="#000000" font-family="sans-serif" font-size="12" lengthAdjust="spacing" textLength="27" x="127.75" y="527.9102">User</text><line style="stroke:#A80036;stroke-width:1.5;" x1="8" x2="242" y1="539" y2="539"/><rect fill="none" height="6" style="stroke:#C82930;stroke-width:1.0;" width="6" x="15" y="547"/><text fill="#000000" font-family="sans-serif" font-size="11" lengthAdjust="spacing" textLength="148" x="27" y="554.4189">comfortableRanges : Double[][]</text><line style="stroke:#A80036;stroke-width:1.5;" x1="8" x2="242" y1="560.8359" y2="560.8359"/><rect fill="#F24D5C" height="6" style="stroke:#C82930;stroke-width:1.0;" width="6" x="15" y="568.8359"/><text fill="#000000" font-family="sans-serif" font-size="11" lengthAdjust="spacing" textLength="163" x="27" y="576.2549">subscribeToStation(Station) : void</text><rect fill="#F24D5C" height="6" style="stroke:#C82930;stroke-width:1.0;" width="6" x="15" y="582.6719"/><text fill="#000000" font-family="sans-serif" font-size="11" lengthAdjust="spacing" textLength="187" x="27" y="590.0908">unsubscribeFromStation(Station) : void</text><rect fill="#F24D5C" height="6" style="stroke:#C82930;stroke-width:1.0;" width="6" x="15" y="596.5078"/><text fill="#000000" font-family="sans-serif" font-size="11" lengthAdjust="spacing" textLength="210" x="27" y="603.9268">updateComfortableRanges(Double[][]) : void</text><!--MD5=[db6d18d8099558415abc41d00477ab92]
class Admin--><rect codeLine="26" fill="#FEFECE" filter="url(#fb7rsicyb2jtx)" height="75.6719" id="Admin" style="stroke:#A80036;stroke-width:1.5;" width="181" x="278.5" y="520.5"/><ellipse cx="347.25" cy="536.5" fill="#ADD1B2" rx="11" ry="11" style="stroke:#A80036;stroke-width:1.0;"/><path d="M349.25,533 Q349.4531,532.5 349.6875,532.25 Q349.9219,532 350.1875,532 Q350.6563,532 350.9531,532.2813 Q351.25,532.5625 351.25,533.2188 L351.25,534.7813 Q351.25,535.4375 350.9688,535.7188 Q350.6875,536 350.25,536 Q349.8594,536 349.6094,535.8281 Q349.3594,535.6563 349.25,535.2031 Q349.2031,534.8906 349.0313,534.7188 Q348.7188,534.3906 348.1563,534.2031 Q347.5938,534 347.0313,534 Q346.3281,534 345.7344,534.2813 Q345.1563,534.5625 344.7031,535.1875 Q344.25,535.8125 344.25,536.6719 L344.25,537.5938 Q344.25,538.625 345.0938,539.3125 Q345.9375,540 347.4375,540 Q348.3281,540 348.9531,539.7969 Q349.3125,539.6875 349.7188,539.3281 Q349.9844,539.125 350.125,539.0625 Q350.2656,539 350.4375,539 Q350.7656,539 351,539.2656 Q351.25,539.5156 351.25,539.875 Q351.25,540.2188 350.9063,540.625 Q350.4063,541.2188 349.6094,541.5469 Q348.5625,542 347.2813,542 Q345.7813,542 344.5781,541.4063 Q343.6094,540.9375 342.9219,539.9219 Q342.25,538.9063 342.25,537.7031 L342.25,536.6094 Q342.25,535.3594 342.8438,534.2656 Q343.4531,533.1719 344.5,532.5938 Q345.5625,532 346.75,532 Q347.4688,532 348.0938,532.25 Q348.7188,532.5 349.25,533 Z " fill="#000000"/><text fill="#000000" font-family="sans-serif" font-size="12" lengthAdjust="spacing" textLength="35" x="367.75" y="541.4102">Admin</text><line style="stroke:#A80036;stroke-width:1.5;" x1="279.5" x2="458.5" y1="552.5" y2="552.5"/><line style="stroke:#A80036;stroke-width:1.5;" x1="279.5" x2="458.5" y1="560.5" y2="560.5"/><rect fill="#F24D5C" height="6" style="stroke:#C82930;stroke-width:1.0;" width="6" x="286.5" y="568.5"/><text fill="#000000" font-family="sans-serif" font-size="11" lengthAdjust="spacing" textLength="153" x="298.5" y="575.9189">enableStation(Station) : boolean</text><rect fill="#F24D5C" height="6" style="stroke:#C82930;stroke-width:1.0;" width="6" x="286.5" y="582.3359"/><text fill="#000000" font-family="sans-serif" font-size="11" lengthAdjust="spacing" textLength="155" x="298.5" y="589.7549">disableStation(Station) : boolean</text><!--MD5=[97d46ae094d28e0d28828e4b8046fed1]
class Sensor--><rect codeLine="31" fill="#FEFECE" filter="url(#fb7rsicyb2jtx)" height="117.1797" id="Sensor" style="stroke:#A80036;stroke-width:1.5;" width="157" x="494.5" y="500"/><ellipse cx="548.75" cy="516" fill="#ADD1B2" rx="11" ry="11" style="stroke:#A80036;stroke-width:1.0;"/><path d="M550.75,512.5 Q550.9531,512 551.1875,511.75 Q551.4219,511.5 551.6875,511.5 Q552.1563,511.5 552.4531,511.7813 Q552.75,512.0625 552.75,512.7188 L552.75,514.2813 Q552.75,514.9375 552.4688,515.2188 Q552.1875,515.5 551.75,515.5 Q551.3594,515.5 551.1094,515.3281 Q550.8594,515.1563 550.75,514.7031 Q550.7031,514.3906 550.5313,514.2188 Q550.2188,513.8906 549.6563,513.7031 Q549.0938,513.5 548.5313,513.5 Q547.8281,513.5 547.2344,513.7813 Q546.6563,514.0625 546.2031,514.6875 Q545.75,515.3125 545.75,516.1719 L545.75,517.0938 Q545.75,518.125 546.5938,518.8125 Q547.4375,519.5 548.9375,519.5 Q549.8281,519.5 550.4531,519.2969 Q550.8125,519.1875 551.2188,518.8281 Q551.4844,518.625 551.625,518.5625 Q551.7656,518.5 551.9375,518.5 Q552.2656,518.5 552.5,518.7656 Q552.75,519.0156 552.75,519.375 Q552.75,519.7188 552.4063,520.125 Q551.9063,520.7188 551.1094,521.0469 Q550.0625,521.5 548.7813,521.5 Q547.2813,521.5 546.0781,520.9063 Q545.1094,520.4375 544.4219,519.4219 Q543.75,518.4063 543.75,517.2031 L543.75,516.1094 Q543.75,514.8594 544.3438,513.7656 Q544.9531,512.6719 546,512.0938 Q547.0625,511.5 548.25,511.5 Q548.9688,511.5 549.5938,511.75 Q550.2188,512 550.75,512.5 Z " fill="#000000"/><text fill="#000000" font-family="sans-serif" font-size="12" lengthAdjust="spacing" textLength="40" x="569.25" y="520.9102">Sensor</text><line style="stroke:#A80036;stroke-width:1.5;" x1="495.5" x2="650.5" y1="532" y2="532"/><rect fill="none" height="6" style="stroke:#C82930;stroke-width:1.0;" width="6" x="502.5" y="540"/><text fill="#000000" font-family="sans-serif" font-size="11" lengthAdjust="spacing" textLength="58" x="514.5" y="547.4189">type : String</text><rect fill="none" height="6" style="stroke:#C82930;stroke-width:1.0;" width="6" x="502.5" y="553.8359"/><text fill="#000000" font-family="sans-serif" font-size="11" lengthAdjust="spacing" textLength="68" x="514.5" y="561.2549">value : Double</text><line style="stroke:#A80036;stroke-width:1.5;" x1="495.5" x2="650.5" y1="567.6719" y2="567.6719"/><ellipse cx="505.5" cy="578.6719" fill="#84BE84" rx="3" ry="3" style="stroke:#038048;stroke-width:1.0;"/><text fill="#000000" font-family="sans-serif" font-size="11" lengthAdjust="spacing" textLength="84" x="514.5" y="583.0908">getType() : String</text><ellipse cx="505.5" cy="592.5078" fill="#84BE84" rx="3" ry="3" style="stroke:#038048;stroke-width:1.0;"/><text fill="#000000" font-family="sans-serif" font-size="11" lengthAdjust="spacing" textLength="93" x="514.5" y="596.9268">getValue() : Double</text><rect fill="#F24D5C" height="6" style="stroke:#C82930;stroke-width:1.0;" width="6" x="502.5" y="603.3438"/><text fill="#000000" font-family="sans-serif" font-size="11" lengthAdjust="spacing" textLength="131" x="514.5" y="610.7627">updateValue(Double) : void</text><!--MD5=[32f8e77670dc7b12ba11221465fb86a4]
class Station--><rect codeLine="39" fill="#FEFECE" filter="url(#fb7rsicyb2jtx)" height="158.6875" id="Station" style="stroke:#A80036;stroke-width:1.5;" width="188" x="250" y="281"/><ellipse cx="320.75" cy="297" fill="#ADD1B2" rx="11" ry="11" style="stroke:#A80036;stroke-width:1.0;"/><path d="M322.75,293.5 Q322.9531,293 323.1875,292.75 Q323.4219,292.5 323.6875,292.5 Q324.1563,292.5 324.4531,292.7813 Q324.75,293.0625 324.75,293.7188 L324.75,295.2813 Q324.75,295.9375 324.4688,296.2188 Q324.1875,296.5 323.75,296.5 Q323.3594,296.5 323.1094,296.3281 Q322.8594,296.1563 322.75,295.7031 Q322.7031,295.3906 322.5313,295.2188 Q322.2188,294.8906 321.6563,294.7031 Q321.0938,294.5 320.5313,294.5 Q319.8281,294.5 319.2344,294.7813 Q318.6563,295.0625 318.2031,295.6875 Q317.75,296.3125 317.75,297.1719 L317.75,298.0938 Q317.75,299.125 318.5938,299.8125 Q319.4375,300.5 320.9375,300.5 Q321.8281,300.5 322.4531,300.2969 Q322.8125,300.1875 323.2188,299.8281 Q323.4844,299.625 323.625,299.5625 Q323.7656,299.5 323.9375,299.5 Q324.2656,299.5 324.5,299.7656 Q324.75,300.0156 324.75,300.375 Q324.75,300.7188 324.4063,301.125 Q323.9063,301.7188 323.1094,302.0469 Q322.0625,302.5 320.7813,302.5 Q319.2813,302.5 318.0781,301.9063 Q317.1094,301.4375 316.4219,300.4219 Q315.75,299.4063 315.75,298.2031 L315.75,297.1094 Q315.75,295.8594 316.3438,294.7656 Q316.9531,293.6719 318,293.0938 Q319.0625,292.5 320.25,292.5 Q320.9688,292.5 321.5938,292.75 Q322.2188,293 322.75,293.5 Z " fill="#000000"/><text fill="#000000" font-family="sans-serif" font-size="12" lengthAdjust="spacing" textLength="38" x="341.25" y="301.9102">Station</text><line style="stroke:#A80036;stroke-width:1.5;" x1="251" x2="437" y1="313" y2="313"/><rect fill="none" height="6" style="stroke:#C82930;stroke-width:1.0;" width="6" x="258" y="321"/><text fill="#000000" font-family="sans-serif" font-size="11" lengthAdjust="spacing" textLength="137" x="270" y="328.4189">temperatureSensor : Sensor</text><rect fill="none" height="6" style="stroke:#C82930;stroke-width:1.0;" width="6" x="258" y="334.8359"/><text fill="#000000" font-family="sans-serif" font-size="11" lengthAdjust="spacing" textLength="123" x="270" y="342.2549">pressureSensor : Sensor</text><rect fill="none" height="6" style="stroke:#C82930;stroke-width:1.0;" width="6" x="258" y="348.6719"/><text fill="#000000" font-family="sans-serif" font-size="11" lengthAdjust="spacing" textLength="118" x="270" y="356.0908">humiditySensor : Sensor</text><rect fill="none" height="6" style="stroke:#C82930;stroke-width:1.0;" width="6" x="258" y="362.5078"/><text fill="#000000" font-family="sans-serif" font-size="11" lengthAdjust="spacing" textLength="113" x="270" y="369.9268">altitudeSensor : Sensor</text><rect fill="none" height="6" style="stroke:#C82930;stroke-width:1.0;" width="6" x="258" y="376.3438"/><text fill="#000000" font-family="sans-serif" font-size="11" lengthAdjust="spacing" textLength="111" x="270" y="383.7627">observers : Observer[]</text><line style="stroke:#A80036;stroke-width:1.5;" x1="251" x2="437" y1="390.1797" y2="390.1797"/><ellipse cx="261" cy="401.1797" fill="#84BE84" rx="3" ry="3" style="stroke:#038048;stroke-width:1.0;"/><text fill="#000000" font-family="sans-serif" font-size="11" lengthAdjust="spacing" textLength="159" x="270" y="405.5986">attachObserver(Observer) : void</text><ellipse cx="261" cy="415.0156" fill="#84BE84" rx="3" ry="3" style="stroke:#038048;stroke-width:1.0;"/><text fill="#000000" font-family="sans-serif" font-size="11" lengthAdjust="spacing" textLength="162" x="270" y="419.4346">detachObserver(Observer) : void</text><ellipse cx="261" cy="428.8516" fill="#84BE84" rx="3" ry="3" style="stroke:#038048;stroke-width:1.0;"/><text fill="#000000" font-family="sans-serif" font-size="11" lengthAdjust="spacing" textLength="116" x="270" y="433.2705">notifyObservers() : void</text><!--MD5=[da8d81ca05feb257f2f3b5b7736e890b]
link User to Person--><path codeLine="50" d="M161.94,610.36 C173.4,626.15 186.22,643.8 198.36,660.51 " fill="none" id="User-to-Person" style="stroke:#A80036;stroke-width:1.0;"/><polygon fill="none" points="204.1,656.52,210.19,676.81,192.77,664.74,204.1,656.52" style="stroke:#A80036;stroke-width:1.0;"/><!--MD5=[33f8ed7b79d8f56217be50046b27eea3]
link Admin to Person--><path codeLine="51" d="M341.92,596.78 C328.27,615.58 311.3,638.95 295.5,660.71 " fill="none" id="Admin-to-Person" style="stroke:#A80036;stroke-width:1.0;"/><polygon fill="none" points="301.13,664.87,283.72,676.94,289.81,656.64,301.13,664.87" style="stroke:#A80036;stroke-width:1.0;"/><!--MD5=[efc4e0499150442d924926b236ead4e6]
reverse link Station to Sensor--><path codeLine="53" d="M445.71,448.55 C465.95,465.88 486.73,483.66 505.48,499.71 " fill="none" id="Station-backto-Sensor" style="stroke:#A80036;stroke-width:1.0;"/><polygon fill="#FFFFFF" points="435.82,440.09,437.774,447.0313,444.9329,447.8973,442.9789,440.956,435.82,440.09" style="stroke:#A80036;stroke-width:1.0;"/><!--MD5=[d645f27223f20aef43a769906e6f37a9]
reverse link Publisher to Station--><path codeLine="55" d="M336.39,241.22 C337.22,254.12 338.09,267.7 338.94,280.89 " fill="none" id="Publisher-backto-Station" style="stroke:#A80036;stroke-width:1.0;"/><polygon fill="none" points="329.39,241.44,335.09,221.03,343.36,240.54,329.39,241.44" style="stroke:#A80036;stroke-width:1.0;"/><!--MD5=[44c9d014ee9afea838d32a1274d01ecf]
reverse link Observer to User--><path codeLine="56" d="M231.4,82.49 C227.5,95.54 223.42,109.78 220,123 C184.41,260.75 150.84,425.29 134.82,506.7 " fill="none" id="Observer-backto-User" style="stroke:#A80036;stroke-width:1.0;"/><polygon fill="none" points="224.73,80.36,237.27,63.28,238.12,84.45,224.73,80.36" style="stroke:#A80036;stroke-width:1.0;"/><!--MD5=[56c9795ecf26c620bfe46b782c2518c5]
link Observer to Publisher--><path codeLine="58" d="M270.43,74.35 C277.88,86.04 294.9549,112.8377 294.9549,112.8377 " fill="none" id="Observer-Publisher" style="stroke:#A80036;stroke-width:1.0;"/><polygon fill="#FFFFFF" points="301.4,122.96,301.5516,115.7505,294.9549,112.8377,294.8034,120.0472,301.4,122.96" style="stroke:#A80036;stroke-width:1.0;"/><polygon fill="#A80036" points="263.4,63.32,264.8597,73.0601,266.0854,67.5376,271.6079,68.7634,263.4,63.32" style="stroke:#A80036;stroke-width:1.0;"/><line style="stroke:#A80036;stroke-width:1.0;" x1="266.0854" x2="270.39" y1="67.5376" y2="74.285"/><!--MD5=[4a0d7cde8821b62f24587c178ed8e9b5]
reverse link Station to User--><path codeLine="60" d="M252.35,443.53 C228.38,464.98 203.23,487.49 181.68,506.78 " fill="none" id="Station-backto-User" style="stroke:#A80036;stroke-width:1.0;"/><polygon fill="#A80036" points="256.19,440.09,246.8187,443.1196,252.4672,443.4277,252.1591,449.0762,256.19,440.09" style="stroke:#A80036;stroke-width:1.0;"/><!--MD5=[ffe9bc0a80983bebe82ceeef9792d87d]
reverse link Station to Admin--><path codeLine="61" d="M354.69,445.31 C358.03,471.48 361.54,499.04 364.25,520.3 " fill="none" id="Station-backto-Admin" style="stroke:#A80036;stroke-width:1.0;"/><polygon fill="#A80036" points="354.02,440.09,351.1839,449.5217,354.649,445.0503,359.1204,448.5153,354.02,440.09" style="stroke:#A80036;stroke-width:1.0;"/><!--MD5=[b5f270c69f8df52c99593b22e9525e83]
@startuml


interface Publisher <<interface>> {
    +attachObserver(Observer) : void
    +detachObserver(Observer) : void
    +notify() : void
}

interface Observer <<interface>> {
}

class Person {
    -firstName : String
    -lastName : String
    -email : String
    -hashedPassword : String
}

class User {
    -comfortableRanges : Double[][]
    -subscribeToStation(Station) : void
    -unsubscribeFromStation(Station) : void
    -updateComfortableRanges(Double[][]) : void
}

class Admin {
    -enableStation(Station) : boolean
    -disableStation(Station) : boolean
}

class Sensor {
    -type : String
    -value : Double
    +getType() : String
    +getValue() : Double
    -updateValue(Double) : void
}

class Station {
    -temperatureSensor : Sensor
    -pressureSensor : Sensor
    -humiditySensor : Sensor
    -altitudeSensor : Sensor
    -observers : Observer[]
    +attachObserver(Observer) : void
    +detachObserver(Observer) : void
    +notifyObservers() : void
}

User - -|> Person
Admin - -|> Person

Station o- - Sensor

Publisher <|- - Station
Observer <|- - User

Observer <- -o Publisher

Station <- - User
Station <- - Admin

@enduml

PlantUML version 1.2021.11(Sat Oct 02 07:26:11 MDT 2021)
(GPL source distribution)
Java Runtime: OpenJDK Runtime Environment
JVM: OpenJDK 64-Bit Server VM
Default Encoding: Cp1252
Language: en
Country: US
--></g></svg>