<?xml version="1.0" encoding="UTF-8" standalone="no"?><svg xmlns="http://www.w3.org/2000/svg" xmlns:xlink="http://www.w3.org/1999/xlink" contentScriptType="application/ecmascript" contentStyleType="text/css" height="1003.2px" preserveAspectRatio="none" style="width:2129px;height:1003px;background:#FFFFFF;" version="1.1" viewBox="0 0 2129 1003" width="2129.6px" zoomAndPan="magnify"><defs><filter height="300%" id="fnk7eh9bkcxrz" width="300%" x="-1" y="-1"><feGaussianBlur result="blurOut" stdDeviation="2.2"/><feColorMatrix in="blurOut" result="blurOut2" type="matrix" values="0 0 0 0 0 0 0 0 0 0 0 0 0 0 0 0 0 0 .4 0"/><feOffset dx="4.4" dy="4.4" in="blurOut2" result="blurOut3"/><feBlend in="SourceGraphic" in2="blurOut3" mode="normal"/></filter></defs><g><!--MD5=[13fb849c6dfc9273db4c5b2c7ac96a10]
class Publisher--><rect codeLine="3" fill="#FEFECE" filter="url(#fnk7eh9bkcxrz)" height="107.4648" id="Publisher" style="stroke:#A80036;stroke-width:1.6500000000000001;" width="206.8" x="284.9" y="30.25"/><ellipse cx="352.275" cy="52.3531" fill="#B4A7E5" rx="12.1" ry="12.1" style="stroke:#A80036;stroke-width:1.1;"/><path d="M353.375,49.0531 L353.375,55.6531 L355.575,55.6531 L356.1078,55.6531 L356.675,56.3406 L356.675,56.7531 L356.675,57.1656 L356.1078,57.8531 L355.575,57.8531 L348.975,57.8531 L348.4422,57.8531 L347.875,57.1656 L347.875,56.7531 L347.875,56.3406 L348.4422,55.6531 L348.975,55.6531 L351.175,55.6531 L351.175,49.0531 L348.975,49.0531 L348.4422,49.0531 L347.875,48.3656 L347.875,47.9531 L347.875,47.5406 L348.4422,46.8531 L348.975,46.8531 L355.575,46.8531 L356.1078,46.8531 L356.675,47.5406 L356.675,47.9531 L356.675,48.3656 L356.1078,49.0531 L355.575,49.0531 L353.375,49.0531 Z " fill="#000000"/><text fill="#000000" font-family="sans-serif" font-size="13.2" font-style="italic" lengthAdjust="spacing" textLength="67.1" x="372.625" y="49.4527">«interface»</text><text fill="#000000" font-family="sans-serif" font-size="13.2" font-style="italic" lengthAdjust="spacing" textLength="58.3" x="377.025" y="66.0559">Publisher</text><line style="stroke:#A80036;stroke-width:1.6500000000000001;" x1="286" x2="490.6" y1="74.4563" y2="74.4563"/><line style="stroke:#A80036;stroke-width:1.6500000000000001;" x1="286" x2="490.6" y1="83.2563" y2="83.2563"/><ellipse cx="297" cy="95.3563" fill="#84BE84" rx="3.3" ry="3.3" style="stroke:#038048;stroke-width:1.1;"/><text fill="#000000" font-family="sans-serif" font-size="12.1" lengthAdjust="spacing" textLength="174.9" x="306.9" y="100.2171">attachObserver(Observer) : void</text><ellipse cx="297" cy="110.5758" fill="#84BE84" rx="3.3" ry="3.3" style="stroke:#038048;stroke-width:1.1;"/><text fill="#000000" font-family="sans-serif" font-size="12.1" lengthAdjust="spacing" textLength="178.2" x="306.9" y="115.4366">detachObserver(Observer) : void</text><ellipse cx="297" cy="125.7953" fill="#84BE84" rx="3.3" ry="3.3" style="stroke:#038048;stroke-width:1.1;"/><text fill="#000000" font-family="sans-serif" font-size="12.1" lengthAdjust="spacing" textLength="70.4" x="306.9" y="130.6562">notify() : void</text><!--MD5=[d40932010816485ec57b44b6eea2392a]
class Observer--><rect codeLine="9" fill="#FEFECE" filter="url(#fnk7eh9bkcxrz)" height="61.8063" id="Observer" style="stroke:#A80036;stroke-width:1.6500000000000001;" width="97.9" x="130.35" y="53.35"/><ellipse cx="146.85" cy="75.4531" fill="#B4A7E5" rx="12.1" ry="12.1" style="stroke:#A80036;stroke-width:1.1;"/><path d="M147.95,72.1531 L147.95,78.7531 L150.15,78.7531 L150.6828,78.7531 L151.25,79.4406 L151.25,79.8531 L151.25,80.2656 L150.6828,80.9531 L150.15,80.9531 L143.55,80.9531 L143.0172,80.9531 L142.45,80.2656 L142.45,79.8531 L142.45,79.4406 L143.0172,78.7531 L143.55,78.7531 L145.75,78.7531 L145.75,72.1531 L143.55,72.1531 L143.0172,72.1531 L142.45,71.4656 L142.45,71.0531 L142.45,70.6406 L143.0172,69.9531 L143.55,69.9531 L150.15,69.9531 L150.6828,69.9531 L151.25,70.6406 L151.25,71.0531 L151.25,71.4656 L150.6828,72.1531 L150.15,72.1531 L147.95,72.1531 Z " fill="#000000"/><text fill="#000000" font-family="sans-serif" font-size="13.2" font-style="italic" lengthAdjust="spacing" textLength="67.1" x="160.05" y="72.5527">«interface»</text><text fill="#000000" font-family="sans-serif" font-size="13.2" font-style="italic" lengthAdjust="spacing" textLength="56.1" x="165.55" y="89.1559">Observer</text><line style="stroke:#A80036;stroke-width:1.6500000000000001;" x1="131.45" x2="227.15" y1="97.5563" y2="97.5563"/><line style="stroke:#A80036;stroke-width:1.6500000000000001;" x1="131.45" x2="227.15" y1="106.3563" y2="106.3563"/><!--MD5=[09ce52be0ee7de43c61b6e2d59bf108b]
class Person--><rect codeLine="12" fill="#FEFECE" filter="url(#fnk7eh9bkcxrz)" height="159.3367" id="Person" style="stroke:#A80036;stroke-width:1.6500000000000001;" width="163.9" x="183.15" y="829.4"/><ellipse cx="238.425" cy="847" fill="#ADD1B2" rx="12.1" ry="12.1" style="stroke:#A80036;stroke-width:1.1;"/><path d="M240.625,843.15 Q240.8484,842.6 241.1063,842.325 Q241.3641,842.05 241.6563,842.05 Q242.1719,842.05 242.4984,842.3594 Q242.825,842.6688 242.825,843.3906 L242.825,845.1094 Q242.825,845.8313 242.5156,846.1406 Q242.2063,846.45 241.725,846.45 Q241.2953,846.45 241.0203,846.2609 Q240.7453,846.0719 240.625,845.5734 Q240.5734,845.2297 240.3844,845.0406 Q240.0406,844.6797 239.4219,844.4734 Q238.8031,844.25 238.1844,844.25 Q237.4109,844.25 236.7578,844.5594 Q236.1219,844.8688 235.6234,845.5563 Q235.125,846.2438 235.125,847.1891 L235.125,848.2031 Q235.125,849.3375 236.0531,850.0938 Q236.9813,850.85 238.6313,850.85 Q239.6109,850.85 240.2984,850.6266 Q240.6938,850.5063 241.1406,850.1109 Q241.4328,849.8875 241.5875,849.8188 Q241.7422,849.75 241.9313,849.75 Q242.2922,849.75 242.55,850.0422 Q242.825,850.3172 242.825,850.7125 Q242.825,851.0906 242.4469,851.5375 Q241.8969,852.1906 241.0203,852.5516 Q239.8688,853.05 238.4594,853.05 Q236.8094,853.05 235.4859,852.3969 Q234.4203,851.8813 233.6641,850.7641 Q232.925,849.6469 232.925,848.3234 L232.925,847.1203 Q232.925,845.7453 233.5781,844.5422 Q234.2484,843.3391 235.4,842.7031 Q236.5688,842.05 237.875,842.05 Q238.6656,842.05 239.3531,842.325 Q240.0406,842.6 240.625,843.15 Z " fill="#000000"/><text fill="#000000" font-family="sans-serif" font-size="13.2" lengthAdjust="spacing" textLength="44" x="260.975" y="852.4012">Person</text><line style="stroke:#A80036;stroke-width:1.6500000000000001;" x1="184.25" x2="345.95" y1="864.6" y2="864.6"/><rect fill="none" height="6.6" style="stroke:#C82930;stroke-width:1.1;" width="6.6" x="191.95" y="873.4"/><text fill="#000000" font-family="sans-serif" font-size="12.1" lengthAdjust="spacing" textLength="91.3" x="205.15" y="881.5608">firstName : String</text><rect fill="none" height="6.6" style="stroke:#C82930;stroke-width:1.1;" width="6.6" x="191.95" y="888.6195"/><text fill="#000000" font-family="sans-serif" font-size="12.1" lengthAdjust="spacing" textLength="89.1" x="205.15" y="896.7804">lastName : String</text><rect fill="none" height="6.6" style="stroke:#C82930;stroke-width:1.1;" width="6.6" x="191.95" y="903.8391"/><text fill="#000000" font-family="sans-serif" font-size="12.1" lengthAdjust="spacing" textLength="67.1" x="205.15" y="911.9999">email : String</text><rect fill="none" height="6.6" style="stroke:#C82930;stroke-width:1.1;" width="6.6" x="191.95" y="919.0586"/><text fill="#000000" font-family="sans-serif" font-size="12.1" lengthAdjust="spacing" textLength="135.3" x="205.15" y="927.2194">hashedPassword : String</text><line style="stroke:#A80036;stroke-width:1.6500000000000001;" x1="184.25" x2="345.95" y1="934.2781" y2="934.2781"/><ellipse cx="195.25" cy="946.3781" fill="#84BE84" rx="3.3" ry="3.3" style="stroke:#038048;stroke-width:1.1;"/><text fill="#000000" font-family="sans-serif" font-size="12.1" lengthAdjust="spacing" textLength="118.8" x="205.15" y="951.239">getFirstName() : String</text><ellipse cx="195.25" cy="961.5977" fill="#84BE84" rx="3.3" ry="3.3" style="stroke:#038048;stroke-width:1.1;"/><text fill="#000000" font-family="sans-serif" font-size="12.1" lengthAdjust="spacing" textLength="118.8" x="205.15" y="966.4585">getLastName() : String</text><ellipse cx="195.25" cy="976.8172" fill="#84BE84" rx="3.3" ry="3.3" style="stroke:#038048;stroke-width:1.1;"/><text fill="#000000" font-family="sans-serif" font-size="12.1" lengthAdjust="spacing" textLength="92.4" x="205.15" y="981.678">getEmail() : String</text><!--MD5=[3fd616f346a44cd59a91eb10b19e157c]
class User--><rect codeLine="22" fill="#FEFECE" filter="url(#fnk7eh9bkcxrz)" height="220.2148" id="User" style="stroke:#A80036;stroke-width:1.6500000000000001;" width="250.8" x="7.7" y="543.4"/><ellipse cx="113.575" cy="561" fill="#ADD1B2" rx="12.1" ry="12.1" style="stroke:#A80036;stroke-width:1.1;"/><path d="M115.775,557.15 Q115.9984,556.6 116.2563,556.325 Q116.5141,556.05 116.8063,556.05 Q117.3219,556.05 117.6484,556.3594 Q117.975,556.6688 117.975,557.3906 L117.975,559.1094 Q117.975,559.8313 117.6656,560.1406 Q117.3563,560.45 116.875,560.45 Q116.4453,560.45 116.1703,560.2609 Q115.8953,560.0719 115.775,559.5734 Q115.7234,559.2297 115.5344,559.0406 Q115.1906,558.6797 114.5719,558.4734 Q113.9531,558.25 113.3344,558.25 Q112.5609,558.25 111.9078,558.5594 Q111.2719,558.8688 110.7734,559.5563 Q110.275,560.2438 110.275,561.1891 L110.275,562.2031 Q110.275,563.3375 111.2031,564.0938 Q112.1313,564.85 113.7813,564.85 Q114.7609,564.85 115.4484,564.6266 Q115.8438,564.5063 116.2906,564.1109 Q116.5828,563.8875 116.7375,563.8188 Q116.8922,563.75 117.0813,563.75 Q117.4422,563.75 117.7,564.0422 Q117.975,564.3172 117.975,564.7125 Q117.975,565.0906 117.5969,565.5375 Q117.0469,566.1906 116.1703,566.5516 Q115.0188,567.05 113.6094,567.05 Q111.9594,567.05 110.6359,566.3969 Q109.5703,565.8813 108.8141,564.7641 Q108.075,563.6469 108.075,562.3234 L108.075,561.1203 Q108.075,559.7453 108.7281,558.5422 Q109.3984,557.3391 110.55,556.7031 Q111.7188,556.05 113.025,556.05 Q113.8156,556.05 114.5031,556.325 Q115.1906,556.6 115.775,557.15 Z " fill="#000000"/><text fill="#000000" font-family="sans-serif" font-size="13.2" lengthAdjust="spacing" textLength="29.7" x="136.125" y="566.4012">User</text><line style="stroke:#A80036;stroke-width:1.6500000000000001;" x1="8.8" x2="257.4" y1="578.6" y2="578.6"/><rect fill="none" height="6.6" style="stroke:#C82930;stroke-width:1.1;" width="6.6" x="16.5" y="587.4"/><text fill="#000000" font-family="sans-serif" font-size="12.1" lengthAdjust="spacing" textLength="196.9" x="29.7" y="595.5608">intervalNotificationsEnabled : boolean</text><rect fill="none" height="6.6" style="stroke:#C82930;stroke-width:1.1;" width="6.6" x="16.5" y="602.6195"/><text fill="#000000" font-family="sans-serif" font-size="12.1" lengthAdjust="spacing" textLength="99" x="29.7" y="610.7804">timeInterval : string</text><rect fill="none" height="6.6" style="stroke:#C82930;stroke-width:1.1;" width="6.6" x="16.5" y="617.8391"/><text fill="#000000" font-family="sans-serif" font-size="12.1" lengthAdjust="spacing" textLength="187" x="29.7" y="625.9999">alarmNotificationsEnabled : boolean</text><rect fill="none" height="6.6" style="stroke:#C82930;stroke-width:1.1;" width="6.6" x="16.5" y="633.0586"/><text fill="#000000" font-family="sans-serif" font-size="12.1" lengthAdjust="spacing" textLength="128.7" x="29.7" y="641.2194">alarmRanges : Double[][]</text><line style="stroke:#A80036;stroke-width:1.6500000000000001;" x1="8.8" x2="257.4" y1="648.2781" y2="648.2781"/><ellipse cx="19.8" cy="660.3781" fill="#84BE84" rx="3.3" ry="3.3" style="stroke:#038048;stroke-width:1.1;"/><text fill="#000000" font-family="sans-serif" font-size="12.1" lengthAdjust="spacing" textLength="222.2" x="29.7" y="665.239">getIntervalNotificationsEnabled() : boolean</text><ellipse cx="19.8" cy="675.5977" fill="#84BE84" rx="3.3" ry="3.3" style="stroke:#038048;stroke-width:1.1;"/><text fill="#000000" font-family="sans-serif" font-size="12.1" lengthAdjust="spacing" textLength="127.6" x="29.7" y="680.4585">getTimeInterval() : string</text><ellipse cx="19.8" cy="690.8172" fill="#84BE84" rx="3.3" ry="3.3" style="stroke:#038048;stroke-width:1.1;"/><text fill="#000000" font-family="sans-serif" font-size="12.1" lengthAdjust="spacing" textLength="214.5" x="29.7" y="695.678">getAlarmNotificationsEnabled() : boolean</text><ellipse cx="19.8" cy="706.0367" fill="#84BE84" rx="3.3" ry="3.3" style="stroke:#038048;stroke-width:1.1;"/><text fill="#000000" font-family="sans-serif" font-size="12.1" lengthAdjust="spacing" textLength="156.2" x="29.7" y="710.8976">getAlarmRanges() : Double[][]</text><rect fill="#F24D5C" height="6.6" style="stroke:#C82930;stroke-width:1.1;" width="6.6" x="16.5" y="717.9563"/><text fill="#000000" font-family="sans-serif" font-size="12.1" lengthAdjust="spacing" textLength="198" x="29.7" y="726.1171">updateAlarmRanges(Double[][]) : void</text><rect fill="#F24D5C" height="6.6" style="stroke:#C82930;stroke-width:1.1;" width="6.6" x="16.5" y="733.1758"/><text fill="#000000" font-family="sans-serif" font-size="12.1" lengthAdjust="spacing" textLength="179.3" x="29.7" y="741.3366">subscribeToStation(Station) : void</text><rect fill="#F24D5C" height="6.6" style="stroke:#C82930;stroke-width:1.1;" width="6.6" x="16.5" y="748.3953"/><text fill="#000000" font-family="sans-serif" font-size="12.1" lengthAdjust="spacing" textLength="205.7" x="29.7" y="756.5562">unsubscribeFromStation(Station) : void</text><!--MD5=[db6d18d8099558415abc41d00477ab92]
class Admin--><rect codeLine="36" fill="#FEFECE" filter="url(#fnk7eh9bkcxrz)" height="83.2391" id="Admin" style="stroke:#A80036;stroke-width:1.6500000000000001;" width="199.1" x="297.55" y="611.6"/><ellipse cx="373.175" cy="629.2" fill="#ADD1B2" rx="12.1" ry="12.1" style="stroke:#A80036;stroke-width:1.1;"/><path d="M375.375,625.35 Q375.5984,624.8 375.8563,624.525 Q376.1141,624.25 376.4063,624.25 Q376.9219,624.25 377.2484,624.5594 Q377.575,624.8688 377.575,625.5906 L377.575,627.3094 Q377.575,628.0313 377.2656,628.3406 Q376.9563,628.65 376.475,628.65 Q376.0453,628.65 375.7703,628.4609 Q375.4953,628.2719 375.375,627.7734 Q375.3234,627.4297 375.1344,627.2406 Q374.7906,626.8797 374.1719,626.6734 Q373.5531,626.45 372.9344,626.45 Q372.1609,626.45 371.5078,626.7594 Q370.8719,627.0688 370.3734,627.7563 Q369.875,628.4438 369.875,629.3891 L369.875,630.4031 Q369.875,631.5375 370.8031,632.2938 Q371.7313,633.05 373.3813,633.05 Q374.3609,633.05 375.0484,632.8266 Q375.4438,632.7063 375.8906,632.3109 Q376.1828,632.0875 376.3375,632.0188 Q376.4922,631.95 376.6813,631.95 Q377.0422,631.95 377.3,632.2422 Q377.575,632.5172 377.575,632.9125 Q377.575,633.2906 377.1969,633.7375 Q376.6469,634.3906 375.7703,634.7516 Q374.6188,635.25 373.2094,635.25 Q371.5594,635.25 370.2359,634.5969 Q369.1703,634.0813 368.4141,632.9641 Q367.675,631.8469 367.675,630.5234 L367.675,629.3203 Q367.675,627.9453 368.3281,626.7422 Q368.9984,625.5391 370.15,624.9031 Q371.3188,624.25 372.625,624.25 Q373.4156,624.25 374.1031,624.525 Q374.7906,624.8 375.375,625.35 Z " fill="#000000"/><text fill="#000000" font-family="sans-serif" font-size="13.2" lengthAdjust="spacing" textLength="38.5" x="395.725" y="634.6012">Admin</text><line style="stroke:#A80036;stroke-width:1.6500000000000001;" x1="298.65" x2="495.55" y1="646.8" y2="646.8"/><line style="stroke:#A80036;stroke-width:1.6500000000000001;" x1="298.65" x2="495.55" y1="655.6" y2="655.6"/><rect fill="#F24D5C" height="6.6" style="stroke:#C82930;stroke-width:1.1;" width="6.6" x="306.35" y="664.4"/><text fill="#000000" font-family="sans-serif" font-size="12.1" lengthAdjust="spacing" textLength="168.3" x="319.55" y="672.5608">enableStation(Station) : boolean</text><rect fill="#F24D5C" height="6.6" style="stroke:#C82930;stroke-width:1.1;" width="6.6" x="306.35" y="679.6195"/><text fill="#000000" font-family="sans-serif" font-size="12.1" lengthAdjust="spacing" textLength="170.5" x="319.55" y="687.7804">disableStation(Station) : boolean</text><!--MD5=[97d46ae094d28e0d28828e4b8046fed1]
class Sensor--><rect codeLine="41" fill="#FEFECE" filter="url(#fnk7eh9bkcxrz)" height="128.8977" id="Sensor" style="stroke:#A80036;stroke-width:1.6500000000000001;" width="172.7" x="535.15" y="589.05"/><ellipse cx="594.825" cy="606.65" fill="#ADD1B2" rx="12.1" ry="12.1" style="stroke:#A80036;stroke-width:1.1;"/><path d="M597.025,602.8 Q597.2484,602.25 597.5063,601.975 Q597.7641,601.7 598.0563,601.7 Q598.5719,601.7 598.8984,602.0094 Q599.225,602.3188 599.225,603.0406 L599.225,604.7594 Q599.225,605.4813 598.9156,605.7906 Q598.6063,606.1 598.125,606.1 Q597.6953,606.1 597.4203,605.9109 Q597.1453,605.7219 597.025,605.2234 Q596.9734,604.8797 596.7844,604.6906 Q596.4406,604.3297 595.8219,604.1234 Q595.2031,603.9 594.5844,603.9 Q593.8109,603.9 593.1578,604.2094 Q592.5219,604.5188 592.0234,605.2063 Q591.525,605.8938 591.525,606.8391 L591.525,607.8531 Q591.525,608.9875 592.4531,609.7438 Q593.3813,610.5 595.0313,610.5 Q596.0109,610.5 596.6984,610.2766 Q597.0938,610.1563 597.5406,609.7609 Q597.8328,609.5375 597.9875,609.4688 Q598.1422,609.4 598.3313,609.4 Q598.6922,609.4 598.95,609.6922 Q599.225,609.9672 599.225,610.3625 Q599.225,610.7406 598.8469,611.1875 Q598.2969,611.8406 597.4203,612.2016 Q596.2688,612.7 594.8594,612.7 Q593.2094,612.7 591.8859,612.0469 Q590.8203,611.5313 590.0641,610.4141 Q589.325,609.2969 589.325,607.9734 L589.325,606.7703 Q589.325,605.3953 589.9781,604.1922 Q590.6484,602.9891 591.8,602.3531 Q592.9688,601.7 594.275,601.7 Q595.0656,601.7 595.7531,601.975 Q596.4406,602.25 597.025,602.8 Z " fill="#000000"/><text fill="#000000" font-family="sans-serif" font-size="13.2" lengthAdjust="spacing" textLength="44" x="617.375" y="612.0512">Sensor</text><line style="stroke:#A80036;stroke-width:1.6500000000000001;" x1="536.25" x2="706.75" y1="624.25" y2="624.25"/><rect fill="none" height="6.6" style="stroke:#C82930;stroke-width:1.1;" width="6.6" x="543.95" y="633.05"/><text fill="#000000" font-family="sans-serif" font-size="12.1" lengthAdjust="spacing" textLength="63.8" x="557.15" y="641.2108">type : String</text><rect fill="none" height="6.6" style="stroke:#C82930;stroke-width:1.1;" width="6.6" x="543.95" y="648.2695"/><text fill="#000000" font-family="sans-serif" font-size="12.1" lengthAdjust="spacing" textLength="74.8" x="557.15" y="656.4304">value : Double</text><line style="stroke:#A80036;stroke-width:1.6500000000000001;" x1="536.25" x2="706.75" y1="663.4891" y2="663.4891"/><ellipse cx="547.25" cy="675.5891" fill="#84BE84" rx="3.3" ry="3.3" style="stroke:#038048;stroke-width:1.1;"/><text fill="#000000" font-family="sans-serif" font-size="12.1" lengthAdjust="spacing" textLength="92.4" x="557.15" y="680.4499">getType() : String</text><ellipse cx="547.25" cy="690.8086" fill="#84BE84" rx="3.3" ry="3.3" style="stroke:#038048;stroke-width:1.1;"/><text fill="#000000" font-family="sans-serif" font-size="12.1" lengthAdjust="spacing" textLength="102.3" x="557.15" y="695.6694">getValue() : Double</text><rect fill="#F24D5C" height="6.6" style="stroke:#C82930;stroke-width:1.1;" width="6.6" x="543.95" y="702.7281"/><text fill="#000000" font-family="sans-serif" font-size="12.1" lengthAdjust="spacing" textLength="144.1" x="557.15" y="710.889">updateValue(Double) : void</text><!--MD5=[32f8e77670dc7b12ba11221465fb86a4]
class Station--><rect codeLine="49" fill="#FEFECE" filter="url(#fnk7eh9bkcxrz)" height="250.6539" id="Station" style="stroke:#A80036;stroke-width:1.6500000000000001;" width="206.8" x="293.7" y="226.6"/><ellipse cx="371.525" cy="244.2" fill="#ADD1B2" rx="12.1" ry="12.1" style="stroke:#A80036;stroke-width:1.1;"/><path d="M373.725,240.35 Q373.9484,239.8 374.2063,239.525 Q374.4641,239.25 374.7563,239.25 Q375.2719,239.25 375.5984,239.5594 Q375.925,239.8688 375.925,240.5906 L375.925,242.3094 Q375.925,243.0313 375.6156,243.3406 Q375.3063,243.65 374.825,243.65 Q374.3953,243.65 374.1203,243.4609 Q373.8453,243.2719 373.725,242.7734 Q373.6734,242.4297 373.4844,242.2406 Q373.1406,241.8797 372.5219,241.6734 Q371.9031,241.45 371.2844,241.45 Q370.5109,241.45 369.8578,241.7594 Q369.2219,242.0688 368.7234,242.7563 Q368.225,243.4438 368.225,244.3891 L368.225,245.4031 Q368.225,246.5375 369.1531,247.2938 Q370.0813,248.05 371.7313,248.05 Q372.7109,248.05 373.3984,247.8266 Q373.7938,247.7063 374.2406,247.3109 Q374.5328,247.0875 374.6875,247.0188 Q374.8422,246.95 375.0313,246.95 Q375.3922,246.95 375.65,247.2422 Q375.925,247.5172 375.925,247.9125 Q375.925,248.2906 375.5469,248.7375 Q374.9969,249.3906 374.1203,249.7516 Q372.9688,250.25 371.5594,250.25 Q369.9094,250.25 368.5859,249.5969 Q367.5203,249.0813 366.7641,247.9641 Q366.025,246.8469 366.025,245.5234 L366.025,244.3203 Q366.025,242.9453 366.6781,241.7422 Q367.3484,240.5391 368.5,239.9031 Q369.6688,239.25 370.975,239.25 Q371.7656,239.25 372.4531,239.525 Q373.1406,239.8 373.725,240.35 Z " fill="#000000"/><text fill="#000000" font-family="sans-serif" font-size="13.2" lengthAdjust="spacing" textLength="41.8" x="394.075" y="249.6012">Station</text><line style="stroke:#A80036;stroke-width:1.6500000000000001;" x1="294.8" x2="499.4" y1="261.8" y2="261.8"/><rect fill="none" height="6.6" style="stroke:#C82930;stroke-width:1.1;" width="6.6" x="302.5" y="270.6"/><text fill="#000000" font-family="sans-serif" font-size="12.1" lengthAdjust="spacing" textLength="150.7" x="315.7" y="278.7608">temperatureSensor : Sensor</text><rect fill="none" height="6.6" style="stroke:#C82930;stroke-width:1.1;" width="6.6" x="302.5" y="285.8195"/><text fill="#000000" font-family="sans-serif" font-size="12.1" lengthAdjust="spacing" textLength="135.3" x="315.7" y="293.9804">pressureSensor : Sensor</text><rect fill="none" height="6.6" style="stroke:#C82930;stroke-width:1.1;" width="6.6" x="302.5" y="301.0391"/><text fill="#000000" font-family="sans-serif" font-size="12.1" lengthAdjust="spacing" textLength="129.8" x="315.7" y="309.1999">humiditySensor : Sensor</text><rect fill="none" height="6.6" style="stroke:#C82930;stroke-width:1.1;" width="6.6" x="302.5" y="316.2586"/><text fill="#000000" font-family="sans-serif" font-size="12.1" lengthAdjust="spacing" textLength="124.3" x="315.7" y="324.4194">altitudeSensor : Sensor</text><rect fill="none" height="6.6" style="stroke:#C82930;stroke-width:1.1;" width="6.6" x="302.5" y="331.4781"/><text fill="#000000" font-family="sans-serif" font-size="12.1" lengthAdjust="spacing" textLength="122.1" x="315.7" y="339.639">observers : Observer[]</text><rect fill="none" height="6.6" style="stroke:#C82930;stroke-width:1.1;" width="6.6" x="302.5" y="346.6977"/><text fill="#000000" font-family="sans-serif" font-size="12.1" lengthAdjust="spacing" textLength="63.8" x="315.7" y="354.8585">state : State</text><line style="stroke:#A80036;stroke-width:1.6500000000000001;" x1="294.8" x2="499.4" y1="361.9172" y2="361.9172"/><ellipse cx="305.8" cy="374.0172" fill="#84BE84" rx="3.3" ry="3.3" style="stroke:#038048;stroke-width:1.1;"/><text fill="#000000" font-family="sans-serif" font-size="12.1" lengthAdjust="spacing" textLength="174.9" x="315.7" y="378.878">attachObserver(Observer) : void</text><ellipse cx="305.8" cy="389.2367" fill="#84BE84" rx="3.3" ry="3.3" style="stroke:#038048;stroke-width:1.1;"/><text fill="#000000" font-family="sans-serif" font-size="12.1" lengthAdjust="spacing" textLength="178.2" x="315.7" y="394.0976">detachObserver(Observer) : void</text><rect fill="#F24D5C" height="6.6" style="stroke:#C82930;stroke-width:1.1;" width="6.6" x="302.5" y="401.1563"/><text fill="#000000" font-family="sans-serif" font-size="12.1" lengthAdjust="spacing" textLength="70.4" x="315.7" y="409.3171">notify() : void</text><rect fill="#F24D5C" height="6.6" style="stroke:#C82930;stroke-width:1.1;" width="6.6" x="302.5" y="416.3758"/><text fill="#000000" font-family="sans-serif" font-size="12.1" lengthAdjust="spacing" textLength="110" x="315.7" y="424.5366">intervalNotify() : void</text><rect fill="#F24D5C" height="6.6" style="stroke:#C82930;stroke-width:1.1;" width="6.6" x="302.5" y="431.5953"/><text fill="#000000" font-family="sans-serif" font-size="12.1" lengthAdjust="spacing" textLength="100.1" x="315.7" y="439.7562">alarmNotify() : void</text><ellipse cx="305.8" cy="450.1148" fill="#84BE84" rx="3.3" ry="3.3" style="stroke:#038048;stroke-width:1.1;"/><text fill="#000000" font-family="sans-serif" font-size="12.1" lengthAdjust="spacing" textLength="90.2" x="315.7" y="454.9757">getState() : State</text><ellipse cx="305.8" cy="465.3344" fill="#84BE84" rx="3.3" ry="3.3" style="stroke:#038048;stroke-width:1.1;"/><text fill="#000000" font-family="sans-serif" font-size="12.1" lengthAdjust="spacing" textLength="90.2" x="315.7" y="470.1952">setState() : State</text><!--MD5=[60d6b92408f98aed8df94d5c6e04aa63]
class State--><rect codeLine="65" fill="#FEFECE" filter="url(#fnk7eh9bkcxrz)" height="122.6844" id="State" style="stroke:#A80036;stroke-width:1.6500000000000001;" width="138.6" x="746.9" y="290.4"/><ellipse cx="781.715" cy="312.5031" fill="#B4A7E5" rx="12.1" ry="12.1" style="stroke:#A80036;stroke-width:1.1;"/><path d="M782.815,309.2031 L782.815,315.8031 L785.015,315.8031 L785.5478,315.8031 L786.115,316.4906 L786.115,316.9031 L786.115,317.3156 L785.5478,318.0031 L785.015,318.0031 L778.415,318.0031 L777.8822,318.0031 L777.315,317.3156 L777.315,316.9031 L777.315,316.4906 L777.8822,315.8031 L778.415,315.8031 L780.615,315.8031 L780.615,309.2031 L778.415,309.2031 L777.8822,309.2031 L777.315,308.5156 L777.315,308.1031 L777.315,307.6906 L777.8822,307.0031 L778.415,307.0031 L785.015,307.0031 L785.5478,307.0031 L786.115,307.6906 L786.115,308.1031 L786.115,308.5156 L785.5478,309.2031 L785.015,309.2031 L782.815,309.2031 Z " fill="#000000"/><text fill="#000000" font-family="sans-serif" font-size="13.2" font-style="italic" lengthAdjust="spacing" textLength="67.1" x="798.985" y="309.6027">«interface»</text><text fill="#000000" font-family="sans-serif" font-size="13.2" font-style="italic" lengthAdjust="spacing" textLength="30.8" x="817.135" y="326.2059">State</text><line style="stroke:#A80036;stroke-width:1.6500000000000001;" x1="748" x2="884.4" y1="334.6063" y2="334.6063"/><line style="stroke:#A80036;stroke-width:1.6500000000000001;" x1="748" x2="884.4" y1="343.4063" y2="343.4063"/><ellipse cx="759" cy="355.5063" fill="#84BE84" rx="3.3" ry="3.3" style="stroke:#038048;stroke-width:1.1;"/><text fill="#000000" font-family="sans-serif" font-size="12.1" lengthAdjust="spacing" textLength="110" x="768.9" y="360.3671">intervalNotify() : void</text><ellipse cx="759" cy="370.7258" fill="#84BE84" rx="3.3" ry="3.3" style="stroke:#038048;stroke-width:1.1;"/><text fill="#000000" font-family="sans-serif" font-size="12.1" lengthAdjust="spacing" textLength="100.1" x="768.9" y="375.5866">alarmNotify() : void</text><ellipse cx="759" cy="385.9453" fill="#84BE84" rx="3.3" ry="3.3" style="stroke:#038048;stroke-width:1.1;"/><text fill="#000000" font-family="sans-serif" font-size="12.1" lengthAdjust="spacing" textLength="75.9" x="768.9" y="390.8062">enable() : void</text><ellipse cx="759" cy="401.1648" fill="#84BE84" rx="3.3" ry="3.3" style="stroke:#038048;stroke-width:1.1;"/><text fill="#000000" font-family="sans-serif" font-size="12.1" lengthAdjust="spacing" textLength="78.1" x="768.9" y="406.0257">disable() : void</text><!--MD5=[25b4bceb0eadb2b23e15a38ac8f3b043]
class EnabledState--><rect codeLine="72" fill="#FEFECE" filter="url(#fnk7eh9bkcxrz)" height="113.6781" id="EnabledState" style="stroke:#A80036;stroke-width:1.6500000000000001;" width="138.6" x="746.9" y="596.75"/><ellipse cx="773.3" cy="614.35" fill="#ADD1B2" rx="12.1" ry="12.1" style="stroke:#A80036;stroke-width:1.1;"/><path d="M775.5,610.5 Q775.7234,609.95 775.9813,609.675 Q776.2391,609.4 776.5313,609.4 Q777.0469,609.4 777.3734,609.7094 Q777.7,610.0188 777.7,610.7406 L777.7,612.4594 Q777.7,613.1813 777.3906,613.4906 Q777.0813,613.8 776.6,613.8 Q776.1703,613.8 775.8953,613.6109 Q775.6203,613.4219 775.5,612.9234 Q775.4484,612.5797 775.2594,612.3906 Q774.9156,612.0297 774.2969,611.8234 Q773.6781,611.6 773.0594,611.6 Q772.2859,611.6 771.6328,611.9094 Q770.9969,612.2188 770.4984,612.9063 Q770,613.5938 770,614.5391 L770,615.5531 Q770,616.6875 770.9281,617.4438 Q771.8563,618.2 773.5063,618.2 Q774.4859,618.2 775.1734,617.9766 Q775.5688,617.8563 776.0156,617.4609 Q776.3078,617.2375 776.4625,617.1688 Q776.6172,617.1 776.8063,617.1 Q777.1672,617.1 777.425,617.3922 Q777.7,617.6672 777.7,618.0625 Q777.7,618.4406 777.3219,618.8875 Q776.7719,619.5406 775.8953,619.9016 Q774.7438,620.4 773.3344,620.4 Q771.6844,620.4 770.3609,619.7469 Q769.2953,619.2313 768.5391,618.1141 Q767.8,616.9969 767.8,615.6734 L767.8,614.4703 Q767.8,613.0953 768.4531,611.8922 Q769.1234,610.6891 770.275,610.0531 Q771.4438,609.4 772.75,609.4 Q773.5406,609.4 774.2281,609.675 Q774.9156,609.95 775.5,610.5 Z " fill="#000000"/><text fill="#000000" font-family="sans-serif" font-size="13.2" lengthAdjust="spacing" textLength="81.4" x="790.9" y="619.7512">EnabledState</text><line style="stroke:#A80036;stroke-width:1.6500000000000001;" x1="748" x2="884.4" y1="631.95" y2="631.95"/><line style="stroke:#A80036;stroke-width:1.6500000000000001;" x1="748" x2="884.4" y1="640.75" y2="640.75"/><ellipse cx="759" cy="652.85" fill="#84BE84" rx="3.3" ry="3.3" style="stroke:#038048;stroke-width:1.1;"/><text fill="#000000" font-family="sans-serif" font-size="12.1" lengthAdjust="spacing" textLength="110" x="768.9" y="657.7108">intervalNotify() : void</text><ellipse cx="759" cy="668.0695" fill="#84BE84" rx="3.3" ry="3.3" style="stroke:#038048;stroke-width:1.1;"/><text fill="#000000" font-family="sans-serif" font-size="12.1" lengthAdjust="spacing" textLength="100.1" x="768.9" y="672.9304">alarmNotify() : void</text><ellipse cx="759" cy="683.2891" fill="#84BE84" rx="3.3" ry="3.3" style="stroke:#038048;stroke-width:1.1;"/><text fill="#000000" font-family="sans-serif" font-size="12.1" lengthAdjust="spacing" textLength="75.9" x="768.9" y="688.1499">enable() : void</text><ellipse cx="759" cy="698.5086" fill="#84BE84" rx="3.3" ry="3.3" style="stroke:#038048;stroke-width:1.1;"/><text fill="#000000" font-family="sans-serif" font-size="12.1" lengthAdjust="spacing" textLength="78.1" x="768.9" y="703.3694">disable() : void</text><!--MD5=[ca54a24f608c0ef8c588f37040609fd4]
class DisabledState--><rect codeLine="79" fill="#FEFECE" filter="url(#fnk7eh9bkcxrz)" height="113.6781" id="DisabledState" style="stroke:#A80036;stroke-width:1.6500000000000001;" width="138.6" x="924" y="596.75"/><ellipse cx="948.42" cy="614.35" fill="#ADD1B2" rx="12.1" ry="12.1" style="stroke:#A80036;stroke-width:1.1;"/><path d="M950.62,610.5 Q950.8434,609.95 951.1013,609.675 Q951.3591,609.4 951.6513,609.4 Q952.1669,609.4 952.4934,609.7094 Q952.82,610.0188 952.82,610.7406 L952.82,612.4594 Q952.82,613.1813 952.5106,613.4906 Q952.2013,613.8 951.72,613.8 Q951.2903,613.8 951.0153,613.6109 Q950.7403,613.4219 950.62,612.9234 Q950.5684,612.5797 950.3794,612.3906 Q950.0356,612.0297 949.4169,611.8234 Q948.7981,611.6 948.1794,611.6 Q947.4059,611.6 946.7528,611.9094 Q946.1169,612.2188 945.6184,612.9063 Q945.12,613.5938 945.12,614.5391 L945.12,615.5531 Q945.12,616.6875 946.0481,617.4438 Q946.9763,618.2 948.6263,618.2 Q949.6059,618.2 950.2934,617.9766 Q950.6888,617.8563 951.1356,617.4609 Q951.4278,617.2375 951.5825,617.1688 Q951.7372,617.1 951.9263,617.1 Q952.2872,617.1 952.545,617.3922 Q952.82,617.6672 952.82,618.0625 Q952.82,618.4406 952.4419,618.8875 Q951.8919,619.5406 951.0153,619.9016 Q949.8638,620.4 948.4544,620.4 Q946.8044,620.4 945.4809,619.7469 Q944.4153,619.2313 943.6591,618.1141 Q942.92,616.9969 942.92,615.6734 L942.92,614.4703 Q942.92,613.0953 943.5731,611.8922 Q944.2434,610.6891 945.395,610.0531 Q946.5638,609.4 947.87,609.4 Q948.6606,609.4 949.3481,609.675 Q950.0356,609.95 950.62,610.5 Z " fill="#000000"/><text fill="#000000" font-family="sans-serif" font-size="13.2" lengthAdjust="spacing" textLength="85.8" x="965.58" y="619.7512">DisabledState</text><line style="stroke:#A80036;stroke-width:1.6500000000000001;" x1="925.1" x2="1061.5" y1="631.95" y2="631.95"/><line style="stroke:#A80036;stroke-width:1.6500000000000001;" x1="925.1" x2="1061.5" y1="640.75" y2="640.75"/><ellipse cx="936.1" cy="652.85" fill="#84BE84" rx="3.3" ry="3.3" style="stroke:#038048;stroke-width:1.1;"/><text fill="#000000" font-family="sans-serif" font-size="12.1" lengthAdjust="spacing" textLength="110" x="946" y="657.7108">intervalNotify() : void</text><ellipse cx="936.1" cy="668.0695" fill="#84BE84" rx="3.3" ry="3.3" style="stroke:#038048;stroke-width:1.1;"/><text fill="#000000" font-family="sans-serif" font-size="12.1" lengthAdjust="spacing" textLength="100.1" x="946" y="672.9304">alarmNotify() : void</text><ellipse cx="936.1" cy="683.2891" fill="#84BE84" rx="3.3" ry="3.3" style="stroke:#038048;stroke-width:1.1;"/><text fill="#000000" font-family="sans-serif" font-size="12.1" lengthAdjust="spacing" textLength="75.9" x="946" y="688.1499">enable() : void</text><ellipse cx="936.1" cy="698.5086" fill="#84BE84" rx="3.3" ry="3.3" style="stroke:#038048;stroke-width:1.1;"/><text fill="#000000" font-family="sans-serif" font-size="12.1" lengthAdjust="spacing" textLength="78.1" x="946" y="703.3694">disable() : void</text><!--MD5=[c45f09c1889a26e5e02063768645d77f]
class DBConnectionPool--><rect codeLine="106" fill="#FEFECE" filter="url(#fnk7eh9bkcxrz)" height="98.4586" id="DBConnectionPool" style="stroke:#A80036;stroke-width:1.6500000000000001;" width="267.3" x="760.65" y="34.65"/><ellipse cx="831.875" cy="52.25" fill="#ADD1B2" rx="12.1" ry="12.1" style="stroke:#A80036;stroke-width:1.1;"/><path d="M834.075,48.4 Q834.2984,47.85 834.5563,47.575 Q834.8141,47.3 835.1063,47.3 Q835.6219,47.3 835.9484,47.6094 Q836.275,47.9188 836.275,48.6406 L836.275,50.3594 Q836.275,51.0813 835.9656,51.3906 Q835.6563,51.7 835.175,51.7 Q834.7453,51.7 834.4703,51.5109 Q834.1953,51.3219 834.075,50.8234 Q834.0234,50.4797 833.8344,50.2906 Q833.4906,49.9297 832.8719,49.7234 Q832.2531,49.5 831.6344,49.5 Q830.8609,49.5 830.2078,49.8094 Q829.5719,50.1188 829.0734,50.8063 Q828.575,51.4938 828.575,52.4391 L828.575,53.4531 Q828.575,54.5875 829.5031,55.3438 Q830.4313,56.1 832.0813,56.1 Q833.0609,56.1 833.7484,55.8766 Q834.1438,55.7563 834.5906,55.3609 Q834.8828,55.1375 835.0375,55.0688 Q835.1922,55 835.3813,55 Q835.7422,55 836,55.2922 Q836.275,55.5672 836.275,55.9625 Q836.275,56.3406 835.8969,56.7875 Q835.3469,57.4406 834.4703,57.8016 Q833.3188,58.3 831.9094,58.3 Q830.2594,58.3 828.9359,57.6469 Q827.8703,57.1313 827.1141,56.0141 Q826.375,54.8969 826.375,53.5734 L826.375,52.3703 Q826.375,50.9953 827.0281,49.7922 Q827.6984,48.5891 828.85,47.9531 Q830.0188,47.3 831.325,47.3 Q832.1156,47.3 832.8031,47.575 Q833.4906,47.85 834.075,48.4 Z " fill="#000000"/><text fill="#000000" font-family="sans-serif" font-size="13.2" lengthAdjust="spacing" textLength="115.5" x="854.425" y="57.6512">DBConnectionPool</text><line style="stroke:#A80036;stroke-width:1.6500000000000001;" x1="761.75" x2="1026.85" y1="69.85" y2="69.85"/><line style="stroke:#A80036;stroke-width:1.6500000000000001;" x1="761.75" x2="1026.85" y1="78.65" y2="78.65"/><ellipse cx="772.75" cy="90.75" fill="#84BE84" rx="3.3" ry="3.3" style="stroke:#038048;stroke-width:1.1;"/><text fill="#000000" font-family="sans-serif" font-size="12.1" lengthAdjust="spacing" textLength="177.1" x="782.65" y="95.6108">getInstance() : DBConnectionPool</text><ellipse cx="772.75" cy="105.9695" fill="#84BE84" rx="3.3" ry="3.3" style="stroke:#038048;stroke-width:1.1;"/><text fill="#000000" font-family="sans-serif" font-size="12.1" lengthAdjust="spacing" textLength="216.7" x="782.65" y="110.8304">acquireReusable() : ReusableConnection</text><ellipse cx="772.75" cy="121.1891" fill="#84BE84" rx="3.3" ry="3.3" style="stroke:#038048;stroke-width:1.1;"/><text fill="#000000" font-family="sans-serif" font-size="12.1" lengthAdjust="spacing" textLength="238.7" x="782.65" y="126.0499">releaseReusable(ReusableConnection) : void</text><!--MD5=[4c0bfb81454545c9a2242de4b34d0adb]
class WebServer--><rect fill="#FEFECE" filter="url(#fnk7eh9bkcxrz)" height="52.8" id="WebServer" style="stroke:#A80036;stroke-width:1.6500000000000001;" width="101.2" x="1067" y="57.75"/><ellipse cx="1083.5" cy="75.35" fill="#ADD1B2" rx="12.1" ry="12.1" style="stroke:#A80036;stroke-width:1.1;"/><path d="M1085.7,71.5 Q1085.9234,70.95 1086.1813,70.675 Q1086.4391,70.4 1086.7313,70.4 Q1087.2469,70.4 1087.5734,70.7094 Q1087.9,71.0188 1087.9,71.7406 L1087.9,73.4594 Q1087.9,74.1813 1087.5906,74.4906 Q1087.2813,74.8 1086.8,74.8 Q1086.3703,74.8 1086.0953,74.6109 Q1085.8203,74.4219 1085.7,73.9234 Q1085.6484,73.5797 1085.4594,73.3906 Q1085.1156,73.0297 1084.4969,72.8234 Q1083.8781,72.6 1083.2594,72.6 Q1082.4859,72.6 1081.8328,72.9094 Q1081.1969,73.2188 1080.6984,73.9063 Q1080.2,74.5938 1080.2,75.5391 L1080.2,76.5531 Q1080.2,77.6875 1081.1281,78.4438 Q1082.0563,79.2 1083.7063,79.2 Q1084.6859,79.2 1085.3734,78.9766 Q1085.7688,78.8563 1086.2156,78.4609 Q1086.5078,78.2375 1086.6625,78.1688 Q1086.8172,78.1 1087.0063,78.1 Q1087.3672,78.1 1087.625,78.3922 Q1087.9,78.6672 1087.9,79.0625 Q1087.9,79.4406 1087.5219,79.8875 Q1086.9719,80.5406 1086.0953,80.9016 Q1084.9438,81.4 1083.5344,81.4 Q1081.8844,81.4 1080.5609,80.7469 Q1079.4953,80.2313 1078.7391,79.1141 Q1078,77.9969 1078,76.6734 L1078,75.4703 Q1078,74.0953 1078.6531,72.8922 Q1079.3234,71.6891 1080.475,71.0531 Q1081.6438,70.4 1082.95,70.4 Q1083.7406,70.4 1084.4281,70.675 Q1085.1156,70.95 1085.7,71.5 Z " fill="#000000"/><text fill="#000000" font-family="sans-serif" font-size="13.2" lengthAdjust="spacing" textLength="66" x="1098.9" y="80.7512">WebServer</text><line style="stroke:#A80036;stroke-width:1.6500000000000001;" x1="1068.1" x2="1167.1" y1="92.95" y2="92.95"/><line style="stroke:#A80036;stroke-width:1.6500000000000001;" x1="1068.1" x2="1167.1" y1="101.75" y2="101.75"/><!--MD5=[e879cffcf2a9f9c0321030257bbe60af]
class ReusableConnection--><rect fill="#FEFECE" filter="url(#fnk7eh9bkcxrz)" height="52.8" id="ReusableConnection" style="stroke:#A80036;stroke-width:1.6500000000000001;" width="163.9" x="924.55" y="325.6"/><ellipse cx="941.05" cy="343.2" fill="#ADD1B2" rx="12.1" ry="12.1" style="stroke:#A80036;stroke-width:1.1;"/><path d="M943.25,339.35 Q943.4734,338.8 943.7313,338.525 Q943.9891,338.25 944.2813,338.25 Q944.7969,338.25 945.1234,338.5594 Q945.45,338.8688 945.45,339.5906 L945.45,341.3094 Q945.45,342.0313 945.1406,342.3406 Q944.8313,342.65 944.35,342.65 Q943.9203,342.65 943.6453,342.4609 Q943.3703,342.2719 943.25,341.7734 Q943.1984,341.4297 943.0094,341.2406 Q942.6656,340.8797 942.0469,340.6734 Q941.4281,340.45 940.8094,340.45 Q940.0359,340.45 939.3828,340.7594 Q938.7469,341.0688 938.2484,341.7563 Q937.75,342.4438 937.75,343.3891 L937.75,344.4031 Q937.75,345.5375 938.6781,346.2938 Q939.6063,347.05 941.2563,347.05 Q942.2359,347.05 942.9234,346.8266 Q943.3188,346.7063 943.7656,346.3109 Q944.0578,346.0875 944.2125,346.0188 Q944.3672,345.95 944.5563,345.95 Q944.9172,345.95 945.175,346.2422 Q945.45,346.5172 945.45,346.9125 Q945.45,347.2906 945.0719,347.7375 Q944.5219,348.3906 943.6453,348.7516 Q942.4938,349.25 941.0844,349.25 Q939.4344,349.25 938.1109,348.5969 Q937.0453,348.0813 936.2891,346.9641 Q935.55,345.8469 935.55,344.5234 L935.55,343.3203 Q935.55,341.9453 936.2031,340.7422 Q936.8734,339.5391 938.025,338.9031 Q939.1938,338.25 940.5,338.25 Q941.2906,338.25 941.9781,338.525 Q942.6656,338.8 943.25,339.35 Z " fill="#000000"/><text fill="#000000" font-family="sans-serif" font-size="13.2" lengthAdjust="spacing" textLength="128.7" x="956.45" y="348.6012">ReusableConnection</text><line style="stroke:#A80036;stroke-width:1.6500000000000001;" x1="925.65" x2="1087.35" y1="360.8" y2="360.8"/><line style="stroke:#A80036;stroke-width:1.6500000000000001;" x1="925.65" x2="1087.35" y1="369.6" y2="369.6"/><!--MD5=[7e20e022571e30ec1001cf6eabd7f3e2]
class Model--><rect codeLine="118" fill="#FEFECE" filter="url(#fnk7eh9bkcxrz)" height="98.4586" id="Model" style="stroke:#A80036;stroke-width:1.6500000000000001;" width="134.2" x="1206.7" y="34.65"/><ellipse cx="1251.415" cy="52.25" fill="#ADD1B2" rx="12.1" ry="12.1" style="stroke:#A80036;stroke-width:1.1;"/><path d="M1253.615,48.4 Q1253.8384,47.85 1254.0963,47.575 Q1254.3541,47.3 1254.6463,47.3 Q1255.1619,47.3 1255.4884,47.6094 Q1255.815,47.9188 1255.815,48.6406 L1255.815,50.3594 Q1255.815,51.0813 1255.5056,51.3906 Q1255.1963,51.7 1254.715,51.7 Q1254.2853,51.7 1254.0103,51.5109 Q1253.7353,51.3219 1253.615,50.8234 Q1253.5634,50.4797 1253.3744,50.2906 Q1253.0306,49.9297 1252.4119,49.7234 Q1251.7931,49.5 1251.1744,49.5 Q1250.4009,49.5 1249.7478,49.8094 Q1249.1119,50.1188 1248.6134,50.8063 Q1248.115,51.4938 1248.115,52.4391 L1248.115,53.4531 Q1248.115,54.5875 1249.0431,55.3438 Q1249.9713,56.1 1251.6213,56.1 Q1252.6009,56.1 1253.2884,55.8766 Q1253.6838,55.7563 1254.1306,55.3609 Q1254.4228,55.1375 1254.5775,55.0688 Q1254.7322,55 1254.9213,55 Q1255.2822,55 1255.54,55.2922 Q1255.815,55.5672 1255.815,55.9625 Q1255.815,56.3406 1255.4369,56.7875 Q1254.8869,57.4406 1254.0103,57.8016 Q1252.8588,58.3 1251.4494,58.3 Q1249.7994,58.3 1248.4759,57.6469 Q1247.4103,57.1313 1246.6541,56.0141 Q1245.915,54.8969 1245.915,53.5734 L1245.915,52.3703 Q1245.915,50.9953 1246.5681,49.7922 Q1247.2384,48.5891 1248.39,47.9531 Q1249.5588,47.3 1250.865,47.3 Q1251.6556,47.3 1252.3431,47.575 Q1253.0306,47.85 1253.615,48.4 Z " fill="#000000"/><text fill="#000000" font-family="sans-serif" font-size="13.2" lengthAdjust="spacing" textLength="36.3" x="1273.085" y="57.6512">Model</text><line style="stroke:#A80036;stroke-width:1.6500000000000001;" x1="1207.8" x2="1339.8" y1="69.85" y2="69.85"/><line style="stroke:#A80036;stroke-width:1.6500000000000001;" x1="1207.8" x2="1339.8" y1="78.65" y2="78.65"/><ellipse cx="1218.8" cy="90.75" fill="#84BE84" rx="3.3" ry="3.3" style="stroke:#038048;stroke-width:1.1;"/><text fill="#000000" font-family="sans-serif" font-size="12.1" lengthAdjust="spacing" textLength="102.3" x="1228.7" y="95.6108">attach(View) : void</text><ellipse cx="1218.8" cy="105.9695" fill="#84BE84" rx="3.3" ry="3.3" style="stroke:#038048;stroke-width:1.1;"/><text fill="#000000" font-family="sans-serif" font-size="12.1" lengthAdjust="spacing" textLength="105.6" x="1228.7" y="110.8304">detach(View) : void</text><ellipse cx="1218.8" cy="121.1891" fill="#84BE84" rx="3.3" ry="3.3" style="stroke:#038048;stroke-width:1.1;"/><text fill="#000000" font-family="sans-serif" font-size="12.1" lengthAdjust="spacing" textLength="38.5" x="1228.7" y="126.0499">notify()</text><!--MD5=[c045e12321b83266d36d22b9096c24ea]
class View--><rect codeLine="124" fill="#FEFECE" filter="url(#fnk7eh9bkcxrz)" height="83.2391" id="View" style="stroke:#A80036;stroke-width:1.6500000000000001;" width="156.2" x="1379.4" y="42.35"/><ellipse cx="1438.525" cy="59.95" fill="#ADD1B2" rx="12.1" ry="12.1" style="stroke:#A80036;stroke-width:1.1;"/><path d="M1440.725,56.1 Q1440.9484,55.55 1441.2063,55.275 Q1441.4641,55 1441.7563,55 Q1442.2719,55 1442.5984,55.3094 Q1442.925,55.6188 1442.925,56.3406 L1442.925,58.0594 Q1442.925,58.7813 1442.6156,59.0906 Q1442.3063,59.4 1441.825,59.4 Q1441.3953,59.4 1441.1203,59.2109 Q1440.8453,59.0219 1440.725,58.5234 Q1440.6734,58.1797 1440.4844,57.9906 Q1440.1406,57.6297 1439.5219,57.4234 Q1438.9031,57.2 1438.2844,57.2 Q1437.5109,57.2 1436.8578,57.5094 Q1436.2219,57.8188 1435.7234,58.5063 Q1435.225,59.1938 1435.225,60.1391 L1435.225,61.1531 Q1435.225,62.2875 1436.1531,63.0438 Q1437.0813,63.8 1438.7313,63.8 Q1439.7109,63.8 1440.3984,63.5766 Q1440.7938,63.4563 1441.2406,63.0609 Q1441.5328,62.8375 1441.6875,62.7688 Q1441.8422,62.7 1442.0313,62.7 Q1442.3922,62.7 1442.65,62.9922 Q1442.925,63.2672 1442.925,63.6625 Q1442.925,64.0406 1442.5469,64.4875 Q1441.9969,65.1406 1441.1203,65.5016 Q1439.9688,66 1438.5594,66 Q1436.9094,66 1435.5859,65.3469 Q1434.5203,64.8313 1433.7641,63.7141 Q1433.025,62.5969 1433.025,61.2734 L1433.025,60.0703 Q1433.025,58.6953 1433.6781,57.4922 Q1434.3484,56.2891 1435.5,55.6531 Q1436.6688,55 1437.975,55 Q1438.7656,55 1439.4531,55.275 Q1440.1406,55.55 1440.725,56.1 Z " fill="#000000"/><text fill="#000000" font-family="sans-serif" font-size="13.2" lengthAdjust="spacing" textLength="28.6" x="1461.075" y="65.3512">View</text><line style="stroke:#A80036;stroke-width:1.6500000000000001;" x1="1380.5" x2="1534.5" y1="77.55" y2="77.55"/><line style="stroke:#A80036;stroke-width:1.6500000000000001;" x1="1380.5" x2="1534.5" y1="86.35" y2="86.35"/><ellipse cx="1391.5" cy="98.45" fill="#84BE84" rx="3.3" ry="3.3" style="stroke:#038048;stroke-width:1.1;"/><text fill="#000000" font-family="sans-serif" font-size="12.1" lengthAdjust="spacing" textLength="77" x="1401.4" y="103.3108">update() : void</text><ellipse cx="1391.5" cy="113.6695" fill="#84BE84" rx="3.3" ry="3.3" style="stroke:#038048;stroke-width:1.1;"/><text fill="#000000" font-family="sans-serif" font-size="12.1" lengthAdjust="spacing" textLength="127.6" x="1401.4" y="118.5304">contextInterface() : void</text><!--MD5=[1d7ba1c7002d54515419844fbd155368]
class Controller--><rect codeLine="129" fill="#FEFECE" filter="url(#fnk7eh9bkcxrz)" height="68.0195" id="Controller" style="stroke:#A80036;stroke-width:1.6500000000000001;" width="163.9" x="1574.65" y="50.05"/><ellipse cx="1622.335" cy="67.65" fill="#ADD1B2" rx="12.1" ry="12.1" style="stroke:#A80036;stroke-width:1.1;"/><path d="M1624.535,63.8 Q1624.7584,63.25 1625.0163,62.975 Q1625.2741,62.7 1625.5663,62.7 Q1626.0819,62.7 1626.4084,63.0094 Q1626.735,63.3188 1626.735,64.0406 L1626.735,65.7594 Q1626.735,66.4813 1626.4256,66.7906 Q1626.1163,67.1 1625.635,67.1 Q1625.2053,67.1 1624.9303,66.9109 Q1624.6553,66.7219 1624.535,66.2234 Q1624.4834,65.8797 1624.2944,65.6906 Q1623.9506,65.3297 1623.3319,65.1234 Q1622.7131,64.9 1622.0944,64.9 Q1621.3209,64.9 1620.6678,65.2094 Q1620.0319,65.5188 1619.5334,66.2063 Q1619.035,66.8938 1619.035,67.8391 L1619.035,68.8531 Q1619.035,69.9875 1619.9631,70.7438 Q1620.8913,71.5 1622.5413,71.5 Q1623.5209,71.5 1624.2084,71.2766 Q1624.6038,71.1563 1625.0506,70.7609 Q1625.3428,70.5375 1625.4975,70.4688 Q1625.6522,70.4 1625.8413,70.4 Q1626.2022,70.4 1626.46,70.6922 Q1626.735,70.9672 1626.735,71.3625 Q1626.735,71.7406 1626.3569,72.1875 Q1625.8069,72.8406 1624.9303,73.2016 Q1623.7788,73.7 1622.3694,73.7 Q1620.7194,73.7 1619.3959,73.0469 Q1618.3303,72.5313 1617.5741,71.4141 Q1616.835,70.2969 1616.835,68.9734 L1616.835,67.7703 Q1616.835,66.3953 1617.4881,65.1922 Q1618.1584,63.9891 1619.31,63.3531 Q1620.4788,62.7 1621.785,62.7 Q1622.5756,62.7 1623.2631,62.975 Q1623.9506,63.25 1624.535,63.8 Z " fill="#000000"/><text fill="#000000" font-family="sans-serif" font-size="13.2" lengthAdjust="spacing" textLength="59.4" x="1644.665" y="73.0512">Controller</text><line style="stroke:#A80036;stroke-width:1.6500000000000001;" x1="1575.75" x2="1737.45" y1="85.25" y2="85.25"/><line style="stroke:#A80036;stroke-width:1.6500000000000001;" x1="1575.75" x2="1737.45" y1="94.05" y2="94.05"/><ellipse cx="1586.75" cy="106.15" fill="#84BE84" rx="3.3" ry="3.3" style="stroke:#038048;stroke-width:1.1;"/><text fill="#000000" font-family="sans-serif" font-size="12.1" lengthAdjust="spacing" textLength="135.3" x="1596.65" y="111.0108">algorithmInterface() : void</text><!--MD5=[c2d105e52fbb731d58293327cfa51995]
class UserModel--><rect codeLine="133" fill="#FEFECE" filter="url(#fnk7eh9bkcxrz)" height="98.4586" id="UserModel" style="stroke:#A80036;stroke-width:1.6500000000000001;" width="138.6" x="1388.2" y="603.9"/><ellipse cx="1421.53" cy="621.5" fill="#ADD1B2" rx="12.1" ry="12.1" style="stroke:#A80036;stroke-width:1.1;"/><path d="M1423.73,617.65 Q1423.9534,617.1 1424.2113,616.825 Q1424.4691,616.55 1424.7613,616.55 Q1425.2769,616.55 1425.6034,616.8594 Q1425.93,617.1688 1425.93,617.8906 L1425.93,619.6094 Q1425.93,620.3313 1425.6206,620.6406 Q1425.3113,620.95 1424.83,620.95 Q1424.4003,620.95 1424.1253,620.7609 Q1423.8503,620.5719 1423.73,620.0734 Q1423.6784,619.7297 1423.4894,619.5406 Q1423.1456,619.1797 1422.5269,618.9734 Q1421.9081,618.75 1421.2894,618.75 Q1420.5159,618.75 1419.8628,619.0594 Q1419.2269,619.3688 1418.7284,620.0563 Q1418.23,620.7438 1418.23,621.6891 L1418.23,622.7031 Q1418.23,623.8375 1419.1581,624.5938 Q1420.0863,625.35 1421.7363,625.35 Q1422.7159,625.35 1423.4034,625.1266 Q1423.7988,625.0063 1424.2456,624.6109 Q1424.5378,624.3875 1424.6925,624.3188 Q1424.8472,624.25 1425.0363,624.25 Q1425.3972,624.25 1425.655,624.5422 Q1425.93,624.8172 1425.93,625.2125 Q1425.93,625.5906 1425.5519,626.0375 Q1425.0019,626.6906 1424.1253,627.0516 Q1422.9738,627.55 1421.5644,627.55 Q1419.9144,627.55 1418.5909,626.8969 Q1417.5253,626.3813 1416.7691,625.2641 Q1416.03,624.1469 1416.03,622.8234 L1416.03,621.6203 Q1416.03,620.2453 1416.6831,619.0422 Q1417.3534,617.8391 1418.505,617.2031 Q1419.6738,616.55 1420.98,616.55 Q1421.7706,616.55 1422.4581,616.825 Q1423.1456,617.1 1423.73,617.65 Z " fill="#000000"/><text fill="#000000" font-family="sans-serif" font-size="13.2" lengthAdjust="spacing" textLength="66" x="1440.67" y="626.9012">UserModel</text><line style="stroke:#A80036;stroke-width:1.6500000000000001;" x1="1389.3" x2="1525.7" y1="639.1" y2="639.1"/><rect fill="none" height="6.6" style="stroke:#C82930;stroke-width:1.1;" width="6.6" x="1397" y="647.9"/><text fill="#000000" font-family="sans-serif" font-size="12.1" lengthAdjust="spacing" textLength="86.9" x="1410.2" y="656.0608">userState : User</text><line style="stroke:#A80036;stroke-width:1.6500000000000001;" x1="1389.3" x2="1525.7" y1="663.1195" y2="663.1195"/><ellipse cx="1400.3" cy="675.2195" fill="#84BE84" rx="3.3" ry="3.3" style="stroke:#038048;stroke-width:1.1;"/><text fill="#000000" font-family="sans-serif" font-size="12.1" lengthAdjust="spacing" textLength="88" x="1410.2" y="680.0804">getState() : User</text><ellipse cx="1400.3" cy="690.4391" fill="#84BE84" rx="3.3" ry="3.3" style="stroke:#038048;stroke-width:1.1;"/><text fill="#000000" font-family="sans-serif" font-size="12.1" lengthAdjust="spacing" textLength="110" x="1410.2" y="695.2999">setState(User) : void</text><!--MD5=[85c34399a5c698d8ba010b21b979f516]
class UserView--><rect codeLine="139" fill="#FEFECE" filter="url(#fnk7eh9bkcxrz)" height="68.0195" id="UserView" style="stroke:#A80036;stroke-width:1.6500000000000001;" width="105.6" x="1404.7" y="317.9"/><ellipse cx="1426.645" cy="335.5" fill="#ADD1B2" rx="12.1" ry="12.1" style="stroke:#A80036;stroke-width:1.1;"/><path d="M1428.845,331.65 Q1429.0684,331.1 1429.3263,330.825 Q1429.5841,330.55 1429.8763,330.55 Q1430.3919,330.55 1430.7184,330.8594 Q1431.045,331.1688 1431.045,331.8906 L1431.045,333.6094 Q1431.045,334.3313 1430.7356,334.6406 Q1430.4263,334.95 1429.945,334.95 Q1429.5153,334.95 1429.2403,334.7609 Q1428.9653,334.5719 1428.845,334.0734 Q1428.7934,333.7297 1428.6044,333.5406 Q1428.2606,333.1797 1427.6419,332.9734 Q1427.0231,332.75 1426.4044,332.75 Q1425.6309,332.75 1424.9778,333.0594 Q1424.3419,333.3688 1423.8434,334.0563 Q1423.345,334.7438 1423.345,335.6891 L1423.345,336.7031 Q1423.345,337.8375 1424.2731,338.5938 Q1425.2013,339.35 1426.8513,339.35 Q1427.8309,339.35 1428.5184,339.1266 Q1428.9138,339.0063 1429.3606,338.6109 Q1429.6528,338.3875 1429.8075,338.3188 Q1429.9622,338.25 1430.1513,338.25 Q1430.5122,338.25 1430.77,338.5422 Q1431.045,338.8172 1431.045,339.2125 Q1431.045,339.5906 1430.6669,340.0375 Q1430.1169,340.6906 1429.2403,341.0516 Q1428.0888,341.55 1426.6794,341.55 Q1425.0294,341.55 1423.7059,340.8969 Q1422.6403,340.3813 1421.8841,339.2641 Q1421.145,338.1469 1421.145,336.8234 L1421.145,335.6203 Q1421.145,334.2453 1421.7981,333.0422 Q1422.4684,331.8391 1423.62,331.2031 Q1424.7888,330.55 1426.095,330.55 Q1426.8856,330.55 1427.5731,330.825 Q1428.2606,331.1 1428.845,331.65 Z " fill="#000000"/><text fill="#000000" font-family="sans-serif" font-size="13.2" lengthAdjust="spacing" textLength="58.3" x="1443.255" y="340.9012">UserView</text><line style="stroke:#A80036;stroke-width:1.6500000000000001;" x1="1405.8" x2="1509.2" y1="353.1" y2="353.1"/><line style="stroke:#A80036;stroke-width:1.6500000000000001;" x1="1405.8" x2="1509.2" y1="361.9" y2="361.9"/><ellipse cx="1416.8" cy="374" fill="#84BE84" rx="3.3" ry="3.3" style="stroke:#038048;stroke-width:1.1;"/><text fill="#000000" font-family="sans-serif" font-size="12.1" lengthAdjust="spacing" textLength="77" x="1426.7" y="378.8608">update() : void</text><!--MD5=[29f97d496cbdc4ec81664c6d94dc9bf6]
class UserController--><rect codeLine="143" fill="#FEFECE" filter="url(#fnk7eh9bkcxrz)" height="68.0195" id="UserController" style="stroke:#A80036;stroke-width:1.6500000000000001;" width="163.9" x="1566.95" y="619.3"/><ellipse cx="1601.27" cy="636.9" fill="#ADD1B2" rx="12.1" ry="12.1" style="stroke:#A80036;stroke-width:1.1;"/><path d="M1603.47,633.05 Q1603.6934,632.5 1603.9513,632.225 Q1604.2091,631.95 1604.5013,631.95 Q1605.0169,631.95 1605.3434,632.2594 Q1605.67,632.5688 1605.67,633.2906 L1605.67,635.0094 Q1605.67,635.7313 1605.3606,636.0406 Q1605.0513,636.35 1604.57,636.35 Q1604.1403,636.35 1603.8653,636.1609 Q1603.5903,635.9719 1603.47,635.4734 Q1603.4184,635.1297 1603.2294,634.9406 Q1602.8856,634.5797 1602.2669,634.3734 Q1601.6481,634.15 1601.0294,634.15 Q1600.2559,634.15 1599.6028,634.4594 Q1598.9669,634.7688 1598.4684,635.4563 Q1597.97,636.1438 1597.97,637.0891 L1597.97,638.1031 Q1597.97,639.2375 1598.8981,639.9938 Q1599.8263,640.75 1601.4763,640.75 Q1602.4559,640.75 1603.1434,640.5266 Q1603.5388,640.4063 1603.9856,640.0109 Q1604.2778,639.7875 1604.4325,639.7188 Q1604.5872,639.65 1604.7763,639.65 Q1605.1372,639.65 1605.395,639.9422 Q1605.67,640.2172 1605.67,640.6125 Q1605.67,640.9906 1605.2919,641.4375 Q1604.7419,642.0906 1603.8653,642.4516 Q1602.7138,642.95 1601.3044,642.95 Q1599.6544,642.95 1598.3309,642.2969 Q1597.2653,641.7813 1596.5091,640.6641 Q1595.77,639.5469 1595.77,638.2234 L1595.77,637.0203 Q1595.77,635.6453 1596.4231,634.4422 Q1597.0934,633.2391 1598.245,632.6031 Q1599.4138,631.95 1600.72,631.95 Q1601.5106,631.95 1602.1981,632.225 Q1602.8856,632.5 1603.47,633.05 Z " fill="#000000"/><text fill="#000000" font-family="sans-serif" font-size="13.2" lengthAdjust="spacing" textLength="89.1" x="1620.63" y="642.3012">UserController</text><line style="stroke:#A80036;stroke-width:1.6500000000000001;" x1="1568.05" x2="1729.75" y1="654.5" y2="654.5"/><line style="stroke:#A80036;stroke-width:1.6500000000000001;" x1="1568.05" x2="1729.75" y1="663.3" y2="663.3"/><ellipse cx="1579.05" cy="675.4" fill="#84BE84" rx="3.3" ry="3.3" style="stroke:#038048;stroke-width:1.1;"/><text fill="#000000" font-family="sans-serif" font-size="12.1" lengthAdjust="spacing" textLength="135.3" x="1588.95" y="680.2608">algorithmInterface() : void</text><!--MD5=[c02241e523a3f038ffffa23f511aeb38]
class HTMLComponent--><rect codeLine="157" fill="#FEFECE" filter="url(#fnk7eh9bkcxrz)" height="153.1234" id="HTMLComponent" style="stroke:#A80036;stroke-width:1.6500000000000001;" width="227.7" x="1887.05" y="7.7"/><ellipse cx="1942.875" cy="29.8031" fill="#A9DCDF" rx="12.1" ry="12.1" style="stroke:#A80036;stroke-width:1.1;"/><path d="M1944.8,31.4531 L1941.1734,31.4531 L1940.6922,32.5531 L1940.6922,32.5531 L1941.2078,32.5531 L1941.775,33.2406 L1941.775,33.6531 L1941.775,34.0656 L1941.2078,34.7531 L1940.6922,34.7531 L1938.6125,34.7531 L1937.9422,34.7531 L1937.375,34.0656 L1937.375,33.6531 L1937.375,33.2406 L1937.9422,32.5531 L1938.6125,32.5531 L1941.1563,25.9531 L1940.1938,25.9531 L1939.0422,25.9531 L1938.475,25.2656 L1938.475,24.8531 L1938.475,24.4406 L1939.0422,23.7531 L1940.1938,23.7531 L1944.2328,23.7531 L1947.1891,32.5531 L1947.8078,32.5531 L1947.8078,32.5531 L1948.375,33.2406 L1948.375,33.6531 L1948.375,34.0656 L1947.8078,34.7531 L1947.1891,34.7531 L1945.1094,34.7531 L1944.5422,34.7531 L1943.975,34.0656 L1943.975,33.6531 L1943.975,33.2406 L1944.5422,32.5531 L1945.1094,32.5531 L1945.1094,32.5531 L1944.8,31.4531 Z M1944.1984,29.2531 L1942.875,25.3172 L1941.7406,29.2531 L1944.1984,29.2531 Z " fill="#000000"/><text fill="#000000" font-family="sans-serif" font-size="13.2" font-style="italic" lengthAdjust="spacing" textLength="63.8" x="1986.875" y="26.9027">«abstract»</text><text fill="#000000" font-family="sans-serif" font-size="13.2" font-style="italic" lengthAdjust="spacing" textLength="106.7" x="1965.425" y="43.5059">HTMLComponent</text><line style="stroke:#A80036;stroke-width:1.6500000000000001;" x1="1888.15" x2="2113.65" y1="51.9063" y2="51.9063"/><rect fill="none" height="6.6" style="stroke:#C82930;stroke-width:1.1;" width="6.6" x="1895.85" y="60.7063"/><text fill="#000000" font-family="sans-serif" font-size="12.1" lengthAdjust="spacing" textLength="60.5" x="1909.05" y="68.8671">text : String</text><line style="stroke:#A80036;stroke-width:1.6500000000000001;" x1="1888.15" x2="2113.65" y1="75.9258" y2="75.9258"/><ellipse cx="1899.15" cy="88.0258" fill="#84BE84" rx="3.3" ry="3.3" style="stroke:#038048;stroke-width:1.1;"/><text fill="#000000" font-family="sans-serif" font-size="12.1" lengthAdjust="spacing" textLength="89.1" x="1909.05" y="92.8866">getText() : String</text><ellipse cx="1899.15" cy="103.2453" fill="#84BE84" rx="3.3" ry="3.3" style="stroke:#038048;stroke-width:1.1;"/><text fill="#000000" font-family="sans-serif" font-size="12.1" lengthAdjust="spacing" textLength="111.1" x="1909.05" y="108.1062">setText(String) : void</text><ellipse cx="1899.15" cy="118.4648" fill="#84BE84" rx="3.3" ry="3.3" style="stroke:#038048;stroke-width:1.1;"/><text fill="#000000" font-family="sans-serif" font-size="12.1" lengthAdjust="spacing" textLength="179.3" x="1909.05" y="123.3257">addComponent(Component) : void</text><ellipse cx="1899.15" cy="133.6844" fill="#84BE84" rx="3.3" ry="3.3" style="stroke:#038048;stroke-width:1.1;"/><text fill="#000000" font-family="sans-serif" font-size="12.1" lengthAdjust="spacing" textLength="199.1" x="1909.05" y="138.5452">removeComponent(Component) : void</text><ellipse cx="1899.15" cy="148.9039" fill="#84BE84" rx="3.3" ry="3.3" style="stroke:#038048;stroke-width:1.1;"/><text fill="#000000" font-family="sans-serif" font-size="12.1" lengthAdjust="spacing" textLength="132" x="1909.05" y="153.7647">getChild(int) : Component</text><!--MD5=[423f30ef272975c7507b6970449c428c]
class HTMLLeaf--><rect codeLine="166" fill="#FEFECE" filter="url(#fnk7eh9bkcxrz)" height="83.2391" id="HTMLLeaf" style="stroke:#A80036;stroke-width:1.6500000000000001;" width="139.7" x="1708.85" y="310.2"/><ellipse cx="1744.655" cy="327.8" fill="#ADD1B2" rx="12.1" ry="12.1" style="stroke:#A80036;stroke-width:1.1;"/><path d="M1746.855,323.95 Q1747.0784,323.4 1747.3363,323.125 Q1747.5941,322.85 1747.8863,322.85 Q1748.4019,322.85 1748.7284,323.1594 Q1749.055,323.4688 1749.055,324.1906 L1749.055,325.9094 Q1749.055,326.6313 1748.7456,326.9406 Q1748.4363,327.25 1747.955,327.25 Q1747.5253,327.25 1747.2503,327.0609 Q1746.9753,326.8719 1746.855,326.3734 Q1746.8034,326.0297 1746.6144,325.8406 Q1746.2706,325.4797 1745.6519,325.2734 Q1745.0331,325.05 1744.4144,325.05 Q1743.6409,325.05 1742.9878,325.3594 Q1742.3519,325.6688 1741.8534,326.3563 Q1741.355,327.0438 1741.355,327.9891 L1741.355,329.0031 Q1741.355,330.1375 1742.2831,330.8938 Q1743.2113,331.65 1744.8613,331.65 Q1745.8409,331.65 1746.5284,331.4266 Q1746.9238,331.3063 1747.3706,330.9109 Q1747.6628,330.6875 1747.8175,330.6188 Q1747.9722,330.55 1748.1613,330.55 Q1748.5222,330.55 1748.78,330.8422 Q1749.055,331.1172 1749.055,331.5125 Q1749.055,331.8906 1748.6769,332.3375 Q1748.1269,332.9906 1747.2503,333.3516 Q1746.0988,333.85 1744.6894,333.85 Q1743.0394,333.85 1741.7159,333.1969 Q1740.6503,332.6813 1739.8941,331.5641 Q1739.155,330.4469 1739.155,329.1234 L1739.155,327.9203 Q1739.155,326.5453 1739.8081,325.3422 Q1740.4784,324.1391 1741.63,323.5031 Q1742.7988,322.85 1744.105,322.85 Q1744.8956,322.85 1745.5831,323.125 Q1746.2706,323.4 1746.855,323.95 Z " fill="#000000"/><text fill="#000000" font-family="sans-serif" font-size="13.2" lengthAdjust="spacing" textLength="61.6" x="1764.345" y="333.2012">HTMLLeaf</text><line style="stroke:#A80036;stroke-width:1.6500000000000001;" x1="1709.95" x2="1847.45" y1="345.4" y2="345.4"/><line style="stroke:#A80036;stroke-width:1.6500000000000001;" x1="1709.95" x2="1847.45" y1="354.2" y2="354.2"/><ellipse cx="1720.95" cy="366.3" fill="#84BE84" rx="3.3" ry="3.3" style="stroke:#038048;stroke-width:1.1;"/><text fill="#000000" font-family="sans-serif" font-size="12.1" lengthAdjust="spacing" textLength="89.1" x="1730.85" y="371.1608">getText() : String</text><ellipse cx="1720.95" cy="381.5195" fill="#84BE84" rx="3.3" ry="3.3" style="stroke:#038048;stroke-width:1.1;"/><text fill="#000000" font-family="sans-serif" font-size="12.1" lengthAdjust="spacing" textLength="111.1" x="1730.85" y="386.3804">setText(String) : void</text><!--MD5=[3b5a6be24f79b68356919e0770eb5f30]
class HTMLComposite--><rect codeLine="171" fill="#FEFECE" filter="url(#fnk7eh9bkcxrz)" height="128.8977" id="HTMLComposite" style="stroke:#A80036;stroke-width:1.6500000000000001;" width="227.7" x="1887.05" y="287.65"/><ellipse cx="1945.075" cy="305.25" fill="#ADD1B2" rx="12.1" ry="12.1" style="stroke:#A80036;stroke-width:1.1;"/><path d="M1947.275,301.4 Q1947.4984,300.85 1947.7563,300.575 Q1948.0141,300.3 1948.3063,300.3 Q1948.8219,300.3 1949.1484,300.6094 Q1949.475,300.9188 1949.475,301.6406 L1949.475,303.3594 Q1949.475,304.0813 1949.1656,304.3906 Q1948.8563,304.7 1948.375,304.7 Q1947.9453,304.7 1947.6703,304.5109 Q1947.3953,304.3219 1947.275,303.8234 Q1947.2234,303.4797 1947.0344,303.2906 Q1946.6906,302.9297 1946.0719,302.7234 Q1945.4531,302.5 1944.8344,302.5 Q1944.0609,302.5 1943.4078,302.8094 Q1942.7719,303.1188 1942.2734,303.8063 Q1941.775,304.4938 1941.775,305.4391 L1941.775,306.4531 Q1941.775,307.5875 1942.7031,308.3438 Q1943.6313,309.1 1945.2813,309.1 Q1946.2609,309.1 1946.9484,308.8766 Q1947.3438,308.7563 1947.7906,308.3609 Q1948.0828,308.1375 1948.2375,308.0688 Q1948.3922,308 1948.5813,308 Q1948.9422,308 1949.2,308.2922 Q1949.475,308.5672 1949.475,308.9625 Q1949.475,309.3406 1949.0969,309.7875 Q1948.5469,310.4406 1947.6703,310.8016 Q1946.5188,311.3 1945.1094,311.3 Q1943.4594,311.3 1942.1359,310.6469 Q1941.0703,310.1313 1940.3141,309.0141 Q1939.575,307.8969 1939.575,306.5734 L1939.575,305.3703 Q1939.575,303.9953 1940.2281,302.7922 Q1940.8984,301.5891 1942.05,300.9531 Q1943.2188,300.3 1944.525,300.3 Q1945.3156,300.3 1946.0031,300.575 Q1946.6906,300.85 1947.275,301.4 Z " fill="#000000"/><text fill="#000000" font-family="sans-serif" font-size="13.2" lengthAdjust="spacing" textLength="102.3" x="1967.625" y="310.6512">HTMLComposite</text><line style="stroke:#A80036;stroke-width:1.6500000000000001;" x1="1888.15" x2="2113.65" y1="322.85" y2="322.85"/><line style="stroke:#A80036;stroke-width:1.6500000000000001;" x1="1888.15" x2="2113.65" y1="331.65" y2="331.65"/><ellipse cx="1899.15" cy="343.75" fill="#84BE84" rx="3.3" ry="3.3" style="stroke:#038048;stroke-width:1.1;"/><text fill="#000000" font-family="sans-serif" font-size="12.1" lengthAdjust="spacing" textLength="89.1" x="1909.05" y="348.6108">getText() : String</text><ellipse cx="1899.15" cy="358.9695" fill="#84BE84" rx="3.3" ry="3.3" style="stroke:#038048;stroke-width:1.1;"/><text fill="#000000" font-family="sans-serif" font-size="12.1" lengthAdjust="spacing" textLength="111.1" x="1909.05" y="363.8304">setText(String) : void</text><ellipse cx="1899.15" cy="374.1891" fill="#84BE84" rx="3.3" ry="3.3" style="stroke:#038048;stroke-width:1.1;"/><text fill="#000000" font-family="sans-serif" font-size="12.1" lengthAdjust="spacing" textLength="179.3" x="1909.05" y="379.0499">addComponent(Component) : void</text><ellipse cx="1899.15" cy="389.4086" fill="#84BE84" rx="3.3" ry="3.3" style="stroke:#038048;stroke-width:1.1;"/><text fill="#000000" font-family="sans-serif" font-size="12.1" lengthAdjust="spacing" textLength="199.1" x="1909.05" y="394.2694">removeComponent(Component) : void</text><ellipse cx="1899.15" cy="404.6281" fill="#84BE84" rx="3.3" ry="3.3" style="stroke:#038048;stroke-width:1.1;"/><text fill="#000000" font-family="sans-serif" font-size="12.1" lengthAdjust="spacing" textLength="132" x="1909.05" y="409.489">getChild(int) : Component</text><!--MD5=[ed6624c6556d5e7b1bd23032162d20b7]
class Client--><rect fill="#FEFECE" filter="url(#fnk7eh9bkcxrz)" height="52.8" id="Client" style="stroke:#A80036;stroke-width:1.6500000000000001;" width="70.4" x="1777.6" y="57.75"/><ellipse cx="1794.1" cy="75.35" fill="#ADD1B2" rx="12.1" ry="12.1" style="stroke:#A80036;stroke-width:1.1;"/><path d="M1796.3,71.5 Q1796.5234,70.95 1796.7813,70.675 Q1797.0391,70.4 1797.3313,70.4 Q1797.8469,70.4 1798.1734,70.7094 Q1798.5,71.0188 1798.5,71.7406 L1798.5,73.4594 Q1798.5,74.1813 1798.1906,74.4906 Q1797.8813,74.8 1797.4,74.8 Q1796.9703,74.8 1796.6953,74.6109 Q1796.4203,74.4219 1796.3,73.9234 Q1796.2484,73.5797 1796.0594,73.3906 Q1795.7156,73.0297 1795.0969,72.8234 Q1794.4781,72.6 1793.8594,72.6 Q1793.0859,72.6 1792.4328,72.9094 Q1791.7969,73.2188 1791.2984,73.9063 Q1790.8,74.5938 1790.8,75.5391 L1790.8,76.5531 Q1790.8,77.6875 1791.7281,78.4438 Q1792.6563,79.2 1794.3063,79.2 Q1795.2859,79.2 1795.9734,78.9766 Q1796.3688,78.8563 1796.8156,78.4609 Q1797.1078,78.2375 1797.2625,78.1688 Q1797.4172,78.1 1797.6063,78.1 Q1797.9672,78.1 1798.225,78.3922 Q1798.5,78.6672 1798.5,79.0625 Q1798.5,79.4406 1798.1219,79.8875 Q1797.5719,80.5406 1796.6953,80.9016 Q1795.5438,81.4 1794.1344,81.4 Q1792.4844,81.4 1791.1609,80.7469 Q1790.0953,80.2313 1789.3391,79.1141 Q1788.6,77.9969 1788.6,76.6734 L1788.6,75.4703 Q1788.6,74.0953 1789.2531,72.8922 Q1789.9234,71.6891 1791.075,71.0531 Q1792.2438,70.4 1793.55,70.4 Q1794.3406,70.4 1795.0281,70.675 Q1795.7156,70.95 1796.3,71.5 Z " fill="#000000"/><text fill="#000000" font-family="sans-serif" font-size="13.2" lengthAdjust="spacing" textLength="35.2" x="1809.5" y="80.7512">Client</text><line style="stroke:#A80036;stroke-width:1.6500000000000001;" x1="1778.7" x2="1846.9" y1="92.95" y2="92.95"/><line style="stroke:#A80036;stroke-width:1.6500000000000001;" x1="1778.7" x2="1846.9" y1="101.75" y2="101.75"/><!--MD5=[da8d81ca05feb257f2f3b5b7736e890b]
link User to Person--><path codeLine="86" d="M189.849,763.499 C197.868,778.899 206.063,794.651 213.972,809.831 " fill="none" id="User-to-Person" style="stroke:#A80036;stroke-width:1.1;"/><polygon fill="none" points="220.814,806.311,224.147,829.378,207.152,813.417,220.814,806.311" style="stroke:#A80036;stroke-width:1.1;"/><!--MD5=[33f8ed7b79d8f56217be50046b27eea3]
link Admin to Person--><path codeLine="87" d="M375.892,695.233 C359.865,726.011 337.183,769.604 316.503,809.314 " fill="none" id="Admin-to-Person" style="stroke:#A80036;stroke-width:1.1;"/><polygon fill="none" points="323.224,813.076,306.229,829.037,309.562,805.97,323.224,813.076" style="stroke:#A80036;stroke-width:1.1;"/><!--MD5=[efc4e0499150442d924926b236ead4e6]
reverse link Station to Sensor--><path codeLine="89" d="M499.4,489.511 C525.349,524.106 552.013,559.647 573.771,588.665 " fill="none" id="Station-backto-Sensor" style="stroke:#A80036;stroke-width:1.1;"/><polygon fill="#FFFFFF" points="490.644,477.818,491.084,485.738,498.564,488.378,498.124,480.458,490.644,477.818" style="stroke:#A80036;stroke-width:1.1;"/><!--MD5=[d645f27223f20aef43a769906e6f37a9]
reverse link Publisher to Station--><path codeLine="91" d="M390.786,160.237 C391.468,180.873 392.227,203.83 392.975,226.468 " fill="none" id="Publisher-backto-Station" style="stroke:#A80036;stroke-width:1.1;"/><polygon fill="none" points="383.086,160.292,390.049,138.05,398.475,159.786,383.086,160.292" style="stroke:#A80036;stroke-width:1.1;"/><!--MD5=[44c9d014ee9afea838d32a1274d01ecf]
reverse link Observer to User--><path codeLine="92" d="M175.054,137.423 C167.563,229.262 151.899,421.564 141.977,543.4 " fill="none" id="Observer-backto-User" style="stroke:#A80036;stroke-width:1.1;"/><polygon fill="none" points="167.387,136.642,176.847,115.335,182.732,137.885,167.387,136.642" style="stroke:#A80036;stroke-width:1.1;"/><!--MD5=[56c9795ecf26c620bfe46b782c2518c5]
link Observer to Publisher--><path codeLine="94" d="M242.869,84.15 C252.054,84.15 271.656,84.15 271.656,84.15 " fill="none" id="Observer-Publisher" style="stroke:#A80036;stroke-width:1.1;"/><polygon fill="#FFFFFF" points="284.856,84.15,278.256,79.75,271.656,84.15,278.256,88.55,284.856,84.15" style="stroke:#A80036;stroke-width:1.1;"/><polygon fill="#A80036" points="228.283,84.15,238.183,88.55,233.783,84.15,238.183,79.75,228.283,84.15" style="stroke:#A80036;stroke-width:1.1;"/><line style="stroke:#A80036;stroke-width:1.1;" x1="233.783" x2="242.583" y1="84.15" y2="84.15"/><!--MD5=[4a0d7cde8821b62f24587c178ed8e9b5]
reverse link Station to User--><path codeLine="96" d="M289.806,474.705 C269.841,497.332 249.106,520.828 229.493,543.059 " fill="none" id="Station-backto-User" style="stroke:#A80036;stroke-width:1.1;"/><polygon fill="#A80036" points="293.513,470.492,283.6642,475.0055,289.8746,474.6166,290.2635,480.8269,293.513,470.492" style="stroke:#A80036;stroke-width:1.1;"/><!--MD5=[ffe9bc0a80983bebe82ceeef9792d87d]
reverse link Station to Admin--><path codeLine="97" d="M397.1,483.439 C397.1,529.584 397.1,578.215 397.1,611.38 " fill="none" id="Station-backto-Admin" style="stroke:#A80036;stroke-width:1.1;"/><polygon fill="#A80036" points="397.1,477.818,392.7,487.718,397.1,483.318,401.5,487.718,397.1,477.818" style="stroke:#A80036;stroke-width:1.1;"/><!--MD5=[d40ce36fa3c351183ec1e4dda9ae9527]
reverse link State to EnabledState--><path codeLine="99" d="M816.2,435.743 C816.2,486.893 816.2,551.188 816.2,596.387 " fill="none" id="State-backto-EnabledState" style="stroke:#A80036;stroke-width:1.1;"/><polygon fill="none" points="808.5,435.644,816.2,413.644,823.9,435.644,808.5,435.644" style="stroke:#A80036;stroke-width:1.1;"/><!--MD5=[2be2160d5c565db8c9d65b730fb442bc]
reverse link State to DisabledState--><path codeLine="100" d="M863.291,432.663 C893.849,484.286 932.91,550.275 960.201,596.387 " fill="none" id="State-backto-DisabledState" style="stroke:#A80036;stroke-width:1.1;"/><polygon fill="none" points="856.614,436.502,852.038,413.644,869.869,428.659,856.614,436.502" style="stroke:#A80036;stroke-width:1.1;"/><!--MD5=[6e789fe66b17d5b09806c1b2569d5639]
link Station to State--><path codeLine="102" d="M513.843,352 C513.843,352 659.945,352 732.38,352 " fill="none" id="Station-State" style="stroke:#A80036;stroke-width:1.1;"/><polygon fill="#A80036" points="746.867,352,736.967,347.6,741.367,352,736.967,356.4,746.867,352" style="stroke:#A80036;stroke-width:1.1;"/><line style="stroke:#A80036;stroke-width:1.1;" x1="741.367" x2="732.567" y1="352" y2="352"/><polygon fill="#FFFFFF" points="500.643,352,507.243,356.4,513.843,352,507.243,347.6,500.643,352" style="stroke:#A80036;stroke-width:1.1;"/><!--MD5=[f7493cb9edc82ad4f00586472baaf781]
link WebServer to ReusableConnection--><path codeLine="112" d="M1106.952,110.726 C1086.415,159.808 1041.447,267.333 1019.315,320.254 " fill="none" id="WebServer-to-ReusableConnection" style="stroke:#A80036;stroke-width:1.1;stroke-dasharray:7.0,7.0;"/><polygon fill="#A80036" points="1017.115,325.501,1024.9924,318.0635,1019.236,320.4264,1016.8731,314.67,1017.115,325.501" style="stroke:#A80036;stroke-width:1.1;"/><!--MD5=[6440a53badbbc34b15a38377a98be285]
link DBConnectionPool to WebServer--><path codeLine="113" d="M1028.192,84.15 C1041.117,84.15 1054.042,84.15 1066.956,84.15 " fill="none" id="DBConnectionPool-WebServer" style="stroke:#A80036;stroke-width:1.1;"/><!--MD5=[0016450617a272a7fd7b60ae712761de]
link ReusableConnection to DBConnectionPool--><path codeLine="114" d="M995.698,325.325 C978.483,284.559 944.328,203.698 920.436,147.125 " fill="none" id="ReusableConnection-to-DBConnectionPool" style="stroke:#A80036;stroke-width:1.1;"/><polygon fill="#FFFFFF" points="914.749,133.661,913.2641,141.453,919.8856,145.8206,921.3705,138.0286,914.749,133.661" style="stroke:#A80036;stroke-width:1.1;"/><!--MD5=[935be9d7ebacaec33c57b7735444be87]
link Model to View--><path codeLine="147" d="M1341.252,84.15 C1352.076,84.15 1362.911,84.15 1373.735,84.15 " fill="none" id="Model-to-View" style="stroke:#A80036;stroke-width:1.1;"/><polygon fill="#A80036" points="1379.4,84.15,1369.5,79.75,1373.9,84.15,1369.5,88.55,1379.4,84.15" style="stroke:#A80036;stroke-width:1.1;"/><!--MD5=[57070e04af1ab79c5a79c6aefe469b18]
link View to Controller--><path codeLine="148" d="M1548.866,84.15 C1548.866,84.15 1556.742,84.15 1560.02,84.15 " fill="none" id="View-Controller" style="stroke:#A80036;stroke-width:1.1;"/><polygon fill="#A80036" points="1574.397,84.15,1564.497,79.75,1568.897,84.15,1564.497,88.55,1574.397,84.15" style="stroke:#A80036;stroke-width:1.1;"/><line style="stroke:#A80036;stroke-width:1.1;" x1="1568.897" x2="1560.097" y1="84.15" y2="84.15"/><polygon fill="#FFFFFF" points="1535.666,84.15,1542.266,88.55,1548.866,84.15,1542.266,79.75,1535.666,84.15" style="stroke:#A80036;stroke-width:1.1;"/><!--MD5=[4c12140e4963993f91cb4be011ec2b1b]
reverse link Model to UserModel--><path codeLine="149" d="M1291.07,155.617 C1311.101,234.707 1346.334,366.542 1384.9,477.4 C1400.025,520.872 1420.32,569.107 1435.599,603.889 " fill="none" id="Model-backto-UserModel" style="stroke:#A80036;stroke-width:1.1;"/><polygon fill="none" points="1283.491,157.025,1285.603,133.804,1298.429,153.274,1283.491,157.025" style="stroke:#A80036;stroke-width:1.1;"/><!--MD5=[e917070389b657c90b668a4ebeeca4b0]
reverse link View to UserView--><path codeLine="150" d="M1457.5,148.203 C1457.5,201.267 1457.5,275.154 1457.5,317.504 " fill="none" id="View-backto-UserView" style="stroke:#A80036;stroke-width:1.1;"/><polygon fill="none" points="1449.8,148.181,1457.5,126.181,1465.2,148.181,1449.8,148.181" style="stroke:#A80036;stroke-width:1.1;"/><!--MD5=[f2be55d3c0fcc5ca5f5b73b86cf930c5]
reverse link Controller to UserController--><path codeLine="151" d="M1655.841,140.778 C1654.257,257.466 1650.627,525.074 1649.351,618.992 " fill="none" id="Controller-backto-UserController" style="stroke:#A80036;stroke-width:1.1;"/><polygon fill="none" points="1648.152,140.503,1656.149,118.602,1663.552,140.712,1648.152,140.503" style="stroke:#A80036;stroke-width:1.1;"/><!--MD5=[4373280dbcf2b8ccb4dce7e9c56501df]
link UserView to UserModel--><path codeLine="152" d="M1457.5,386.265 C1457.5,437.404 1457.5,536.074 1457.5,597.817 " fill="none" id="UserView-to-UserModel" style="stroke:#A80036;stroke-width:1.1;"/><polygon fill="#A80036" points="1457.5,603.669,1461.9,593.769,1457.5,598.169,1453.1,593.769,1457.5,603.669" style="stroke:#A80036;stroke-width:1.1;"/><!--MD5=[ed8f2a46633b466fbc0109e50c184a7f]
reverse link UserModel to UserController--><path codeLine="153" d="M1532.586,653.4 C1543.905,653.4 1555.224,653.4 1566.543,653.4 " fill="none" id="UserModel-backto-UserController" style="stroke:#A80036;stroke-width:1.1;"/><polygon fill="#A80036" points="1527.031,653.4,1536.931,657.8,1532.531,653.4,1536.931,649,1527.031,653.4" style="stroke:#A80036;stroke-width:1.1;"/><!--MD5=[5d7a8e65dc18752575c708ca20bf9dca]
link Client to HTMLComponent--><path codeLine="179" d="M1848.066,84.15 C1859.088,84.15 1870.099,84.15 1881.11,84.15 " fill="none" id="Client-to-HTMLComponent" style="stroke:#A80036;stroke-width:1.1;"/><polygon fill="#A80036" points="1886.874,84.15,1876.974,79.75,1881.374,84.15,1876.974,88.55,1886.874,84.15" style="stroke:#A80036;stroke-width:1.1;"/><!--MD5=[c41c29348ba0f5f6cc826b0256d83855]
reverse link HTMLComponent to HTMLLeaf--><path codeLine="180" d="M1910.821,177.397 C1896.07,193.468 1881.231,210.276 1867.8,226.6 C1845.701,253.451 1822.887,285.373 1805.87,310.145 " fill="none" id="HTMLComponent-backto-HTMLLeaf" style="stroke:#A80036;stroke-width:1.1;"/><polygon fill="none" points="1905.486,171.831,1926.1,160.952,1916.761,182.314,1905.486,171.831" style="stroke:#A80036;stroke-width:1.1;"/><!--MD5=[69778e24711588502646a21c7dd2b07f]
reverse link HTMLComponent to HTMLComposite--><path codeLine="181" d="M1987.315,182.974 C1986.413,217.844 1986.886,256.201 1988.734,287.43 " fill="none" id="HTMLComponent-backto-HTMLComposite" style="stroke:#A80036;stroke-width:1.1;"/><polygon fill="none" points="1979.637,182.38,1988.107,160.666,1995.026,182.919,1979.637,182.38" style="stroke:#A80036;stroke-width:1.1;"/><!--MD5=[69778e24711588502646a21c7dd2b07f]
reverse link HTMLComponent to HTMLComposite--><path codeLine="182" d="M2014.705,166.353 C2016.355,205.238 2016.047,251.141 2013.781,287.43 " fill="none" id="HTMLComponent-backto-HTMLComposite-1" style="stroke:#A80036;stroke-width:1.1;"/><polygon fill="#A80036" points="2014.441,160.666,2010.4977,170.7566,2014.6922,166.1603,2019.2885,170.3547,2014.441,160.666" style="stroke:#A80036;stroke-width:1.1;"/><!--MD5=[ca0d98925ee04982f2d8f995281077e3]
@startuml


interface Publisher <<interface>> {
    +attachObserver(Observer) : void
    +detachObserver(Observer) : void
    +notify() : void
}

interface Observer <<interface>> {
}

class Person {
    -firstName : String
    -lastName : String
    -email : String
    -hashedPassword : String
    +getFirstName() : String
    +getLastName() : String
    +getEmail() : String
}

class User {
    -intervalNotificationsEnabled : boolean
    -timeInterval : string
    -alarmNotificationsEnabled : boolean
    -alarmRanges : Double[][]
    +getIntervalNotificationsEnabled() : boolean
    +getTimeInterval() : string
    +getAlarmNotificationsEnabled() : boolean
    +getAlarmRanges() : Double[][]
    -updateAlarmRanges(Double[][]) : void
    -subscribeToStation(Station) : void
    -unsubscribeFromStation(Station) : void
}

class Admin {
    -enableStation(Station) : boolean
    -disableStation(Station) : boolean
}

class Sensor {
    -type : String
    -value : Double
    +getType() : String
    +getValue() : Double
    -updateValue(Double) : void
}

class Station {
    -temperatureSensor : Sensor
    -pressureSensor : Sensor
    -humiditySensor : Sensor
    -altitudeSensor : Sensor
    -observers : Observer[]
    -state : State
    +attachObserver(Observer) : void
    +detachObserver(Observer) : void
    -notify() : void
    -intervalNotify() : void
    -alarmNotify() : void
    +getState() : State
    +setState() : State
}

interface State <<interface>> {
    +intervalNotify() : void
    +alarmNotify() : void
    +enable() : void
    +disable() : void
}

class EnabledState {
    +intervalNotify() : void
    +alarmNotify() : void
    +enable() : void
    +disable() : void
}

class DisabledState {
    +intervalNotify() : void
    +alarmNotify() : void
    +enable() : void
    +disable() : void
}

User - -|> Person
Admin - -|> Person

Station o- - Sensor

Publisher <|- - Station
Observer <|- - - User

Observer <-o Publisher

Station <- - User
Station <- - Admin

State <|- - EnabledState
State <|- - DisabledState

Station o-> State



class DBConnectionPool {
    +getInstance() : DBConnectionPool
    +acquireReusable() : ReusableConnection
    +releaseReusable(ReusableConnection) : void
}

WebServer ..> ReusableConnection
DBConnectionPool - WebServer
ReusableConnection - -o DBConnectionPool



class Model {
    +attach(View) : void
    +detach(View) : void
    +notify()
}

class View {
    +update() : void
    +contextInterface() : void
}

class Controller {
    +algorithmInterface() : void
}

class UserModel {
    -userState : User
    +getState() : User
    +setState(User) : void
}

class UserView {
    +update() : void
}

class UserController {
    +algorithmInterface() : void
}

Model -> View
View o-> Controller
Model <|- - - UserModel
View <|- - UserView
Controller <|- - - UserController
UserView - -> UserModel
UserModel <- UserController



abstract class HTMLComponent <<abstract>> {
    -text : String
    +getText() : String
    +setText(String) : void
    +addComponent(Component) : void
    +removeComponent(Component) : void
    +getChild(int) : Component
}

class HTMLLeaf {
    +getText() : String
    +setText(String) : void
}

class HTMLComposite {
    +getText() : String
    +setText(String) : void
    +addComponent(Component) : void
    +removeComponent(Component) : void
    +getChild(int) : Component
}

Client -> HTMLComponent
HTMLComponent <|- - HTMLLeaf
HTMLComponent <|- - HTMLComposite
HTMLComponent <- - HTMLComposite



@enduml

PlantUML version 1.2021.11(Sat Oct 02 07:26:11 MDT 2021)
(GPL source distribution)
Java Runtime: OpenJDK Runtime Environment
JVM: OpenJDK 64-Bit Server VM
Default Encoding: Cp1252
Language: en
Country: US
--></g></svg>